<?xml version="1.0" encoding="utf-8" standalone="no"?>
<!DOCTYPE svg PUBLIC "-//W3C//DTD SVG 1.1//EN"
  "http://www.w3.org/Graphics/SVG/1.1/DTD/svg11.dtd">
<svg xmlns:xlink="http://www.w3.org/1999/xlink" width="882.173793pt" height="395.032pt" viewBox="0 0 882.173793 395.032" xmlns="http://www.w3.org/2000/svg" version="1.1">
 <metadata>
  <rdf:RDF xmlns:dc="http://purl.org/dc/elements/1.1/" xmlns:cc="http://creativecommons.org/ns#" xmlns:rdf="http://www.w3.org/1999/02/22-rdf-syntax-ns#">
   <cc:Work>
    <dc:type rdf:resource="http://purl.org/dc/dcmitype/StillImage"/>
    <dc:date>2026-05-02T00:04:56.776498</dc:date>
    <dc:format>image/svg+xml</dc:format>
    <dc:creator>
     <cc:Agent>
      <dc:title>Matplotlib v3.10.9, https://matplotlib.org/</dc:title>
     </cc:Agent>
    </dc:creator>
   </cc:Work>
  </rdf:RDF>
 </metadata>
 <defs>
  <style type="text/css">*{stroke-linejoin: round; stroke-linecap: butt}</style>
 </defs>
 <g id="figure_1">
  <g id="patch_1">
   <path d="M 0 395.032 
L 882.173793 395.032 
L 882.173793 -0 
L 0 -0 
z
" style="fill: #f8fafc"/>
  </g>
  <g id="axes_1">
   <g id="patch_2">
    <path d="M 7.2 269.28 
L 209.376 269.28 
L 209.376 67.104 
L 7.2 67.104 
z
" style="fill: #ffffff"/>
   </g>
   <g id="patch_3">
    <path d="M 74.592 269.28 
L 108.288 269.28 
L 108.288 235.584 
L 74.592 235.584 
z
" clip-path="url(#p4d97dd657d)" style="fill: #fb923c; opacity: 0.85"/>
   </g>
   <g id="patch_4">
    <path d="M 108.288 269.28 
L 141.984 269.28 
L 141.984 235.584 
L 108.288 235.584 
z
" clip-path="url(#p4d97dd657d)" style="fill: #fb923c; opacity: 0.85"/>
   </g>
   <g id="patch_5">
    <path d="M 141.984 269.28 
L 175.68 269.28 
L 175.68 235.584 
L 141.984 235.584 
z
" clip-path="url(#p4d97dd657d)" style="fill: #fb923c; opacity: 0.85"/>
   </g>
   <g id="patch_6">
    <path d="M 40.896 235.584 
L 74.592 235.584 
L 74.592 201.888 
L 40.896 201.888 
z
" clip-path="url(#p4d97dd657d)" style="fill: #fb923c; opacity: 0.85"/>
   </g>
   <g id="patch_7">
    <path d="M 74.592 235.584 
L 108.288 235.584 
L 108.288 201.888 
L 74.592 201.888 
z
" clip-path="url(#p4d97dd657d)" style="fill: #fb923c; opacity: 0.85"/>
   </g>
   <g id="patch_8">
    <path d="M 141.984 235.584 
L 175.68 235.584 
L 175.68 201.888 
L 141.984 201.888 
z
" clip-path="url(#p4d97dd657d)" style="fill: #fb923c; opacity: 0.85"/>
   </g>
   <g id="patch_9">
    <path d="M 175.68 235.584 
L 209.376 235.584 
L 209.376 201.888 
L 175.68 201.888 
z
" clip-path="url(#p4d97dd657d)" style="fill: #fb923c; opacity: 0.85"/>
   </g>
   <g id="patch_10">
    <path d="M 7.2 201.888 
L 40.896 201.888 
L 40.896 168.192 
L 7.2 168.192 
z
" clip-path="url(#p4d97dd657d)" style="fill: #fb923c; opacity: 0.85"/>
   </g>
   <g id="patch_11">
    <path d="M 40.896 201.888 
L 74.592 201.888 
L 74.592 168.192 
L 40.896 168.192 
z
" clip-path="url(#p4d97dd657d)" style="fill: #fb923c; opacity: 0.85"/>
   </g>
   <g id="patch_12">
    <path d="M 175.68 201.888 
L 209.376 201.888 
L 209.376 168.192 
L 175.68 168.192 
z
" clip-path="url(#p4d97dd657d)" style="fill: #fb923c; opacity: 0.85"/>
   </g>
   <g id="patch_13">
    <path d="M 7.2 168.192 
L 40.896 168.192 
L 40.896 134.496 
L 7.2 134.496 
z
" clip-path="url(#p4d97dd657d)" style="fill: #fb923c; opacity: 0.85"/>
   </g>
   <g id="patch_14">
    <path d="M 40.896 168.192 
L 74.592 168.192 
L 74.592 134.496 
L 40.896 134.496 
z
" clip-path="url(#p4d97dd657d)" style="fill: #fb923c; opacity: 0.85"/>
   </g>
   <g id="patch_15">
    <path d="M 175.68 168.192 
L 209.376 168.192 
L 209.376 134.496 
L 175.68 134.496 
z
" clip-path="url(#p4d97dd657d)" style="fill: #fb923c; opacity: 0.85"/>
   </g>
   <g id="patch_16">
    <path d="M 40.896 134.496 
L 74.592 134.496 
L 74.592 100.8 
L 40.896 100.8 
z
" clip-path="url(#p4d97dd657d)" style="fill: #fb923c; opacity: 0.85"/>
   </g>
   <g id="patch_17">
    <path d="M 74.592 134.496 
L 108.288 134.496 
L 108.288 100.8 
L 74.592 100.8 
z
" clip-path="url(#p4d97dd657d)" style="fill: #fb923c; opacity: 0.85"/>
   </g>
   <g id="patch_18">
    <path d="M 141.984 134.496 
L 175.68 134.496 
L 175.68 100.8 
L 141.984 100.8 
z
" clip-path="url(#p4d97dd657d)" style="fill: #fb923c; opacity: 0.85"/>
   </g>
   <g id="patch_19">
    <path d="M 175.68 134.496 
L 209.376 134.496 
L 209.376 100.8 
L 175.68 100.8 
z
" clip-path="url(#p4d97dd657d)" style="fill: #fb923c; opacity: 0.85"/>
   </g>
   <g id="patch_20">
    <path d="M 74.592 100.8 
L 108.288 100.8 
L 108.288 67.104 
L 74.592 67.104 
z
" clip-path="url(#p4d97dd657d)" style="fill: #fb923c; opacity: 0.85"/>
   </g>
   <g id="patch_21">
    <path d="M 108.288 100.8 
L 141.984 100.8 
L 141.984 67.104 
L 108.288 67.104 
z
" clip-path="url(#p4d97dd657d)" style="fill: #fb923c; opacity: 0.85"/>
   </g>
   <g id="patch_22">
    <path d="M 141.984 100.8 
L 175.68 100.8 
L 175.68 67.104 
L 141.984 67.104 
z
" clip-path="url(#p4d97dd657d)" style="fill: #fb923c; opacity: 0.85"/>
   </g>
   <g id="matplotlib.axis_1"/>
   <g id="matplotlib.axis_2"/>
   <g id="line2d_1">
    <path d="M 7.2 269.28 
L 7.2 67.104 
" clip-path="url(#p4d97dd657d)" style="fill: none; stroke: #94a3b8; stroke-linecap: square"/>
   </g>
   <g id="line2d_2">
    <path d="M 40.896 269.28 
L 40.896 67.104 
" clip-path="url(#p4d97dd657d)" style="fill: none; stroke: #94a3b8; stroke-linecap: square"/>
   </g>
   <g id="line2d_3">
    <path d="M 74.592 269.28 
L 74.592 67.104 
" clip-path="url(#p4d97dd657d)" style="fill: none; stroke: #94a3b8; stroke-linecap: square"/>
   </g>
   <g id="line2d_4">
    <path d="M 108.288 269.28 
L 108.288 67.104 
" clip-path="url(#p4d97dd657d)" style="fill: none; stroke: #94a3b8; stroke-linecap: square"/>
   </g>
   <g id="line2d_5">
    <path d="M 141.984 269.28 
L 141.984 67.104 
" clip-path="url(#p4d97dd657d)" style="fill: none; stroke: #94a3b8; stroke-linecap: square"/>
   </g>
   <g id="line2d_6">
    <path d="M 175.68 269.28 
L 175.68 67.104 
" clip-path="url(#p4d97dd657d)" style="fill: none; stroke: #94a3b8; stroke-linecap: square"/>
   </g>
   <g id="line2d_7">
    <path d="M 209.376 269.28 
L 209.376 67.104 
" clip-path="url(#p4d97dd657d)" style="fill: none; stroke: #94a3b8; stroke-linecap: square"/>
   </g>
   <g id="line2d_8">
    <path d="M 7.2 269.28 
L 209.376 269.28 
" clip-path="url(#p4d97dd657d)" style="fill: none; stroke: #94a3b8; stroke-linecap: square"/>
   </g>
   <g id="line2d_9">
    <path d="M 7.2 235.584 
L 209.376 235.584 
" clip-path="url(#p4d97dd657d)" style="fill: none; stroke: #94a3b8; stroke-linecap: square"/>
   </g>
   <g id="line2d_10">
    <path d="M 7.2 201.888 
L 209.376 201.888 
" clip-path="url(#p4d97dd657d)" style="fill: none; stroke: #94a3b8; stroke-linecap: square"/>
   </g>
   <g id="line2d_11">
    <path d="M 7.2 168.192 
L 209.376 168.192 
" clip-path="url(#p4d97dd657d)" style="fill: none; stroke: #94a3b8; stroke-linecap: square"/>
   </g>
   <g id="line2d_12">
    <path d="M 7.2 134.496 
L 209.376 134.496 
" clip-path="url(#p4d97dd657d)" style="fill: none; stroke: #94a3b8; stroke-linecap: square"/>
   </g>
   <g id="line2d_13">
    <path d="M 7.2 100.8 
L 209.376 100.8 
" clip-path="url(#p4d97dd657d)" style="fill: none; stroke: #94a3b8; stroke-linecap: square"/>
   </g>
   <g id="line2d_14">
    <path d="M 7.2 67.104 
L 209.376 67.104 
" clip-path="url(#p4d97dd657d)" style="fill: none; stroke: #94a3b8; stroke-linecap: square"/>
   </g>
   <g id="text_1">
    <!-- Ring segments mark every crossed cell -->
    <g style="fill: #334155" transform="translate(19.623937 308.466754) scale(0.09 -0.09)">
     <defs>
      <path id="DejaVuSans-52" d="M 2841 2188 
Q 3044 2119 3236 1894 
Q 3428 1669 3622 1275 
L 4263 0 
L 3584 0 
L 2988 1197 
Q 2756 1666 2539 1819 
Q 2322 1972 1947 1972 
L 1259 1972 
L 1259 0 
L 628 0 
L 628 4666 
L 2053 4666 
Q 2853 4666 3247 4331 
Q 3641 3997 3641 3322 
Q 3641 2881 3436 2590 
Q 3231 2300 2841 2188 
z
M 1259 4147 
L 1259 2491 
L 2053 2491 
Q 2509 2491 2742 2702 
Q 2975 2913 2975 3322 
Q 2975 3731 2742 3939 
Q 2509 4147 2053 4147 
L 1259 4147 
z
" transform="scale(0.015625)"/>
      <path id="DejaVuSans-69" d="M 603 3500 
L 1178 3500 
L 1178 0 
L 603 0 
L 603 3500 
z
M 603 4863 
L 1178 4863 
L 1178 4134 
L 603 4134 
L 603 4863 
z
" transform="scale(0.015625)"/>
      <path id="DejaVuSans-6e" d="M 3513 2113 
L 3513 0 
L 2938 0 
L 2938 2094 
Q 2938 2591 2744 2837 
Q 2550 3084 2163 3084 
Q 1697 3084 1428 2787 
Q 1159 2491 1159 1978 
L 1159 0 
L 581 0 
L 581 3500 
L 1159 3500 
L 1159 2956 
Q 1366 3272 1645 3428 
Q 1925 3584 2291 3584 
Q 2894 3584 3203 3211 
Q 3513 2838 3513 2113 
z
" transform="scale(0.015625)"/>
      <path id="DejaVuSans-67" d="M 2906 1791 
Q 2906 2416 2648 2759 
Q 2391 3103 1925 3103 
Q 1463 3103 1205 2759 
Q 947 2416 947 1791 
Q 947 1169 1205 825 
Q 1463 481 1925 481 
Q 2391 481 2648 825 
Q 2906 1169 2906 1791 
z
M 3481 434 
Q 3481 -459 3084 -895 
Q 2688 -1331 1869 -1331 
Q 1566 -1331 1297 -1286 
Q 1028 -1241 775 -1147 
L 775 -588 
Q 1028 -725 1275 -790 
Q 1522 -856 1778 -856 
Q 2344 -856 2625 -561 
Q 2906 -266 2906 331 
L 2906 616 
Q 2728 306 2450 153 
Q 2172 0 1784 0 
Q 1141 0 747 490 
Q 353 981 353 1791 
Q 353 2603 747 3093 
Q 1141 3584 1784 3584 
Q 2172 3584 2450 3431 
Q 2728 3278 2906 2969 
L 2906 3500 
L 3481 3500 
L 3481 434 
z
" transform="scale(0.015625)"/>
      <path id="DejaVuSans-20" transform="scale(0.015625)"/>
      <path id="DejaVuSans-73" d="M 2834 3397 
L 2834 2853 
Q 2591 2978 2328 3040 
Q 2066 3103 1784 3103 
Q 1356 3103 1142 2972 
Q 928 2841 928 2578 
Q 928 2378 1081 2264 
Q 1234 2150 1697 2047 
L 1894 2003 
Q 2506 1872 2764 1633 
Q 3022 1394 3022 966 
Q 3022 478 2636 193 
Q 2250 -91 1575 -91 
Q 1294 -91 989 -36 
Q 684 19 347 128 
L 347 722 
Q 666 556 975 473 
Q 1284 391 1588 391 
Q 1994 391 2212 530 
Q 2431 669 2431 922 
Q 2431 1156 2273 1281 
Q 2116 1406 1581 1522 
L 1381 1569 
Q 847 1681 609 1914 
Q 372 2147 372 2553 
Q 372 3047 722 3315 
Q 1072 3584 1716 3584 
Q 2034 3584 2315 3537 
Q 2597 3491 2834 3397 
z
" transform="scale(0.015625)"/>
      <path id="DejaVuSans-65" d="M 3597 1894 
L 3597 1613 
L 953 1613 
Q 991 1019 1311 708 
Q 1631 397 2203 397 
Q 2534 397 2845 478 
Q 3156 559 3463 722 
L 3463 178 
Q 3153 47 2828 -22 
Q 2503 -91 2169 -91 
Q 1331 -91 842 396 
Q 353 884 353 1716 
Q 353 2575 817 3079 
Q 1281 3584 2069 3584 
Q 2775 3584 3186 3129 
Q 3597 2675 3597 1894 
z
M 3022 2063 
Q 3016 2534 2758 2815 
Q 2500 3097 2075 3097 
Q 1594 3097 1305 2825 
Q 1016 2553 972 2059 
L 3022 2063 
z
" transform="scale(0.015625)"/>
      <path id="DejaVuSans-6d" d="M 3328 2828 
Q 3544 3216 3844 3400 
Q 4144 3584 4550 3584 
Q 5097 3584 5394 3201 
Q 5691 2819 5691 2113 
L 5691 0 
L 5113 0 
L 5113 2094 
Q 5113 2597 4934 2840 
Q 4756 3084 4391 3084 
Q 3944 3084 3684 2787 
Q 3425 2491 3425 1978 
L 3425 0 
L 2847 0 
L 2847 2094 
Q 2847 2600 2669 2842 
Q 2491 3084 2119 3084 
Q 1678 3084 1418 2786 
Q 1159 2488 1159 1978 
L 1159 0 
L 581 0 
L 581 3500 
L 1159 3500 
L 1159 2956 
Q 1356 3278 1631 3431 
Q 1906 3584 2284 3584 
Q 2666 3584 2933 3390 
Q 3200 3197 3328 2828 
z
" transform="scale(0.015625)"/>
      <path id="DejaVuSans-74" d="M 1172 4494 
L 1172 3500 
L 2356 3500 
L 2356 3053 
L 1172 3053 
L 1172 1153 
Q 1172 725 1289 603 
Q 1406 481 1766 481 
L 2356 481 
L 2356 0 
L 1766 0 
Q 1100 0 847 248 
Q 594 497 594 1153 
L 594 3053 
L 172 3053 
L 172 3500 
L 594 3500 
L 594 4494 
L 1172 4494 
z
" transform="scale(0.015625)"/>
      <path id="DejaVuSans-61" d="M 2194 1759 
Q 1497 1759 1228 1600 
Q 959 1441 959 1056 
Q 959 750 1161 570 
Q 1363 391 1709 391 
Q 2188 391 2477 730 
Q 2766 1069 2766 1631 
L 2766 1759 
L 2194 1759 
z
M 3341 1997 
L 3341 0 
L 2766 0 
L 2766 531 
Q 2569 213 2275 61 
Q 1981 -91 1556 -91 
Q 1019 -91 701 211 
Q 384 513 384 1019 
Q 384 1609 779 1909 
Q 1175 2209 1959 2209 
L 2766 2209 
L 2766 2266 
Q 2766 2663 2505 2880 
Q 2244 3097 1772 3097 
Q 1472 3097 1187 3025 
Q 903 2953 641 2809 
L 641 3341 
Q 956 3463 1253 3523 
Q 1550 3584 1831 3584 
Q 2591 3584 2966 3190 
Q 3341 2797 3341 1997 
z
" transform="scale(0.015625)"/>
      <path id="DejaVuSans-72" d="M 2631 2963 
Q 2534 3019 2420 3045 
Q 2306 3072 2169 3072 
Q 1681 3072 1420 2755 
Q 1159 2438 1159 1844 
L 1159 0 
L 581 0 
L 581 3500 
L 1159 3500 
L 1159 2956 
Q 1341 3275 1631 3429 
Q 1922 3584 2338 3584 
Q 2397 3584 2469 3576 
Q 2541 3569 2628 3553 
L 2631 2963 
z
" transform="scale(0.015625)"/>
      <path id="DejaVuSans-6b" d="M 581 4863 
L 1159 4863 
L 1159 1991 
L 2875 3500 
L 3609 3500 
L 1753 1863 
L 3688 0 
L 2938 0 
L 1159 1709 
L 1159 0 
L 581 0 
L 581 4863 
z
" transform="scale(0.015625)"/>
      <path id="DejaVuSans-76" d="M 191 3500 
L 800 3500 
L 1894 563 
L 2988 3500 
L 3597 3500 
L 2284 0 
L 1503 0 
L 191 3500 
z
" transform="scale(0.015625)"/>
      <path id="DejaVuSans-79" d="M 2059 -325 
Q 1816 -950 1584 -1140 
Q 1353 -1331 966 -1331 
L 506 -1331 
L 506 -850 
L 844 -850 
Q 1081 -850 1212 -737 
Q 1344 -625 1503 -206 
L 1606 56 
L 191 3500 
L 800 3500 
L 1894 763 
L 2988 3500 
L 3597 3500 
L 2059 -325 
z
" transform="scale(0.015625)"/>
      <path id="DejaVuSans-63" d="M 3122 3366 
L 3122 2828 
Q 2878 2963 2633 3030 
Q 2388 3097 2138 3097 
Q 1578 3097 1268 2742 
Q 959 2388 959 1747 
Q 959 1106 1268 751 
Q 1578 397 2138 397 
Q 2388 397 2633 464 
Q 2878 531 3122 666 
L 3122 134 
Q 2881 22 2623 -34 
Q 2366 -91 2075 -91 
Q 1284 -91 818 406 
Q 353 903 353 1747 
Q 353 2603 823 3093 
Q 1294 3584 2113 3584 
Q 2378 3584 2631 3529 
Q 2884 3475 3122 3366 
z
" transform="scale(0.015625)"/>
      <path id="DejaVuSans-6f" d="M 1959 3097 
Q 1497 3097 1228 2736 
Q 959 2375 959 1747 
Q 959 1119 1226 758 
Q 1494 397 1959 397 
Q 2419 397 2687 759 
Q 2956 1122 2956 1747 
Q 2956 2369 2687 2733 
Q 2419 3097 1959 3097 
z
M 1959 3584 
Q 2709 3584 3137 3096 
Q 3566 2609 3566 1747 
Q 3566 888 3137 398 
Q 2709 -91 1959 -91 
Q 1206 -91 779 398 
Q 353 888 353 1747 
Q 353 2609 779 3096 
Q 1206 3584 1959 3584 
z
" transform="scale(0.015625)"/>
      <path id="DejaVuSans-64" d="M 2906 2969 
L 2906 4863 
L 3481 4863 
L 3481 0 
L 2906 0 
L 2906 525 
Q 2725 213 2448 61 
Q 2172 -91 1784 -91 
Q 1150 -91 751 415 
Q 353 922 353 1747 
Q 353 2572 751 3078 
Q 1150 3584 1784 3584 
Q 2172 3584 2448 3432 
Q 2725 3281 2906 2969 
z
M 947 1747 
Q 947 1113 1208 752 
Q 1469 391 1925 391 
Q 2381 391 2643 752 
Q 2906 1113 2906 1747 
Q 2906 2381 2643 2742 
Q 2381 3103 1925 3103 
Q 1469 3103 1208 2742 
Q 947 2381 947 1747 
z
" transform="scale(0.015625)"/>
      <path id="DejaVuSans-6c" d="M 603 4863 
L 1178 4863 
L 1178 0 
L 603 0 
L 603 4863 
z
" transform="scale(0.015625)"/>
     </defs>
     <use xlink:href="#DejaVuSans-52"/>
     <use xlink:href="#DejaVuSans-69" transform="translate(69.482422 0)"/>
     <use xlink:href="#DejaVuSans-6e" transform="translate(97.265625 0)"/>
     <use xlink:href="#DejaVuSans-67" transform="translate(160.644531 0)"/>
     <use xlink:href="#DejaVuSans-20" transform="translate(224.121094 0)"/>
     <use xlink:href="#DejaVuSans-73" transform="translate(255.908203 0)"/>
     <use xlink:href="#DejaVuSans-65" transform="translate(308.007812 0)"/>
     <use xlink:href="#DejaVuSans-67" transform="translate(369.53125 0)"/>
     <use xlink:href="#DejaVuSans-6d" transform="translate(433.007812 0)"/>
     <use xlink:href="#DejaVuSans-65" transform="translate(530.419922 0)"/>
     <use xlink:href="#DejaVuSans-6e" transform="translate(591.943359 0)"/>
     <use xlink:href="#DejaVuSans-74" transform="translate(655.322266 0)"/>
     <use xlink:href="#DejaVuSans-73" transform="translate(694.53125 0)"/>
     <use xlink:href="#DejaVuSans-20" transform="translate(746.630859 0)"/>
     <use xlink:href="#DejaVuSans-6d" transform="translate(778.417969 0)"/>
     <use xlink:href="#DejaVuSans-61" transform="translate(875.830078 0)"/>
     <use xlink:href="#DejaVuSans-72" transform="translate(937.109375 0)"/>
     <use xlink:href="#DejaVuSans-6b" transform="translate(978.222656 0)"/>
     <use xlink:href="#DejaVuSans-20" transform="translate(1036.132812 0)"/>
     <use xlink:href="#DejaVuSans-65" transform="translate(1067.919922 0)"/>
     <use xlink:href="#DejaVuSans-76" transform="translate(1129.443359 0)"/>
     <use xlink:href="#DejaVuSans-65" transform="translate(1188.623047 0)"/>
     <use xlink:href="#DejaVuSans-72" transform="translate(1250.146484 0)"/>
     <use xlink:href="#DejaVuSans-79" transform="translate(1291.259766 0)"/>
     <use xlink:href="#DejaVuSans-20" transform="translate(1350.439453 0)"/>
     <use xlink:href="#DejaVuSans-63" transform="translate(1382.226562 0)"/>
     <use xlink:href="#DejaVuSans-72" transform="translate(1437.207031 0)"/>
     <use xlink:href="#DejaVuSans-6f" transform="translate(1476.070312 0)"/>
     <use xlink:href="#DejaVuSans-73" transform="translate(1537.251953 0)"/>
     <use xlink:href="#DejaVuSans-73" transform="translate(1589.351562 0)"/>
     <use xlink:href="#DejaVuSans-65" transform="translate(1641.451172 0)"/>
     <use xlink:href="#DejaVuSans-64" transform="translate(1702.974609 0)"/>
     <use xlink:href="#DejaVuSans-20" transform="translate(1766.451172 0)"/>
     <use xlink:href="#DejaVuSans-63" transform="translate(1798.238281 0)"/>
     <use xlink:href="#DejaVuSans-65" transform="translate(1853.21875 0)"/>
     <use xlink:href="#DejaVuSans-6c" transform="translate(1914.742188 0)"/>
     <use xlink:href="#DejaVuSans-6c" transform="translate(1942.525391 0)"/>
    </g>
    <!-- for exact processing. -->
    <g style="fill: #334155" transform="translate(61.210969 318.544785) scale(0.09 -0.09)">
     <defs>
      <path id="DejaVuSans-66" d="M 2375 4863 
L 2375 4384 
L 1825 4384 
Q 1516 4384 1395 4259 
Q 1275 4134 1275 3809 
L 1275 3500 
L 2222 3500 
L 2222 3053 
L 1275 3053 
L 1275 0 
L 697 0 
L 697 3053 
L 147 3053 
L 147 3500 
L 697 3500 
L 697 3744 
Q 697 4328 969 4595 
Q 1241 4863 1831 4863 
L 2375 4863 
z
" transform="scale(0.015625)"/>
      <path id="DejaVuSans-78" d="M 3513 3500 
L 2247 1797 
L 3578 0 
L 2900 0 
L 1881 1375 
L 863 0 
L 184 0 
L 1544 1831 
L 300 3500 
L 978 3500 
L 1906 2253 
L 2834 3500 
L 3513 3500 
z
" transform="scale(0.015625)"/>
      <path id="DejaVuSans-70" d="M 1159 525 
L 1159 -1331 
L 581 -1331 
L 581 3500 
L 1159 3500 
L 1159 2969 
Q 1341 3281 1617 3432 
Q 1894 3584 2278 3584 
Q 2916 3584 3314 3078 
Q 3713 2572 3713 1747 
Q 3713 922 3314 415 
Q 2916 -91 2278 -91 
Q 1894 -91 1617 61 
Q 1341 213 1159 525 
z
M 3116 1747 
Q 3116 2381 2855 2742 
Q 2594 3103 2138 3103 
Q 1681 3103 1420 2742 
Q 1159 2381 1159 1747 
Q 1159 1113 1420 752 
Q 1681 391 2138 391 
Q 2594 391 2855 752 
Q 3116 1113 3116 1747 
z
" transform="scale(0.015625)"/>
      <path id="DejaVuSans-2e" d="M 684 794 
L 1344 794 
L 1344 0 
L 684 0 
L 684 794 
z
" transform="scale(0.015625)"/>
     </defs>
     <use xlink:href="#DejaVuSans-66"/>
     <use xlink:href="#DejaVuSans-6f" transform="translate(35.205078 0)"/>
     <use xlink:href="#DejaVuSans-72" transform="translate(96.386719 0)"/>
     <use xlink:href="#DejaVuSans-20" transform="translate(137.5 0)"/>
     <use xlink:href="#DejaVuSans-65" transform="translate(169.287109 0)"/>
     <use xlink:href="#DejaVuSans-78" transform="translate(229.060547 0)"/>
     <use xlink:href="#DejaVuSans-61" transform="translate(288.240234 0)"/>
     <use xlink:href="#DejaVuSans-63" transform="translate(349.519531 0)"/>
     <use xlink:href="#DejaVuSans-74" transform="translate(404.5 0)"/>
     <use xlink:href="#DejaVuSans-20" transform="translate(443.708984 0)"/>
     <use xlink:href="#DejaVuSans-70" transform="translate(475.496094 0)"/>
     <use xlink:href="#DejaVuSans-72" transform="translate(538.972656 0)"/>
     <use xlink:href="#DejaVuSans-6f" transform="translate(577.835938 0)"/>
     <use xlink:href="#DejaVuSans-63" transform="translate(639.017578 0)"/>
     <use xlink:href="#DejaVuSans-65" transform="translate(693.998047 0)"/>
     <use xlink:href="#DejaVuSans-73" transform="translate(755.521484 0)"/>
     <use xlink:href="#DejaVuSans-73" transform="translate(807.621094 0)"/>
     <use xlink:href="#DejaVuSans-69" transform="translate(859.720703 0)"/>
     <use xlink:href="#DejaVuSans-6e" transform="translate(887.503906 0)"/>
     <use xlink:href="#DejaVuSans-67" transform="translate(950.882812 0)"/>
     <use xlink:href="#DejaVuSans-2e" transform="translate(1014.359375 0)"/>
    </g>
   </g>
   <g id="text_2">
    <!-- 1. Boundary cells -->
    <g transform="translate(49.893937 57.104) scale(0.12 -0.12)">
     <defs>
      <path id="DejaVuSans-Bold-31" d="M 750 831 
L 1813 831 
L 1813 3847 
L 722 3622 
L 722 4441 
L 1806 4666 
L 2950 4666 
L 2950 831 
L 4013 831 
L 4013 0 
L 750 0 
L 750 831 
z
" transform="scale(0.015625)"/>
      <path id="DejaVuSans-Bold-2e" d="M 653 1209 
L 1778 1209 
L 1778 0 
L 653 0 
L 653 1209 
z
" transform="scale(0.015625)"/>
      <path id="DejaVuSans-Bold-20" transform="scale(0.015625)"/>
      <path id="DejaVuSans-Bold-42" d="M 2456 2859 
Q 2741 2859 2887 2984 
Q 3034 3109 3034 3353 
Q 3034 3594 2887 3720 
Q 2741 3847 2456 3847 
L 1791 3847 
L 1791 2859 
L 2456 2859 
z
M 2497 819 
Q 2859 819 3042 972 
Q 3225 1125 3225 1434 
Q 3225 1738 3044 1889 
Q 2863 2041 2497 2041 
L 1791 2041 
L 1791 819 
L 2497 819 
z
M 3616 2497 
Q 4003 2384 4215 2081 
Q 4428 1778 4428 1338 
Q 4428 663 3972 331 
Q 3516 0 2584 0 
L 588 0 
L 588 4666 
L 2394 4666 
Q 3366 4666 3802 4372 
Q 4238 4078 4238 3431 
Q 4238 3091 4078 2852 
Q 3919 2613 3616 2497 
z
" transform="scale(0.015625)"/>
      <path id="DejaVuSans-Bold-6f" d="M 2203 2784 
Q 1831 2784 1636 2517 
Q 1441 2250 1441 1747 
Q 1441 1244 1636 976 
Q 1831 709 2203 709 
Q 2569 709 2762 976 
Q 2956 1244 2956 1747 
Q 2956 2250 2762 2517 
Q 2569 2784 2203 2784 
z
M 2203 3584 
Q 3106 3584 3614 3096 
Q 4122 2609 4122 1747 
Q 4122 884 3614 396 
Q 3106 -91 2203 -91 
Q 1297 -91 786 396 
Q 275 884 275 1747 
Q 275 2609 786 3096 
Q 1297 3584 2203 3584 
z
" transform="scale(0.015625)"/>
      <path id="DejaVuSans-Bold-75" d="M 500 1363 
L 500 3500 
L 1625 3500 
L 1625 3150 
Q 1625 2866 1622 2436 
Q 1619 2006 1619 1863 
Q 1619 1441 1641 1255 
Q 1663 1069 1716 984 
Q 1784 875 1895 815 
Q 2006 756 2150 756 
Q 2500 756 2700 1025 
Q 2900 1294 2900 1772 
L 2900 3500 
L 4019 3500 
L 4019 0 
L 2900 0 
L 2900 506 
Q 2647 200 2364 54 
Q 2081 -91 1741 -91 
Q 1134 -91 817 281 
Q 500 653 500 1363 
z
" transform="scale(0.015625)"/>
      <path id="DejaVuSans-Bold-6e" d="M 4056 2131 
L 4056 0 
L 2931 0 
L 2931 347 
L 2931 1631 
Q 2931 2084 2911 2256 
Q 2891 2428 2841 2509 
Q 2775 2619 2662 2680 
Q 2550 2741 2406 2741 
Q 2056 2741 1856 2470 
Q 1656 2200 1656 1722 
L 1656 0 
L 538 0 
L 538 3500 
L 1656 3500 
L 1656 2988 
Q 1909 3294 2193 3439 
Q 2478 3584 2822 3584 
Q 3428 3584 3742 3212 
Q 4056 2841 4056 2131 
z
" transform="scale(0.015625)"/>
      <path id="DejaVuSans-Bold-64" d="M 2919 2988 
L 2919 4863 
L 4044 4863 
L 4044 0 
L 2919 0 
L 2919 506 
Q 2688 197 2409 53 
Q 2131 -91 1766 -91 
Q 1119 -91 703 423 
Q 288 938 288 1747 
Q 288 2556 703 3070 
Q 1119 3584 1766 3584 
Q 2128 3584 2408 3439 
Q 2688 3294 2919 2988 
z
M 2181 722 
Q 2541 722 2730 984 
Q 2919 1247 2919 1747 
Q 2919 2247 2730 2509 
Q 2541 2772 2181 2772 
Q 1825 2772 1636 2509 
Q 1447 2247 1447 1747 
Q 1447 1247 1636 984 
Q 1825 722 2181 722 
z
" transform="scale(0.015625)"/>
      <path id="DejaVuSans-Bold-61" d="M 2106 1575 
Q 1756 1575 1579 1456 
Q 1403 1338 1403 1106 
Q 1403 894 1545 773 
Q 1688 653 1941 653 
Q 2256 653 2472 879 
Q 2688 1106 2688 1447 
L 2688 1575 
L 2106 1575 
z
M 3816 1997 
L 3816 0 
L 2688 0 
L 2688 519 
Q 2463 200 2181 54 
Q 1900 -91 1497 -91 
Q 953 -91 614 226 
Q 275 544 275 1050 
Q 275 1666 698 1953 
Q 1122 2241 2028 2241 
L 2688 2241 
L 2688 2328 
Q 2688 2594 2478 2717 
Q 2269 2841 1825 2841 
Q 1466 2841 1156 2769 
Q 847 2697 581 2553 
L 581 3406 
Q 941 3494 1303 3539 
Q 1666 3584 2028 3584 
Q 2975 3584 3395 3211 
Q 3816 2838 3816 1997 
z
" transform="scale(0.015625)"/>
      <path id="DejaVuSans-Bold-72" d="M 3138 2547 
Q 2991 2616 2845 2648 
Q 2700 2681 2553 2681 
Q 2122 2681 1889 2404 
Q 1656 2128 1656 1613 
L 1656 0 
L 538 0 
L 538 3500 
L 1656 3500 
L 1656 2925 
Q 1872 3269 2151 3426 
Q 2431 3584 2822 3584 
Q 2878 3584 2943 3579 
Q 3009 3575 3134 3559 
L 3138 2547 
z
" transform="scale(0.015625)"/>
      <path id="DejaVuSans-Bold-79" d="M 78 3500 
L 1197 3500 
L 2138 1125 
L 2938 3500 
L 4056 3500 
L 2584 -331 
Q 2363 -916 2067 -1148 
Q 1772 -1381 1288 -1381 
L 641 -1381 
L 641 -647 
L 991 -647 
Q 1275 -647 1404 -556 
Q 1534 -466 1606 -231 
L 1638 -134 
L 78 3500 
z
" transform="scale(0.015625)"/>
      <path id="DejaVuSans-Bold-63" d="M 3366 3391 
L 3366 2478 
Q 3138 2634 2908 2709 
Q 2678 2784 2431 2784 
Q 1963 2784 1702 2511 
Q 1441 2238 1441 1747 
Q 1441 1256 1702 982 
Q 1963 709 2431 709 
Q 2694 709 2930 787 
Q 3166 866 3366 1019 
L 3366 103 
Q 3103 6 2833 -42 
Q 2563 -91 2291 -91 
Q 1344 -91 809 395 
Q 275 881 275 1747 
Q 275 2613 809 3098 
Q 1344 3584 2291 3584 
Q 2566 3584 2833 3536 
Q 3100 3488 3366 3391 
z
" transform="scale(0.015625)"/>
      <path id="DejaVuSans-Bold-65" d="M 4031 1759 
L 4031 1441 
L 1416 1441 
Q 1456 1047 1700 850 
Q 1944 653 2381 653 
Q 2734 653 3104 758 
Q 3475 863 3866 1075 
L 3866 213 
Q 3469 63 3072 -14 
Q 2675 -91 2278 -91 
Q 1328 -91 801 392 
Q 275 875 275 1747 
Q 275 2603 792 3093 
Q 1309 3584 2216 3584 
Q 3041 3584 3536 3087 
Q 4031 2591 4031 1759 
z
M 2881 2131 
Q 2881 2450 2695 2645 
Q 2509 2841 2209 2841 
Q 1884 2841 1681 2658 
Q 1478 2475 1428 2131 
L 2881 2131 
z
" transform="scale(0.015625)"/>
      <path id="DejaVuSans-Bold-6c" d="M 538 4863 
L 1656 4863 
L 1656 0 
L 538 0 
L 538 4863 
z
" transform="scale(0.015625)"/>
      <path id="DejaVuSans-Bold-73" d="M 3272 3391 
L 3272 2541 
Q 2913 2691 2578 2766 
Q 2244 2841 1947 2841 
Q 1628 2841 1473 2761 
Q 1319 2681 1319 2516 
Q 1319 2381 1436 2309 
Q 1553 2238 1856 2203 
L 2053 2175 
Q 2913 2066 3209 1816 
Q 3506 1566 3506 1031 
Q 3506 472 3093 190 
Q 2681 -91 1863 -91 
Q 1516 -91 1145 -36 
Q 775 19 384 128 
L 384 978 
Q 719 816 1070 734 
Q 1422 653 1784 653 
Q 2113 653 2278 743 
Q 2444 834 2444 1013 
Q 2444 1163 2330 1236 
Q 2216 1309 1875 1350 
L 1678 1375 
Q 931 1469 631 1722 
Q 331 1975 331 2491 
Q 331 3047 712 3315 
Q 1094 3584 1881 3584 
Q 2191 3584 2531 3537 
Q 2872 3491 3272 3391 
z
" transform="scale(0.015625)"/>
     </defs>
     <use xlink:href="#DejaVuSans-Bold-31"/>
     <use xlink:href="#DejaVuSans-Bold-2e" transform="translate(69.580078 0)"/>
     <use xlink:href="#DejaVuSans-Bold-20" transform="translate(107.568359 0)"/>
     <use xlink:href="#DejaVuSans-Bold-42" transform="translate(142.382812 0)"/>
     <use xlink:href="#DejaVuSans-Bold-6f" transform="translate(218.603516 0)"/>
     <use xlink:href="#DejaVuSans-Bold-75" transform="translate(287.304688 0)"/>
     <use xlink:href="#DejaVuSans-Bold-6e" transform="translate(358.496094 0)"/>
     <use xlink:href="#DejaVuSans-Bold-64" transform="translate(429.6875 0)"/>
     <use xlink:href="#DejaVuSans-Bold-61" transform="translate(501.269531 0)"/>
     <use xlink:href="#DejaVuSans-Bold-72" transform="translate(568.75 0)"/>
     <use xlink:href="#DejaVuSans-Bold-79" transform="translate(618.066406 0)"/>
     <use xlink:href="#DejaVuSans-Bold-20" transform="translate(683.251953 0)"/>
     <use xlink:href="#DejaVuSans-Bold-63" transform="translate(718.066406 0)"/>
     <use xlink:href="#DejaVuSans-Bold-65" transform="translate(777.34375 0)"/>
     <use xlink:href="#DejaVuSans-Bold-6c" transform="translate(845.166016 0)"/>
     <use xlink:href="#DejaVuSans-Bold-6c" transform="translate(879.443359 0)"/>
     <use xlink:href="#DejaVuSans-Bold-73" transform="translate(913.720703 0)"/>
    </g>
   </g>
   <g id="LineCollection_1">
    <path d="M 35.8416 168.192 
L 36.003928 163.233396 
L 36.490216 158.296026 
L 37.298383 153.401032 
L 38.424968 148.569375 
L 39.865145 143.821745 
L 41.612749 139.178473 
L 43.660296 134.659441 
L 45.999018 130.284 
L 48.6189 126.070887 
L 51.508723 122.038143 
L 54.656113 118.203038 
L 58.047592 114.581992 
L 61.668638 111.190513 
L 65.503743 108.043123 
L 69.536487 105.1533 
L 73.7496 102.533418 
L 78.125041 100.194696 
L 82.644073 98.147149 
L 87.287345 96.399545 
L 92.034975 94.959368 
L 96.866632 93.832783 
L 101.761626 93.024616 
L 106.698996 92.538328 
L 111.6576 92.376 
L 116.616204 92.538328 
L 121.553574 93.024616 
L 126.448568 93.832783 
L 131.280225 94.959368 
L 136.027855 96.399545 
L 140.671127 98.147149 
L 145.190159 100.194696 
L 149.5656 102.533418 
L 153.778713 105.1533 
L 157.811457 108.043123 
L 161.646562 111.190513 
L 165.267608 114.581992 
L 168.659087 118.203038 
L 171.806477 122.038143 
L 174.6963 126.070887 
L 177.316182 130.284 
L 179.654904 134.659441 
L 181.702451 139.178473 
L 183.450055 143.821745 
L 184.890232 148.569375 
L 186.016817 153.401032 
L 186.824984 158.296026 
L 187.311272 163.233396 
L 187.4736 168.192 
L 187.311272 173.150604 
L 186.824984 178.087974 
L 186.016817 182.982968 
L 184.890232 187.814625 
L 183.450055 192.562255 
L 181.702451 197.205527 
L 179.654904 201.724559 
L 177.316182 206.1 
L 174.6963 210.313113 
L 171.806477 214.345857 
L 168.659087 218.180962 
L 165.267608 221.802008 
L 161.646562 225.193487 
L 157.811457 228.340877 
L 153.778713 231.2307 
L 149.5656 233.850582 
L 145.190159 236.189304 
L 140.671127 238.236851 
L 136.027855 239.984455 
L 131.280225 241.424632 
L 126.448568 242.551217 
L 121.553574 243.359384 
L 116.616204 243.845672 
L 111.6576 244.008 
L 106.698996 243.845672 
L 101.761626 243.359384 
L 96.866632 242.551217 
L 92.034975 241.424632 
L 87.287345 239.984455 
L 82.644073 238.236851 
L 78.125041 236.189304 
L 73.7496 233.850582 
L 69.536487 231.2307 
L 65.503743 228.340877 
L 61.668638 225.193487 
L 58.047592 221.802008 
L 54.656113 218.180962 
L 51.508723 214.345857 
L 48.6189 210.313113 
L 45.999018 206.1 
L 43.660296 201.724559 
L 41.612749 197.205527 
L 39.865145 192.562255 
L 38.424968 187.814625 
L 37.298383 182.982968 
L 36.490216 178.087974 
L 36.003928 173.150604 
L 35.8416 168.192 
L 35.8416 168.192 
" clip-path="url(#p4d97dd657d)" style="fill: none; stroke: #0f172a; stroke-width: 2.8"/>
   </g>
  </g>
  <g id="axes_2">
   <g id="patch_23">
    <path d="M 339.998897 269.28 
L 542.174897 269.28 
L 542.174897 67.104 
L 339.998897 67.104 
z
" style="fill: #ffffff"/>
   </g>
   <g id="patch_24">
    <path d="M 407.390897 269.28 
L 441.086897 269.28 
L 441.086897 235.584 
L 407.390897 235.584 
z
" clip-path="url(#p3e3d35cd3d)" style="fill: #fb923c; opacity: 0.18"/>
   </g>
   <g id="patch_25">
    <path d="M 441.086897 269.28 
L 474.782897 269.28 
L 474.782897 235.584 
L 441.086897 235.584 
z
" clip-path="url(#p3e3d35cd3d)" style="fill: #fb923c; opacity: 0.18"/>
   </g>
   <g id="patch_26">
    <path d="M 474.782897 269.28 
L 508.478897 269.28 
L 508.478897 235.584 
L 474.782897 235.584 
z
" clip-path="url(#p3e3d35cd3d)" style="fill: #fb923c; opacity: 0.18"/>
   </g>
   <g id="patch_27">
    <path d="M 373.694897 235.584 
L 407.390897 235.584 
L 407.390897 201.888 
L 373.694897 201.888 
z
" clip-path="url(#p3e3d35cd3d)" style="fill: #fb923c; opacity: 0.18"/>
   </g>
   <g id="patch_28">
    <path d="M 407.390897 235.584 
L 441.086897 235.584 
L 441.086897 201.888 
L 407.390897 201.888 
z
" clip-path="url(#p3e3d35cd3d)" style="fill: #fb923c; opacity: 0.18"/>
   </g>
   <g id="patch_29">
    <path d="M 474.782897 235.584 
L 508.478897 235.584 
L 508.478897 201.888 
L 474.782897 201.888 
z
" clip-path="url(#p3e3d35cd3d)" style="fill: #fb923c; opacity: 0.18"/>
   </g>
   <g id="patch_30">
    <path d="M 508.478897 235.584 
L 542.174897 235.584 
L 542.174897 201.888 
L 508.478897 201.888 
z
" clip-path="url(#p3e3d35cd3d)" style="fill: #fb923c; opacity: 0.18"/>
   </g>
   <g id="patch_31">
    <path d="M 339.998897 201.888 
L 373.694897 201.888 
L 373.694897 168.192 
L 339.998897 168.192 
z
" clip-path="url(#p3e3d35cd3d)" style="fill: #fb923c; opacity: 0.18"/>
   </g>
   <g id="patch_32">
    <path d="M 373.694897 201.888 
L 407.390897 201.888 
L 407.390897 168.192 
L 373.694897 168.192 
z
" clip-path="url(#p3e3d35cd3d)" style="fill: #fb923c; opacity: 0.18"/>
   </g>
   <g id="patch_33">
    <path d="M 508.478897 201.888 
L 542.174897 201.888 
L 542.174897 168.192 
L 508.478897 168.192 
z
" clip-path="url(#p3e3d35cd3d)" style="fill: #fb923c; opacity: 0.18"/>
   </g>
   <g id="patch_34">
    <path d="M 339.998897 168.192 
L 373.694897 168.192 
L 373.694897 134.496 
L 339.998897 134.496 
z
" clip-path="url(#p3e3d35cd3d)" style="fill: #fb923c; opacity: 0.18"/>
   </g>
   <g id="patch_35">
    <path d="M 373.694897 168.192 
L 407.390897 168.192 
L 407.390897 134.496 
L 373.694897 134.496 
z
" clip-path="url(#p3e3d35cd3d)" style="fill: #fb923c; opacity: 0.18"/>
   </g>
   <g id="patch_36">
    <path d="M 508.478897 168.192 
L 542.174897 168.192 
L 542.174897 134.496 
L 508.478897 134.496 
z
" clip-path="url(#p3e3d35cd3d)" style="fill: #fb923c; opacity: 0.18"/>
   </g>
   <g id="patch_37">
    <path d="M 373.694897 134.496 
L 407.390897 134.496 
L 407.390897 100.8 
L 373.694897 100.8 
z
" clip-path="url(#p3e3d35cd3d)" style="fill: #fb923c; opacity: 0.18"/>
   </g>
   <g id="patch_38">
    <path d="M 407.390897 134.496 
L 441.086897 134.496 
L 441.086897 100.8 
L 407.390897 100.8 
z
" clip-path="url(#p3e3d35cd3d)" style="fill: #fb923c; opacity: 0.18"/>
   </g>
   <g id="patch_39">
    <path d="M 474.782897 134.496 
L 508.478897 134.496 
L 508.478897 100.8 
L 474.782897 100.8 
z
" clip-path="url(#p3e3d35cd3d)" style="fill: #fb923c; opacity: 0.18"/>
   </g>
   <g id="patch_40">
    <path d="M 508.478897 134.496 
L 542.174897 134.496 
L 542.174897 100.8 
L 508.478897 100.8 
z
" clip-path="url(#p3e3d35cd3d)" style="fill: #fb923c; opacity: 0.18"/>
   </g>
   <g id="patch_41">
    <path d="M 407.390897 100.8 
L 441.086897 100.8 
L 441.086897 67.104 
L 407.390897 67.104 
z
" clip-path="url(#p3e3d35cd3d)" style="fill: #fb923c; opacity: 0.18"/>
   </g>
   <g id="patch_42">
    <path d="M 441.086897 100.8 
L 474.782897 100.8 
L 474.782897 67.104 
L 441.086897 67.104 
z
" clip-path="url(#p3e3d35cd3d)" style="fill: #fb923c; opacity: 0.18"/>
   </g>
   <g id="patch_43">
    <path d="M 474.782897 100.8 
L 508.478897 100.8 
L 508.478897 67.104 
L 474.782897 67.104 
z
" clip-path="url(#p3e3d35cd3d)" style="fill: #fb923c; opacity: 0.18"/>
   </g>
   <g id="matplotlib.axis_3"/>
   <g id="matplotlib.axis_4"/>
   <g id="patch_44">
    <path d="M 441.086897 235.584 
L 474.782897 235.584 
L 474.782897 201.888 
L 441.086897 201.888 
z
" clip-path="url(#p3e3d35cd3d)" style="fill: #60a5fa; opacity: 0.85"/>
   </g>
   <g id="patch_45">
    <path d="M 407.390897 201.888 
L 441.086897 201.888 
L 441.086897 168.192 
L 407.390897 168.192 
z
" clip-path="url(#p3e3d35cd3d)" style="fill: #60a5fa; opacity: 0.85"/>
   </g>
   <g id="patch_46">
    <path d="M 441.086897 201.888 
L 474.782897 201.888 
L 474.782897 168.192 
L 441.086897 168.192 
z
" clip-path="url(#p3e3d35cd3d)" style="fill: #60a5fa; opacity: 0.85"/>
   </g>
   <g id="patch_47">
    <path d="M 474.782897 201.888 
L 508.478897 201.888 
L 508.478897 168.192 
L 474.782897 168.192 
z
" clip-path="url(#p3e3d35cd3d)" style="fill: #60a5fa; opacity: 0.85"/>
   </g>
   <g id="patch_48">
    <path d="M 407.390897 168.192 
L 441.086897 168.192 
L 441.086897 134.496 
L 407.390897 134.496 
z
" clip-path="url(#p3e3d35cd3d)" style="fill: #60a5fa; opacity: 0.85"/>
   </g>
   <g id="patch_49">
    <path d="M 441.086897 168.192 
L 474.782897 168.192 
L 474.782897 134.496 
L 441.086897 134.496 
z
" clip-path="url(#p3e3d35cd3d)" style="fill: #60a5fa; opacity: 0.85"/>
   </g>
   <g id="patch_50">
    <path d="M 474.782897 168.192 
L 508.478897 168.192 
L 508.478897 134.496 
L 474.782897 134.496 
z
" clip-path="url(#p3e3d35cd3d)" style="fill: #60a5fa; opacity: 0.85"/>
   </g>
   <g id="patch_51">
    <path d="M 441.086897 134.496 
L 474.782897 134.496 
L 474.782897 100.8 
L 441.086897 100.8 
z
" clip-path="url(#p3e3d35cd3d)" style="fill: #60a5fa; opacity: 0.85"/>
   </g>
   <g id="line2d_15">
    <path d="M 339.998897 269.28 
L 339.998897 67.104 
" clip-path="url(#p3e3d35cd3d)" style="fill: none; stroke: #94a3b8; stroke-linecap: square"/>
   </g>
   <g id="line2d_16">
    <path d="M 373.694897 269.28 
L 373.694897 67.104 
" clip-path="url(#p3e3d35cd3d)" style="fill: none; stroke: #94a3b8; stroke-linecap: square"/>
   </g>
   <g id="line2d_17">
    <path d="M 407.390897 269.28 
L 407.390897 67.104 
" clip-path="url(#p3e3d35cd3d)" style="fill: none; stroke: #94a3b8; stroke-linecap: square"/>
   </g>
   <g id="line2d_18">
    <path d="M 441.086897 269.28 
L 441.086897 67.104 
" clip-path="url(#p3e3d35cd3d)" style="fill: none; stroke: #94a3b8; stroke-linecap: square"/>
   </g>
   <g id="line2d_19">
    <path d="M 474.782897 269.28 
L 474.782897 67.104 
" clip-path="url(#p3e3d35cd3d)" style="fill: none; stroke: #94a3b8; stroke-linecap: square"/>
   </g>
   <g id="line2d_20">
    <path d="M 508.478897 269.28 
L 508.478897 67.104 
" clip-path="url(#p3e3d35cd3d)" style="fill: none; stroke: #94a3b8; stroke-linecap: square"/>
   </g>
   <g id="line2d_21">
    <path d="M 542.174897 269.28 
L 542.174897 67.104 
" clip-path="url(#p3e3d35cd3d)" style="fill: none; stroke: #94a3b8; stroke-linecap: square"/>
   </g>
   <g id="line2d_22">
    <path d="M 339.998897 269.28 
L 542.174897 269.28 
" clip-path="url(#p3e3d35cd3d)" style="fill: none; stroke: #94a3b8; stroke-linecap: square"/>
   </g>
   <g id="line2d_23">
    <path d="M 339.998897 235.584 
L 542.174897 235.584 
" clip-path="url(#p3e3d35cd3d)" style="fill: none; stroke: #94a3b8; stroke-linecap: square"/>
   </g>
   <g id="line2d_24">
    <path d="M 339.998897 201.888 
L 542.174897 201.888 
" clip-path="url(#p3e3d35cd3d)" style="fill: none; stroke: #94a3b8; stroke-linecap: square"/>
   </g>
   <g id="line2d_25">
    <path d="M 339.998897 168.192 
L 542.174897 168.192 
" clip-path="url(#p3e3d35cd3d)" style="fill: none; stroke: #94a3b8; stroke-linecap: square"/>
   </g>
   <g id="line2d_26">
    <path d="M 339.998897 134.496 
L 542.174897 134.496 
" clip-path="url(#p3e3d35cd3d)" style="fill: none; stroke: #94a3b8; stroke-linecap: square"/>
   </g>
   <g id="line2d_27">
    <path d="M 339.998897 100.8 
L 542.174897 100.8 
" clip-path="url(#p3e3d35cd3d)" style="fill: none; stroke: #94a3b8; stroke-linecap: square"/>
   </g>
   <g id="line2d_28">
    <path d="M 339.998897 67.104 
L 542.174897 67.104 
" clip-path="url(#p3e3d35cd3d)" style="fill: none; stroke: #94a3b8; stroke-linecap: square"/>
   </g>
   <g id="text_3">
    <!-- Whole interior cells are written directly -->
    <g style="fill: #334155" transform="translate(353.455022 308.466754) scale(0.09 -0.09)">
     <defs>
      <path id="DejaVuSans-57" d="M 213 4666 
L 850 4666 
L 1831 722 
L 2809 4666 
L 3519 4666 
L 4500 722 
L 5478 4666 
L 6119 4666 
L 4947 0 
L 4153 0 
L 3169 4050 
L 2175 0 
L 1381 0 
L 213 4666 
z
" transform="scale(0.015625)"/>
      <path id="DejaVuSans-68" d="M 3513 2113 
L 3513 0 
L 2938 0 
L 2938 2094 
Q 2938 2591 2744 2837 
Q 2550 3084 2163 3084 
Q 1697 3084 1428 2787 
Q 1159 2491 1159 1978 
L 1159 0 
L 581 0 
L 581 4863 
L 1159 4863 
L 1159 2956 
Q 1366 3272 1645 3428 
Q 1925 3584 2291 3584 
Q 2894 3584 3203 3211 
Q 3513 2838 3513 2113 
z
" transform="scale(0.015625)"/>
      <path id="DejaVuSans-77" d="M 269 3500 
L 844 3500 
L 1563 769 
L 2278 3500 
L 2956 3500 
L 3675 769 
L 4391 3500 
L 4966 3500 
L 4050 0 
L 3372 0 
L 2619 2869 
L 1863 0 
L 1184 0 
L 269 3500 
z
" transform="scale(0.015625)"/>
     </defs>
     <use xlink:href="#DejaVuSans-57"/>
     <use xlink:href="#DejaVuSans-68" transform="translate(98.876953 0)"/>
     <use xlink:href="#DejaVuSans-6f" transform="translate(162.255859 0)"/>
     <use xlink:href="#DejaVuSans-6c" transform="translate(223.4375 0)"/>
     <use xlink:href="#DejaVuSans-65" transform="translate(251.220703 0)"/>
     <use xlink:href="#DejaVuSans-20" transform="translate(312.744141 0)"/>
     <use xlink:href="#DejaVuSans-69" transform="translate(344.53125 0)"/>
     <use xlink:href="#DejaVuSans-6e" transform="translate(372.314453 0)"/>
     <use xlink:href="#DejaVuSans-74" transform="translate(435.693359 0)"/>
     <use xlink:href="#DejaVuSans-65" transform="translate(474.902344 0)"/>
     <use xlink:href="#DejaVuSans-72" transform="translate(536.425781 0)"/>
     <use xlink:href="#DejaVuSans-69" transform="translate(577.539062 0)"/>
     <use xlink:href="#DejaVuSans-6f" transform="translate(605.322266 0)"/>
     <use xlink:href="#DejaVuSans-72" transform="translate(666.503906 0)"/>
     <use xlink:href="#DejaVuSans-20" transform="translate(707.617188 0)"/>
     <use xlink:href="#DejaVuSans-63" transform="translate(739.404297 0)"/>
     <use xlink:href="#DejaVuSans-65" transform="translate(794.384766 0)"/>
     <use xlink:href="#DejaVuSans-6c" transform="translate(855.908203 0)"/>
     <use xlink:href="#DejaVuSans-6c" transform="translate(883.691406 0)"/>
     <use xlink:href="#DejaVuSans-73" transform="translate(911.474609 0)"/>
     <use xlink:href="#DejaVuSans-20" transform="translate(963.574219 0)"/>
     <use xlink:href="#DejaVuSans-61" transform="translate(995.361328 0)"/>
     <use xlink:href="#DejaVuSans-72" transform="translate(1056.640625 0)"/>
     <use xlink:href="#DejaVuSans-65" transform="translate(1095.503906 0)"/>
     <use xlink:href="#DejaVuSans-20" transform="translate(1157.027344 0)"/>
     <use xlink:href="#DejaVuSans-77" transform="translate(1188.814453 0)"/>
     <use xlink:href="#DejaVuSans-72" transform="translate(1270.601562 0)"/>
     <use xlink:href="#DejaVuSans-69" transform="translate(1311.714844 0)"/>
     <use xlink:href="#DejaVuSans-74" transform="translate(1339.498047 0)"/>
     <use xlink:href="#DejaVuSans-74" transform="translate(1378.707031 0)"/>
     <use xlink:href="#DejaVuSans-65" transform="translate(1417.916016 0)"/>
     <use xlink:href="#DejaVuSans-6e" transform="translate(1479.439453 0)"/>
     <use xlink:href="#DejaVuSans-20" transform="translate(1542.818359 0)"/>
     <use xlink:href="#DejaVuSans-64" transform="translate(1574.605469 0)"/>
     <use xlink:href="#DejaVuSans-69" transform="translate(1638.082031 0)"/>
     <use xlink:href="#DejaVuSans-72" transform="translate(1665.865234 0)"/>
     <use xlink:href="#DejaVuSans-65" transform="translate(1704.728516 0)"/>
     <use xlink:href="#DejaVuSans-63" transform="translate(1766.251953 0)"/>
     <use xlink:href="#DejaVuSans-74" transform="translate(1821.232422 0)"/>
     <use xlink:href="#DejaVuSans-6c" transform="translate(1860.441406 0)"/>
     <use xlink:href="#DejaVuSans-79" transform="translate(1888.224609 0)"/>
    </g>
    <!-- between intersection pairs. -->
    <g style="fill: #334155" transform="translate(379.585959 318.544785) scale(0.09 -0.09)">
     <defs>
      <path id="DejaVuSans-62" d="M 3116 1747 
Q 3116 2381 2855 2742 
Q 2594 3103 2138 3103 
Q 1681 3103 1420 2742 
Q 1159 2381 1159 1747 
Q 1159 1113 1420 752 
Q 1681 391 2138 391 
Q 2594 391 2855 752 
Q 3116 1113 3116 1747 
z
M 1159 2969 
Q 1341 3281 1617 3432 
Q 1894 3584 2278 3584 
Q 2916 3584 3314 3078 
Q 3713 2572 3713 1747 
Q 3713 922 3314 415 
Q 2916 -91 2278 -91 
Q 1894 -91 1617 61 
Q 1341 213 1159 525 
L 1159 0 
L 581 0 
L 581 4863 
L 1159 4863 
L 1159 2969 
z
" transform="scale(0.015625)"/>
     </defs>
     <use xlink:href="#DejaVuSans-62"/>
     <use xlink:href="#DejaVuSans-65" transform="translate(63.476562 0)"/>
     <use xlink:href="#DejaVuSans-74" transform="translate(125 0)"/>
     <use xlink:href="#DejaVuSans-77" transform="translate(164.208984 0)"/>
     <use xlink:href="#DejaVuSans-65" transform="translate(245.996094 0)"/>
     <use xlink:href="#DejaVuSans-65" transform="translate(307.519531 0)"/>
     <use xlink:href="#DejaVuSans-6e" transform="translate(369.042969 0)"/>
     <use xlink:href="#DejaVuSans-20" transform="translate(432.421875 0)"/>
     <use xlink:href="#DejaVuSans-69" transform="translate(464.208984 0)"/>
     <use xlink:href="#DejaVuSans-6e" transform="translate(491.992188 0)"/>
     <use xlink:href="#DejaVuSans-74" transform="translate(555.371094 0)"/>
     <use xlink:href="#DejaVuSans-65" transform="translate(594.580078 0)"/>
     <use xlink:href="#DejaVuSans-72" transform="translate(656.103516 0)"/>
     <use xlink:href="#DejaVuSans-73" transform="translate(697.216797 0)"/>
     <use xlink:href="#DejaVuSans-65" transform="translate(749.316406 0)"/>
     <use xlink:href="#DejaVuSans-63" transform="translate(810.839844 0)"/>
     <use xlink:href="#DejaVuSans-74" transform="translate(865.820312 0)"/>
     <use xlink:href="#DejaVuSans-69" transform="translate(905.029297 0)"/>
     <use xlink:href="#DejaVuSans-6f" transform="translate(932.8125 0)"/>
     <use xlink:href="#DejaVuSans-6e" transform="translate(993.994141 0)"/>
     <use xlink:href="#DejaVuSans-20" transform="translate(1057.373047 0)"/>
     <use xlink:href="#DejaVuSans-70" transform="translate(1089.160156 0)"/>
     <use xlink:href="#DejaVuSans-61" transform="translate(1152.636719 0)"/>
     <use xlink:href="#DejaVuSans-69" transform="translate(1213.916016 0)"/>
     <use xlink:href="#DejaVuSans-72" transform="translate(1241.699219 0)"/>
     <use xlink:href="#DejaVuSans-73" transform="translate(1282.8125 0)"/>
     <use xlink:href="#DejaVuSans-2e" transform="translate(1334.912109 0)"/>
    </g>
   </g>
   <g id="text_4">
    <!-- 2. Interior scanline fill -->
    <g transform="translate(366.145959 57.104) scale(0.12 -0.12)">
     <defs>
      <path id="DejaVuSans-Bold-32" d="M 1844 884 
L 3897 884 
L 3897 0 
L 506 0 
L 506 884 
L 2209 2388 
Q 2438 2594 2547 2791 
Q 2656 2988 2656 3200 
Q 2656 3528 2436 3728 
Q 2216 3928 1850 3928 
Q 1569 3928 1234 3808 
Q 900 3688 519 3450 
L 519 4475 
Q 925 4609 1322 4679 
Q 1719 4750 2100 4750 
Q 2938 4750 3402 4381 
Q 3866 4013 3866 3353 
Q 3866 2972 3669 2642 
Q 3472 2313 2841 1759 
L 1844 884 
z
" transform="scale(0.015625)"/>
      <path id="DejaVuSans-Bold-49" d="M 588 4666 
L 1791 4666 
L 1791 0 
L 588 0 
L 588 4666 
z
" transform="scale(0.015625)"/>
      <path id="DejaVuSans-Bold-74" d="M 1759 4494 
L 1759 3500 
L 2913 3500 
L 2913 2700 
L 1759 2700 
L 1759 1216 
Q 1759 972 1856 886 
Q 1953 800 2241 800 
L 2816 800 
L 2816 0 
L 1856 0 
Q 1194 0 917 276 
Q 641 553 641 1216 
L 641 2700 
L 84 2700 
L 84 3500 
L 641 3500 
L 641 4494 
L 1759 4494 
z
" transform="scale(0.015625)"/>
      <path id="DejaVuSans-Bold-69" d="M 538 3500 
L 1656 3500 
L 1656 0 
L 538 0 
L 538 3500 
z
M 538 4863 
L 1656 4863 
L 1656 3950 
L 538 3950 
L 538 4863 
z
" transform="scale(0.015625)"/>
      <path id="DejaVuSans-Bold-66" d="M 2841 4863 
L 2841 4128 
L 2222 4128 
Q 1984 4128 1890 4042 
Q 1797 3956 1797 3744 
L 1797 3500 
L 2753 3500 
L 2753 2700 
L 1797 2700 
L 1797 0 
L 678 0 
L 678 2700 
L 122 2700 
L 122 3500 
L 678 3500 
L 678 3744 
Q 678 4316 997 4589 
Q 1316 4863 1984 4863 
L 2841 4863 
z
" transform="scale(0.015625)"/>
     </defs>
     <use xlink:href="#DejaVuSans-Bold-32"/>
     <use xlink:href="#DejaVuSans-Bold-2e" transform="translate(69.580078 0)"/>
     <use xlink:href="#DejaVuSans-Bold-20" transform="translate(107.568359 0)"/>
     <use xlink:href="#DejaVuSans-Bold-49" transform="translate(142.382812 0)"/>
     <use xlink:href="#DejaVuSans-Bold-6e" transform="translate(179.589844 0)"/>
     <use xlink:href="#DejaVuSans-Bold-74" transform="translate(250.78125 0)"/>
     <use xlink:href="#DejaVuSans-Bold-65" transform="translate(298.583984 0)"/>
     <use xlink:href="#DejaVuSans-Bold-72" transform="translate(366.40625 0)"/>
     <use xlink:href="#DejaVuSans-Bold-69" transform="translate(415.722656 0)"/>
     <use xlink:href="#DejaVuSans-Bold-6f" transform="translate(450 0)"/>
     <use xlink:href="#DejaVuSans-Bold-72" transform="translate(518.701172 0)"/>
     <use xlink:href="#DejaVuSans-Bold-20" transform="translate(568.017578 0)"/>
     <use xlink:href="#DejaVuSans-Bold-73" transform="translate(602.832031 0)"/>
     <use xlink:href="#DejaVuSans-Bold-63" transform="translate(662.353516 0)"/>
     <use xlink:href="#DejaVuSans-Bold-61" transform="translate(721.630859 0)"/>
     <use xlink:href="#DejaVuSans-Bold-6e" transform="translate(789.111328 0)"/>
     <use xlink:href="#DejaVuSans-Bold-6c" transform="translate(860.302734 0)"/>
     <use xlink:href="#DejaVuSans-Bold-69" transform="translate(894.580078 0)"/>
     <use xlink:href="#DejaVuSans-Bold-6e" transform="translate(928.857422 0)"/>
     <use xlink:href="#DejaVuSans-Bold-65" transform="translate(1000.048828 0)"/>
     <use xlink:href="#DejaVuSans-Bold-20" transform="translate(1067.871094 0)"/>
     <use xlink:href="#DejaVuSans-Bold-66" transform="translate(1102.685547 0)"/>
     <use xlink:href="#DejaVuSans-Bold-69" transform="translate(1146.191406 0)"/>
     <use xlink:href="#DejaVuSans-Bold-6c" transform="translate(1180.46875 0)"/>
     <use xlink:href="#DejaVuSans-Bold-6c" transform="translate(1214.746094 0)"/>
    </g>
   </g>
   <g id="LineCollection_2">
    <path d="M 368.640497 168.192 
L 368.802824 163.233396 
L 369.289113 158.296026 
L 370.09728 153.401032 
L 371.223864 148.569375 
L 372.664042 143.821745 
L 374.411646 139.178473 
L 376.459193 134.659441 
L 378.797915 130.284 
L 381.417796 126.070887 
L 384.30762 122.038143 
L 387.45501 118.203038 
L 390.846489 114.581992 
L 394.467534 111.190513 
L 398.30264 108.043123 
L 402.335384 105.1533 
L 406.548497 102.533418 
L 410.923937 100.194696 
L 415.442969 98.147149 
L 420.086242 96.399545 
L 424.833872 94.959368 
L 429.665529 93.832783 
L 434.560523 93.024616 
L 439.497893 92.538328 
L 444.456497 92.376 
L 449.4151 92.538328 
L 454.35247 93.024616 
L 459.247464 93.832783 
L 464.079121 94.959368 
L 468.826751 96.399545 
L 473.470024 98.147149 
L 477.989056 100.194696 
L 482.364497 102.533418 
L 486.577609 105.1533 
L 490.610353 108.043123 
L 494.445459 111.190513 
L 498.066504 114.581992 
L 501.457983 118.203038 
L 504.605373 122.038143 
L 507.495197 126.070887 
L 510.115079 130.284 
L 512.4538 134.659441 
L 514.501347 139.178473 
L 516.248951 143.821745 
L 517.689129 148.569375 
L 518.815713 153.401032 
L 519.62388 158.296026 
L 520.110169 163.233396 
L 520.272497 168.192 
L 520.110169 173.150604 
L 519.62388 178.087974 
L 518.815713 182.982968 
L 517.689129 187.814625 
L 516.248951 192.562255 
L 514.501347 197.205527 
L 512.4538 201.724559 
L 510.115079 206.1 
L 507.495197 210.313113 
L 504.605373 214.345857 
L 501.457983 218.180962 
L 498.066504 221.802008 
L 494.445459 225.193487 
L 490.610353 228.340877 
L 486.577609 231.2307 
L 482.364497 233.850582 
L 477.989056 236.189304 
L 473.470024 238.236851 
L 468.826751 239.984455 
L 464.079121 241.424632 
L 459.247464 242.551217 
L 454.35247 243.359384 
L 449.4151 243.845672 
L 444.456497 244.008 
L 439.497893 243.845672 
L 434.560523 243.359384 
L 429.665529 242.551217 
L 424.833872 241.424632 
L 420.086242 239.984455 
L 415.442969 238.236851 
L 410.923937 236.189304 
L 406.548497 233.850582 
L 402.335384 231.2307 
L 398.30264 228.340877 
L 394.467534 225.193487 
L 390.846489 221.802008 
L 387.45501 218.180962 
L 384.30762 214.345857 
L 381.417796 210.313113 
L 378.797915 206.1 
L 376.459193 201.724559 
L 374.411646 197.205527 
L 372.664042 192.562255 
L 371.223864 187.814625 
L 370.09728 182.982968 
L 369.289113 178.087974 
L 368.802824 173.150604 
L 368.640497 168.192 
L 368.640497 168.192 
" clip-path="url(#p3e3d35cd3d)" style="fill: none; stroke: #0f172a; stroke-width: 2.8"/>
   </g>
   <g id="line2d_29">
    <path d="M 339.998897 185.04 
L 542.174897 185.04 
" clip-path="url(#p3e3d35cd3d)" style="fill: none; stroke-dasharray: 10.8,7.2; stroke-dashoffset: 0; stroke: #2563eb; stroke-width: 1.8"/>
   </g>
   <g id="PathCollection_1">
    <defs>
     <path id="m9f2c6c4267" d="M 0 2.12132 
C 0.562581 2.12132 1.102195 1.897805 1.5 1.5 
C 1.897805 1.102195 2.12132 0.562581 2.12132 0 
C 2.12132 -0.562581 1.897805 -1.102195 1.5 -1.5 
C 1.102195 -1.897805 0.562581 -2.12132 0 -2.12132 
C -0.562581 -2.12132 -1.102195 -1.897805 -1.5 -1.5 
C -1.897805 -1.102195 -2.12132 -0.562581 -2.12132 0 
C -2.12132 0.562581 -1.897805 1.102195 -1.5 1.5 
C -1.102195 1.897805 -0.562581 2.12132 0 2.12132 
z
" style="stroke: #1d4ed8"/>
    </defs>
    <g clip-path="url(#p3e3d35cd3d)">
     <use xlink:href="#m9f2c6c4267" x="370.541556" y="185.04" style="fill: #1d4ed8; stroke: #1d4ed8"/>
     <use xlink:href="#m9f2c6c4267" x="518.371437" y="185.04" style="fill: #1d4ed8; stroke: #1d4ed8"/>
    </g>
   </g>
  </g>
  <g id="axes_3">
   <g id="patch_52">
    <path d="M 672.797793 269.28 
L 874.973793 269.28 
L 874.973793 67.104 
L 672.797793 67.104 
z
" style="fill: #ffffff"/>
   </g>
   <g id="patch_53">
    <path d="M 740.189793 269.28 
L 773.885793 269.28 
L 773.885793 235.584 
L 740.189793 235.584 
z
" clip-path="url(#pd08be05d03)" style="fill: #fb923c; opacity: 0.85"/>
   </g>
   <g id="patch_54">
    <path d="M 773.885793 269.28 
L 807.581793 269.28 
L 807.581793 235.584 
L 773.885793 235.584 
z
" clip-path="url(#pd08be05d03)" style="fill: #fb923c; opacity: 0.85"/>
   </g>
   <g id="patch_55">
    <path d="M 807.581793 269.28 
L 841.277793 269.28 
L 841.277793 235.584 
L 807.581793 235.584 
z
" clip-path="url(#pd08be05d03)" style="fill: #fb923c; opacity: 0.85"/>
   </g>
   <g id="patch_56">
    <path d="M 706.493793 235.584 
L 740.189793 235.584 
L 740.189793 201.888 
L 706.493793 201.888 
z
" clip-path="url(#pd08be05d03)" style="fill: #fb923c; opacity: 0.85"/>
   </g>
   <g id="patch_57">
    <path d="M 740.189793 235.584 
L 773.885793 235.584 
L 773.885793 201.888 
L 740.189793 201.888 
z
" clip-path="url(#pd08be05d03)" style="fill: #fb923c; opacity: 0.85"/>
   </g>
   <g id="patch_58">
    <path d="M 807.581793 235.584 
L 841.277793 235.584 
L 841.277793 201.888 
L 807.581793 201.888 
z
" clip-path="url(#pd08be05d03)" style="fill: #fb923c; opacity: 0.85"/>
   </g>
   <g id="patch_59">
    <path d="M 841.277793 235.584 
L 874.973793 235.584 
L 874.973793 201.888 
L 841.277793 201.888 
z
" clip-path="url(#pd08be05d03)" style="fill: #fb923c; opacity: 0.85"/>
   </g>
   <g id="patch_60">
    <path d="M 672.797793 201.888 
L 706.493793 201.888 
L 706.493793 168.192 
L 672.797793 168.192 
z
" clip-path="url(#pd08be05d03)" style="fill: #fb923c; opacity: 0.85"/>
   </g>
   <g id="patch_61">
    <path d="M 706.493793 201.888 
L 740.189793 201.888 
L 740.189793 168.192 
L 706.493793 168.192 
z
" clip-path="url(#pd08be05d03)" style="fill: #fb923c; opacity: 0.85"/>
   </g>
   <g id="patch_62">
    <path d="M 841.277793 201.888 
L 874.973793 201.888 
L 874.973793 168.192 
L 841.277793 168.192 
z
" clip-path="url(#pd08be05d03)" style="fill: #fb923c; opacity: 0.85"/>
   </g>
   <g id="patch_63">
    <path d="M 672.797793 168.192 
L 706.493793 168.192 
L 706.493793 134.496 
L 672.797793 134.496 
z
" clip-path="url(#pd08be05d03)" style="fill: #fb923c; opacity: 0.85"/>
   </g>
   <g id="patch_64">
    <path d="M 706.493793 168.192 
L 740.189793 168.192 
L 740.189793 134.496 
L 706.493793 134.496 
z
" clip-path="url(#pd08be05d03)" style="fill: #fb923c; opacity: 0.85"/>
   </g>
   <g id="patch_65">
    <path d="M 841.277793 168.192 
L 874.973793 168.192 
L 874.973793 134.496 
L 841.277793 134.496 
z
" clip-path="url(#pd08be05d03)" style="fill: #fb923c; opacity: 0.85"/>
   </g>
   <g id="patch_66">
    <path d="M 706.493793 134.496 
L 740.189793 134.496 
L 740.189793 100.8 
L 706.493793 100.8 
z
" clip-path="url(#pd08be05d03)" style="fill: #fb923c; opacity: 0.85"/>
   </g>
   <g id="patch_67">
    <path d="M 740.189793 134.496 
L 773.885793 134.496 
L 773.885793 100.8 
L 740.189793 100.8 
z
" clip-path="url(#pd08be05d03)" style="fill: #fb923c; opacity: 0.85"/>
   </g>
   <g id="patch_68">
    <path d="M 807.581793 134.496 
L 841.277793 134.496 
L 841.277793 100.8 
L 807.581793 100.8 
z
" clip-path="url(#pd08be05d03)" style="fill: #fb923c; opacity: 0.85"/>
   </g>
   <g id="patch_69">
    <path d="M 841.277793 134.496 
L 874.973793 134.496 
L 874.973793 100.8 
L 841.277793 100.8 
z
" clip-path="url(#pd08be05d03)" style="fill: #fb923c; opacity: 0.85"/>
   </g>
   <g id="patch_70">
    <path d="M 740.189793 100.8 
L 773.885793 100.8 
L 773.885793 67.104 
L 740.189793 67.104 
z
" clip-path="url(#pd08be05d03)" style="fill: #fb923c; opacity: 0.85"/>
   </g>
   <g id="patch_71">
    <path d="M 773.885793 100.8 
L 807.581793 100.8 
L 807.581793 67.104 
L 773.885793 67.104 
z
" clip-path="url(#pd08be05d03)" style="fill: #fb923c; opacity: 0.85"/>
   </g>
   <g id="patch_72">
    <path d="M 807.581793 100.8 
L 841.277793 100.8 
L 841.277793 67.104 
L 807.581793 67.104 
z
" clip-path="url(#pd08be05d03)" style="fill: #fb923c; opacity: 0.85"/>
   </g>
   <g id="matplotlib.axis_5"/>
   <g id="matplotlib.axis_6"/>
   <g id="patch_73">
    <path d="M 773.885793 235.584 
L 807.581793 235.584 
L 807.581793 201.888 
L 773.885793 201.888 
z
" clip-path="url(#pd08be05d03)" style="fill: #60a5fa; opacity: 0.85"/>
   </g>
   <g id="patch_74">
    <path d="M 740.189793 201.888 
L 773.885793 201.888 
L 773.885793 168.192 
L 740.189793 168.192 
z
" clip-path="url(#pd08be05d03)" style="fill: #60a5fa; opacity: 0.85"/>
   </g>
   <g id="patch_75">
    <path d="M 773.885793 201.888 
L 807.581793 201.888 
L 807.581793 168.192 
L 773.885793 168.192 
z
" clip-path="url(#pd08be05d03)" style="fill: #60a5fa; opacity: 0.85"/>
   </g>
   <g id="patch_76">
    <path d="M 807.581793 201.888 
L 841.277793 201.888 
L 841.277793 168.192 
L 807.581793 168.192 
z
" clip-path="url(#pd08be05d03)" style="fill: #60a5fa; opacity: 0.85"/>
   </g>
   <g id="patch_77">
    <path d="M 740.189793 168.192 
L 773.885793 168.192 
L 773.885793 134.496 
L 740.189793 134.496 
z
" clip-path="url(#pd08be05d03)" style="fill: #60a5fa; opacity: 0.85"/>
   </g>
   <g id="patch_78">
    <path d="M 773.885793 168.192 
L 807.581793 168.192 
L 807.581793 134.496 
L 773.885793 134.496 
z
" clip-path="url(#pd08be05d03)" style="fill: #60a5fa; opacity: 0.85"/>
   </g>
   <g id="patch_79">
    <path d="M 807.581793 168.192 
L 841.277793 168.192 
L 841.277793 134.496 
L 807.581793 134.496 
z
" clip-path="url(#pd08be05d03)" style="fill: #60a5fa; opacity: 0.85"/>
   </g>
   <g id="patch_80">
    <path d="M 773.885793 134.496 
L 807.581793 134.496 
L 807.581793 100.8 
L 773.885793 100.8 
z
" clip-path="url(#pd08be05d03)" style="fill: #60a5fa; opacity: 0.85"/>
   </g>
   <g id="line2d_30">
    <path d="M 672.797793 269.28 
L 672.797793 67.104 
" clip-path="url(#pd08be05d03)" style="fill: none; stroke: #94a3b8; stroke-linecap: square"/>
   </g>
   <g id="line2d_31">
    <path d="M 706.493793 269.28 
L 706.493793 67.104 
" clip-path="url(#pd08be05d03)" style="fill: none; stroke: #94a3b8; stroke-linecap: square"/>
   </g>
   <g id="line2d_32">
    <path d="M 740.189793 269.28 
L 740.189793 67.104 
" clip-path="url(#pd08be05d03)" style="fill: none; stroke: #94a3b8; stroke-linecap: square"/>
   </g>
   <g id="line2d_33">
    <path d="M 773.885793 269.28 
L 773.885793 67.104 
" clip-path="url(#pd08be05d03)" style="fill: none; stroke: #94a3b8; stroke-linecap: square"/>
   </g>
   <g id="line2d_34">
    <path d="M 807.581793 269.28 
L 807.581793 67.104 
" clip-path="url(#pd08be05d03)" style="fill: none; stroke: #94a3b8; stroke-linecap: square"/>
   </g>
   <g id="line2d_35">
    <path d="M 841.277793 269.28 
L 841.277793 67.104 
" clip-path="url(#pd08be05d03)" style="fill: none; stroke: #94a3b8; stroke-linecap: square"/>
   </g>
   <g id="line2d_36">
    <path d="M 874.973793 269.28 
L 874.973793 67.104 
" clip-path="url(#pd08be05d03)" style="fill: none; stroke: #94a3b8; stroke-linecap: square"/>
   </g>
   <g id="line2d_37">
    <path d="M 672.797793 269.28 
L 874.973793 269.28 
" clip-path="url(#pd08be05d03)" style="fill: none; stroke: #94a3b8; stroke-linecap: square"/>
   </g>
   <g id="line2d_38">
    <path d="M 672.797793 235.584 
L 874.973793 235.584 
" clip-path="url(#pd08be05d03)" style="fill: none; stroke: #94a3b8; stroke-linecap: square"/>
   </g>
   <g id="line2d_39">
    <path d="M 672.797793 201.888 
L 874.973793 201.888 
" clip-path="url(#pd08be05d03)" style="fill: none; stroke: #94a3b8; stroke-linecap: square"/>
   </g>
   <g id="line2d_40">
    <path d="M 672.797793 168.192 
L 874.973793 168.192 
" clip-path="url(#pd08be05d03)" style="fill: none; stroke: #94a3b8; stroke-linecap: square"/>
   </g>
   <g id="line2d_41">
    <path d="M 672.797793 134.496 
L 874.973793 134.496 
" clip-path="url(#pd08be05d03)" style="fill: none; stroke: #94a3b8; stroke-linecap: square"/>
   </g>
   <g id="line2d_42">
    <path d="M 672.797793 100.8 
L 874.973793 100.8 
" clip-path="url(#pd08be05d03)" style="fill: none; stroke: #94a3b8; stroke-linecap: square"/>
   </g>
   <g id="line2d_43">
    <path d="M 672.797793 67.104 
L 874.973793 67.104 
" clip-path="url(#pd08be05d03)" style="fill: none; stroke: #94a3b8; stroke-linecap: square"/>
   </g>
   <g id="text_5">
    <!-- Boundary cells keep exact fractions while -->
    <g style="fill: #334155" transform="translate(680.356809 308.466754) scale(0.09 -0.09)">
     <defs>
      <path id="DejaVuSans-42" d="M 1259 2228 
L 1259 519 
L 2272 519 
Q 2781 519 3026 730 
Q 3272 941 3272 1375 
Q 3272 1813 3026 2020 
Q 2781 2228 2272 2228 
L 1259 2228 
z
M 1259 4147 
L 1259 2741 
L 2194 2741 
Q 2656 2741 2882 2914 
Q 3109 3088 3109 3444 
Q 3109 3797 2882 3972 
Q 2656 4147 2194 4147 
L 1259 4147 
z
M 628 4666 
L 2241 4666 
Q 2963 4666 3353 4366 
Q 3744 4066 3744 3513 
Q 3744 3084 3544 2831 
Q 3344 2578 2956 2516 
Q 3422 2416 3680 2098 
Q 3938 1781 3938 1306 
Q 3938 681 3513 340 
Q 3088 0 2303 0 
L 628 0 
L 628 4666 
z
" transform="scale(0.015625)"/>
      <path id="DejaVuSans-75" d="M 544 1381 
L 544 3500 
L 1119 3500 
L 1119 1403 
Q 1119 906 1312 657 
Q 1506 409 1894 409 
Q 2359 409 2629 706 
Q 2900 1003 2900 1516 
L 2900 3500 
L 3475 3500 
L 3475 0 
L 2900 0 
L 2900 538 
Q 2691 219 2414 64 
Q 2138 -91 1772 -91 
Q 1169 -91 856 284 
Q 544 659 544 1381 
z
M 1991 3584 
L 1991 3584 
z
" transform="scale(0.015625)"/>
     </defs>
     <use xlink:href="#DejaVuSans-42"/>
     <use xlink:href="#DejaVuSans-6f" transform="translate(68.603516 0)"/>
     <use xlink:href="#DejaVuSans-75" transform="translate(129.785156 0)"/>
     <use xlink:href="#DejaVuSans-6e" transform="translate(193.164062 0)"/>
     <use xlink:href="#DejaVuSans-64" transform="translate(256.542969 0)"/>
     <use xlink:href="#DejaVuSans-61" transform="translate(320.019531 0)"/>
     <use xlink:href="#DejaVuSans-72" transform="translate(381.298828 0)"/>
     <use xlink:href="#DejaVuSans-79" transform="translate(422.412109 0)"/>
     <use xlink:href="#DejaVuSans-20" transform="translate(481.591797 0)"/>
     <use xlink:href="#DejaVuSans-63" transform="translate(513.378906 0)"/>
     <use xlink:href="#DejaVuSans-65" transform="translate(568.359375 0)"/>
     <use xlink:href="#DejaVuSans-6c" transform="translate(629.882812 0)"/>
     <use xlink:href="#DejaVuSans-6c" transform="translate(657.666016 0)"/>
     <use xlink:href="#DejaVuSans-73" transform="translate(685.449219 0)"/>
     <use xlink:href="#DejaVuSans-20" transform="translate(737.548828 0)"/>
     <use xlink:href="#DejaVuSans-6b" transform="translate(769.335938 0)"/>
     <use xlink:href="#DejaVuSans-65" transform="translate(823.621094 0)"/>
     <use xlink:href="#DejaVuSans-65" transform="translate(885.144531 0)"/>
     <use xlink:href="#DejaVuSans-70" transform="translate(946.667969 0)"/>
     <use xlink:href="#DejaVuSans-20" transform="translate(1010.144531 0)"/>
     <use xlink:href="#DejaVuSans-65" transform="translate(1041.931641 0)"/>
     <use xlink:href="#DejaVuSans-78" transform="translate(1101.705078 0)"/>
     <use xlink:href="#DejaVuSans-61" transform="translate(1160.884766 0)"/>
     <use xlink:href="#DejaVuSans-63" transform="translate(1222.164062 0)"/>
     <use xlink:href="#DejaVuSans-74" transform="translate(1277.144531 0)"/>
     <use xlink:href="#DejaVuSans-20" transform="translate(1316.353516 0)"/>
     <use xlink:href="#DejaVuSans-66" transform="translate(1348.140625 0)"/>
     <use xlink:href="#DejaVuSans-72" transform="translate(1383.345703 0)"/>
     <use xlink:href="#DejaVuSans-61" transform="translate(1424.458984 0)"/>
     <use xlink:href="#DejaVuSans-63" transform="translate(1485.738281 0)"/>
     <use xlink:href="#DejaVuSans-74" transform="translate(1540.71875 0)"/>
     <use xlink:href="#DejaVuSans-69" transform="translate(1579.927734 0)"/>
     <use xlink:href="#DejaVuSans-6f" transform="translate(1607.710938 0)"/>
     <use xlink:href="#DejaVuSans-6e" transform="translate(1668.892578 0)"/>
     <use xlink:href="#DejaVuSans-73" transform="translate(1732.271484 0)"/>
     <use xlink:href="#DejaVuSans-20" transform="translate(1784.371094 0)"/>
     <use xlink:href="#DejaVuSans-77" transform="translate(1816.158203 0)"/>
     <use xlink:href="#DejaVuSans-68" transform="translate(1897.945312 0)"/>
     <use xlink:href="#DejaVuSans-69" transform="translate(1961.324219 0)"/>
     <use xlink:href="#DejaVuSans-6c" transform="translate(1989.107422 0)"/>
     <use xlink:href="#DejaVuSans-65" transform="translate(2016.890625 0)"/>
    </g>
    <!-- interior fills stay bulk-written. -->
    <g style="fill: #334155" transform="translate(707.500949 318.544785) scale(0.09 -0.09)">
     <defs>
      <path id="DejaVuSans-2d" d="M 313 2009 
L 1997 2009 
L 1997 1497 
L 313 1497 
L 313 2009 
z
" transform="scale(0.015625)"/>
     </defs>
     <use xlink:href="#DejaVuSans-69"/>
     <use xlink:href="#DejaVuSans-6e" transform="translate(27.783203 0)"/>
     <use xlink:href="#DejaVuSans-74" transform="translate(91.162109 0)"/>
     <use xlink:href="#DejaVuSans-65" transform="translate(130.371094 0)"/>
     <use xlink:href="#DejaVuSans-72" transform="translate(191.894531 0)"/>
     <use xlink:href="#DejaVuSans-69" transform="translate(233.007812 0)"/>
     <use xlink:href="#DejaVuSans-6f" transform="translate(260.791016 0)"/>
     <use xlink:href="#DejaVuSans-72" transform="translate(321.972656 0)"/>
     <use xlink:href="#DejaVuSans-20" transform="translate(363.085938 0)"/>
     <use xlink:href="#DejaVuSans-66" transform="translate(394.873047 0)"/>
     <use xlink:href="#DejaVuSans-69" transform="translate(430.078125 0)"/>
     <use xlink:href="#DejaVuSans-6c" transform="translate(457.861328 0)"/>
     <use xlink:href="#DejaVuSans-6c" transform="translate(485.644531 0)"/>
     <use xlink:href="#DejaVuSans-73" transform="translate(513.427734 0)"/>
     <use xlink:href="#DejaVuSans-20" transform="translate(565.527344 0)"/>
     <use xlink:href="#DejaVuSans-73" transform="translate(597.314453 0)"/>
     <use xlink:href="#DejaVuSans-74" transform="translate(649.414062 0)"/>
     <use xlink:href="#DejaVuSans-61" transform="translate(688.623047 0)"/>
     <use xlink:href="#DejaVuSans-79" transform="translate(749.902344 0)"/>
     <use xlink:href="#DejaVuSans-20" transform="translate(809.082031 0)"/>
     <use xlink:href="#DejaVuSans-62" transform="translate(840.869141 0)"/>
     <use xlink:href="#DejaVuSans-75" transform="translate(904.345703 0)"/>
     <use xlink:href="#DejaVuSans-6c" transform="translate(967.724609 0)"/>
     <use xlink:href="#DejaVuSans-6b" transform="translate(995.507812 0)"/>
     <use xlink:href="#DejaVuSans-2d" transform="translate(1053.417969 0)"/>
     <use xlink:href="#DejaVuSans-77" transform="translate(1089.501953 0)"/>
     <use xlink:href="#DejaVuSans-72" transform="translate(1171.289062 0)"/>
     <use xlink:href="#DejaVuSans-69" transform="translate(1212.402344 0)"/>
     <use xlink:href="#DejaVuSans-74" transform="translate(1240.185547 0)"/>
     <use xlink:href="#DejaVuSans-74" transform="translate(1279.394531 0)"/>
     <use xlink:href="#DejaVuSans-65" transform="translate(1318.603516 0)"/>
     <use xlink:href="#DejaVuSans-6e" transform="translate(1380.126953 0)"/>
     <use xlink:href="#DejaVuSans-2e" transform="translate(1443.505859 0)"/>
    </g>
   </g>
   <g id="text_6">
    <!-- 3. Exact boundary pass -->
    <g transform="translate(695.064543 57.104) scale(0.12 -0.12)">
     <defs>
      <path id="DejaVuSans-Bold-33" d="M 2981 2516 
Q 3453 2394 3698 2092 
Q 3944 1791 3944 1325 
Q 3944 631 3412 270 
Q 2881 -91 1863 -91 
Q 1503 -91 1142 -33 
Q 781 25 428 141 
L 428 1069 
Q 766 900 1098 814 
Q 1431 728 1753 728 
Q 2231 728 2486 893 
Q 2741 1059 2741 1369 
Q 2741 1688 2480 1852 
Q 2219 2016 1709 2016 
L 1228 2016 
L 1228 2791 
L 1734 2791 
Q 2188 2791 2409 2933 
Q 2631 3075 2631 3366 
Q 2631 3634 2415 3781 
Q 2200 3928 1806 3928 
Q 1516 3928 1219 3862 
Q 922 3797 628 3669 
L 628 4550 
Q 984 4650 1334 4700 
Q 1684 4750 2022 4750 
Q 2931 4750 3382 4451 
Q 3834 4153 3834 3553 
Q 3834 3144 3618 2883 
Q 3403 2622 2981 2516 
z
" transform="scale(0.015625)"/>
      <path id="DejaVuSans-Bold-45" d="M 588 4666 
L 3834 4666 
L 3834 3756 
L 1791 3756 
L 1791 2888 
L 3713 2888 
L 3713 1978 
L 1791 1978 
L 1791 909 
L 3903 909 
L 3903 0 
L 588 0 
L 588 4666 
z
" transform="scale(0.015625)"/>
      <path id="DejaVuSans-Bold-78" d="M 1422 1791 
L 159 3500 
L 1344 3500 
L 2059 2463 
L 2784 3500 
L 3969 3500 
L 2706 1797 
L 4031 0 
L 2847 0 
L 2059 1106 
L 1281 0 
L 97 0 
L 1422 1791 
z
" transform="scale(0.015625)"/>
      <path id="DejaVuSans-Bold-62" d="M 2400 722 
Q 2759 722 2948 984 
Q 3138 1247 3138 1747 
Q 3138 2247 2948 2509 
Q 2759 2772 2400 2772 
Q 2041 2772 1848 2508 
Q 1656 2244 1656 1747 
Q 1656 1250 1848 986 
Q 2041 722 2400 722 
z
M 1656 2988 
Q 1888 3294 2169 3439 
Q 2450 3584 2816 3584 
Q 3463 3584 3878 3070 
Q 4294 2556 4294 1747 
Q 4294 938 3878 423 
Q 3463 -91 2816 -91 
Q 2450 -91 2169 54 
Q 1888 200 1656 506 
L 1656 0 
L 538 0 
L 538 4863 
L 1656 4863 
L 1656 2988 
z
" transform="scale(0.015625)"/>
      <path id="DejaVuSans-Bold-70" d="M 1656 506 
L 1656 -1331 
L 538 -1331 
L 538 3500 
L 1656 3500 
L 1656 2988 
Q 1888 3294 2169 3439 
Q 2450 3584 2816 3584 
Q 3463 3584 3878 3070 
Q 4294 2556 4294 1747 
Q 4294 938 3878 423 
Q 3463 -91 2816 -91 
Q 2450 -91 2169 54 
Q 1888 200 1656 506 
z
M 2400 2772 
Q 2041 2772 1848 2508 
Q 1656 2244 1656 1747 
Q 1656 1250 1848 986 
Q 2041 722 2400 722 
Q 2759 722 2948 984 
Q 3138 1247 3138 1747 
Q 3138 2247 2948 2509 
Q 2759 2772 2400 2772 
z
" transform="scale(0.015625)"/>
     </defs>
     <use xlink:href="#DejaVuSans-Bold-33"/>
     <use xlink:href="#DejaVuSans-Bold-2e" transform="translate(69.580078 0)"/>
     <use xlink:href="#DejaVuSans-Bold-20" transform="translate(107.568359 0)"/>
     <use xlink:href="#DejaVuSans-Bold-45" transform="translate(142.382812 0)"/>
     <use xlink:href="#DejaVuSans-Bold-78" transform="translate(210.693359 0)"/>
     <use xlink:href="#DejaVuSans-Bold-61" transform="translate(275.195312 0)"/>
     <use xlink:href="#DejaVuSans-Bold-63" transform="translate(342.675781 0)"/>
     <use xlink:href="#DejaVuSans-Bold-74" transform="translate(401.953125 0)"/>
     <use xlink:href="#DejaVuSans-Bold-20" transform="translate(449.755859 0)"/>
     <use xlink:href="#DejaVuSans-Bold-62" transform="translate(484.570312 0)"/>
     <use xlink:href="#DejaVuSans-Bold-6f" transform="translate(556.152344 0)"/>
     <use xlink:href="#DejaVuSans-Bold-75" transform="translate(624.853516 0)"/>
     <use xlink:href="#DejaVuSans-Bold-6e" transform="translate(696.044922 0)"/>
     <use xlink:href="#DejaVuSans-Bold-64" transform="translate(767.236328 0)"/>
     <use xlink:href="#DejaVuSans-Bold-61" transform="translate(838.818359 0)"/>
     <use xlink:href="#DejaVuSans-Bold-72" transform="translate(906.298828 0)"/>
     <use xlink:href="#DejaVuSans-Bold-79" transform="translate(955.615234 0)"/>
     <use xlink:href="#DejaVuSans-Bold-20" transform="translate(1020.800781 0)"/>
     <use xlink:href="#DejaVuSans-Bold-70" transform="translate(1055.615234 0)"/>
     <use xlink:href="#DejaVuSans-Bold-61" transform="translate(1127.197266 0)"/>
     <use xlink:href="#DejaVuSans-Bold-73" transform="translate(1194.677734 0)"/>
     <use xlink:href="#DejaVuSans-Bold-73" transform="translate(1254.199219 0)"/>
    </g>
   </g>
   <g id="LineCollection_3">
    <path d="M 701.439393 168.192 
L 701.601721 163.233396 
L 702.088009 158.296026 
L 702.896176 153.401032 
L 704.022761 148.569375 
L 705.462938 143.821745 
L 707.210542 139.178473 
L 709.258089 134.659441 
L 711.596811 130.284 
L 714.216693 126.070887 
L 717.106516 122.038143 
L 720.253906 118.203038 
L 723.645385 114.581992 
L 727.266431 111.190513 
L 731.101537 108.043123 
L 735.13428 105.1533 
L 739.347393 102.533418 
L 743.722834 100.194696 
L 748.241866 98.147149 
L 752.885139 96.399545 
L 757.632768 94.959368 
L 762.464425 93.832783 
L 767.359419 93.024616 
L 772.296789 92.538328 
L 777.255393 92.376 
L 782.213997 92.538328 
L 787.151367 93.024616 
L 792.046361 93.832783 
L 796.878018 94.959368 
L 801.625648 96.399545 
L 806.26892 98.147149 
L 810.787952 100.194696 
L 815.163393 102.533418 
L 819.376506 105.1533 
L 823.40925 108.043123 
L 827.244355 111.190513 
L 830.865401 114.581992 
L 834.25688 118.203038 
L 837.40427 122.038143 
L 840.294093 126.070887 
L 842.913975 130.284 
L 845.252697 134.659441 
L 847.300244 139.178473 
L 849.047848 143.821745 
L 850.488026 148.569375 
L 851.61461 153.401032 
L 852.422777 158.296026 
L 852.909065 163.233396 
L 853.071393 168.192 
L 852.909065 173.150604 
L 852.422777 178.087974 
L 851.61461 182.982968 
L 850.488026 187.814625 
L 849.047848 192.562255 
L 847.300244 197.205527 
L 845.252697 201.724559 
L 842.913975 206.1 
L 840.294093 210.313113 
L 837.40427 214.345857 
L 834.25688 218.180962 
L 830.865401 221.802008 
L 827.244355 225.193487 
L 823.40925 228.340877 
L 819.376506 231.2307 
L 815.163393 233.850582 
L 810.787952 236.189304 
L 806.26892 238.236851 
L 801.625648 239.984455 
L 796.878018 241.424632 
L 792.046361 242.551217 
L 787.151367 243.359384 
L 782.213997 243.845672 
L 777.255393 244.008 
L 772.296789 243.845672 
L 767.359419 243.359384 
L 762.464425 242.551217 
L 757.632768 241.424632 
L 752.885139 239.984455 
L 748.241866 238.236851 
L 743.722834 236.189304 
L 739.347393 233.850582 
L 735.13428 231.2307 
L 731.101537 228.340877 
L 727.266431 225.193487 
L 723.645385 221.802008 
L 720.253906 218.180962 
L 717.106516 214.345857 
L 714.216693 210.313113 
L 711.596811 206.1 
L 709.258089 201.724559 
L 707.210542 197.205527 
L 705.462938 192.562255 
L 704.022761 187.814625 
L 702.896176 182.982968 
L 702.088009 178.087974 
L 701.601721 173.150604 
L 701.439393 168.192 
L 701.439393 168.192 
" clip-path="url(#pd08be05d03)" style="fill: none; stroke: #0f172a; stroke-width: 2.8"/>
   </g>
  </g>
  <g id="text_7">
   <!-- Hybrid Path: Mark, Fill, Then Clip Exactly -->
   <g transform="translate(246.322147 19.3575) scale(0.16 -0.16)">
    <defs>
     <path id="DejaVuSans-Bold-48" d="M 588 4666 
L 1791 4666 
L 1791 2888 
L 3566 2888 
L 3566 4666 
L 4769 4666 
L 4769 0 
L 3566 0 
L 3566 1978 
L 1791 1978 
L 1791 0 
L 588 0 
L 588 4666 
z
" transform="scale(0.015625)"/>
     <path id="DejaVuSans-Bold-50" d="M 588 4666 
L 2584 4666 
Q 3475 4666 3951 4270 
Q 4428 3875 4428 3144 
Q 4428 2409 3951 2014 
Q 3475 1619 2584 1619 
L 1791 1619 
L 1791 0 
L 588 0 
L 588 4666 
z
M 1791 3794 
L 1791 2491 
L 2456 2491 
Q 2806 2491 2997 2661 
Q 3188 2831 3188 3144 
Q 3188 3456 2997 3625 
Q 2806 3794 2456 3794 
L 1791 3794 
z
" transform="scale(0.015625)"/>
     <path id="DejaVuSans-Bold-68" d="M 4056 2131 
L 4056 0 
L 2931 0 
L 2931 347 
L 2931 1625 
Q 2931 2084 2911 2256 
Q 2891 2428 2841 2509 
Q 2775 2619 2662 2680 
Q 2550 2741 2406 2741 
Q 2056 2741 1856 2470 
Q 1656 2200 1656 1722 
L 1656 0 
L 538 0 
L 538 4863 
L 1656 4863 
L 1656 2988 
Q 1909 3294 2193 3439 
Q 2478 3584 2822 3584 
Q 3428 3584 3742 3212 
Q 4056 2841 4056 2131 
z
" transform="scale(0.015625)"/>
     <path id="DejaVuSans-Bold-3a" d="M 716 3500 
L 1844 3500 
L 1844 2291 
L 716 2291 
L 716 3500 
z
M 716 1209 
L 1844 1209 
L 1844 0 
L 716 0 
L 716 1209 
z
" transform="scale(0.015625)"/>
     <path id="DejaVuSans-Bold-4d" d="M 588 4666 
L 2119 4666 
L 3181 2169 
L 4250 4666 
L 5778 4666 
L 5778 0 
L 4641 0 
L 4641 3413 
L 3566 897 
L 2803 897 
L 1728 3413 
L 1728 0 
L 588 0 
L 588 4666 
z
" transform="scale(0.015625)"/>
     <path id="DejaVuSans-Bold-6b" d="M 538 4863 
L 1656 4863 
L 1656 2216 
L 2944 3500 
L 4244 3500 
L 2534 1894 
L 4378 0 
L 3022 0 
L 1656 1459 
L 1656 0 
L 538 0 
L 538 4863 
z
" transform="scale(0.015625)"/>
     <path id="DejaVuSans-Bold-2c" d="M 653 1209 
L 1778 1209 
L 1778 256 
L 1006 -909 
L 341 -909 
L 653 256 
L 653 1209 
z
" transform="scale(0.015625)"/>
     <path id="DejaVuSans-Bold-46" d="M 588 4666 
L 3834 4666 
L 3834 3756 
L 1791 3756 
L 1791 2888 
L 3713 2888 
L 3713 1978 
L 1791 1978 
L 1791 0 
L 588 0 
L 588 4666 
z
" transform="scale(0.015625)"/>
     <path id="DejaVuSans-Bold-54" d="M 31 4666 
L 4331 4666 
L 4331 3756 
L 2784 3756 
L 2784 0 
L 1581 0 
L 1581 3756 
L 31 3756 
L 31 4666 
z
" transform="scale(0.015625)"/>
     <path id="DejaVuSans-Bold-43" d="M 4288 256 
Q 3956 84 3597 -3 
Q 3238 -91 2847 -91 
Q 1681 -91 1000 561 
Q 319 1213 319 2328 
Q 319 3447 1000 4098 
Q 1681 4750 2847 4750 
Q 3238 4750 3597 4662 
Q 3956 4575 4288 4403 
L 4288 3438 
Q 3953 3666 3628 3772 
Q 3303 3878 2944 3878 
Q 2300 3878 1931 3465 
Q 1563 3053 1563 2328 
Q 1563 1606 1931 1193 
Q 2300 781 2944 781 
Q 3303 781 3628 887 
Q 3953 994 4288 1222 
L 4288 256 
z
" transform="scale(0.015625)"/>
    </defs>
    <use xlink:href="#DejaVuSans-Bold-48"/>
    <use xlink:href="#DejaVuSans-Bold-79" transform="translate(83.691406 0)"/>
    <use xlink:href="#DejaVuSans-Bold-62" transform="translate(148.876953 0)"/>
    <use xlink:href="#DejaVuSans-Bold-72" transform="translate(220.458984 0)"/>
    <use xlink:href="#DejaVuSans-Bold-69" transform="translate(269.775391 0)"/>
    <use xlink:href="#DejaVuSans-Bold-64" transform="translate(304.052734 0)"/>
    <use xlink:href="#DejaVuSans-Bold-20" transform="translate(375.634766 0)"/>
    <use xlink:href="#DejaVuSans-Bold-50" transform="translate(410.449219 0)"/>
    <use xlink:href="#DejaVuSans-Bold-61" transform="translate(481.115234 0)"/>
    <use xlink:href="#DejaVuSans-Bold-74" transform="translate(548.595703 0)"/>
    <use xlink:href="#DejaVuSans-Bold-68" transform="translate(596.398438 0)"/>
    <use xlink:href="#DejaVuSans-Bold-3a" transform="translate(667.589844 0)"/>
    <use xlink:href="#DejaVuSans-Bold-20" transform="translate(707.580078 0)"/>
    <use xlink:href="#DejaVuSans-Bold-4d" transform="translate(742.394531 0)"/>
    <use xlink:href="#DejaVuSans-Bold-61" transform="translate(841.90625 0)"/>
    <use xlink:href="#DejaVuSans-Bold-72" transform="translate(909.386719 0)"/>
    <use xlink:href="#DejaVuSans-Bold-6b" transform="translate(958.703125 0)"/>
    <use xlink:href="#DejaVuSans-Bold-2c" transform="translate(1025.207031 0)"/>
    <use xlink:href="#DejaVuSans-Bold-20" transform="translate(1063.195312 0)"/>
    <use xlink:href="#DejaVuSans-Bold-46" transform="translate(1098.009766 0)"/>
    <use xlink:href="#DejaVuSans-Bold-69" transform="translate(1166.320312 0)"/>
    <use xlink:href="#DejaVuSans-Bold-6c" transform="translate(1200.597656 0)"/>
    <use xlink:href="#DejaVuSans-Bold-6c" transform="translate(1234.875 0)"/>
    <use xlink:href="#DejaVuSans-Bold-2c" transform="translate(1269.152344 0)"/>
    <use xlink:href="#DejaVuSans-Bold-20" transform="translate(1307.140625 0)"/>
    <use xlink:href="#DejaVuSans-Bold-54" transform="translate(1341.955078 0)"/>
    <use xlink:href="#DejaVuSans-Bold-68" transform="translate(1410.167969 0)"/>
    <use xlink:href="#DejaVuSans-Bold-65" transform="translate(1481.359375 0)"/>
    <use xlink:href="#DejaVuSans-Bold-6e" transform="translate(1549.181641 0)"/>
    <use xlink:href="#DejaVuSans-Bold-20" transform="translate(1620.373047 0)"/>
    <use xlink:href="#DejaVuSans-Bold-43" transform="translate(1655.1875 0)"/>
    <use xlink:href="#DejaVuSans-Bold-6c" transform="translate(1728.576172 0)"/>
    <use xlink:href="#DejaVuSans-Bold-69" transform="translate(1762.853516 0)"/>
    <use xlink:href="#DejaVuSans-Bold-70" transform="translate(1797.130859 0)"/>
    <use xlink:href="#DejaVuSans-Bold-20" transform="translate(1868.712891 0)"/>
    <use xlink:href="#DejaVuSans-Bold-45" transform="translate(1903.527344 0)"/>
    <use xlink:href="#DejaVuSans-Bold-78" transform="translate(1971.837891 0)"/>
    <use xlink:href="#DejaVuSans-Bold-61" transform="translate(2036.339844 0)"/>
    <use xlink:href="#DejaVuSans-Bold-63" transform="translate(2103.820312 0)"/>
    <use xlink:href="#DejaVuSans-Bold-74" transform="translate(2163.097656 0)"/>
    <use xlink:href="#DejaVuSans-Bold-6c" transform="translate(2210.900391 0)"/>
    <use xlink:href="#DejaVuSans-Bold-79" transform="translate(2245.177734 0)"/>
   </g>
  </g>
  <g id="legend_1">
   <g id="patch_81">
    <path d="M 235.833709 381.752312 
L 255.833709 381.752312 
L 255.833709 374.752312 
L 235.833709 374.752312 
z
" style="fill: #fb923c; opacity: 0.85; stroke: #fb923c; stroke-linejoin: miter"/>
   </g>
   <g id="text_8">
    <!-- boundary cells clipped exactly -->
    <g transform="translate(263.833709 381.752312) scale(0.1 -0.1)">
     <use xlink:href="#DejaVuSans-62"/>
     <use xlink:href="#DejaVuSans-6f" transform="translate(63.476562 0)"/>
     <use xlink:href="#DejaVuSans-75" transform="translate(124.658203 0)"/>
     <use xlink:href="#DejaVuSans-6e" transform="translate(188.037109 0)"/>
     <use xlink:href="#DejaVuSans-64" transform="translate(251.416016 0)"/>
     <use xlink:href="#DejaVuSans-61" transform="translate(314.892578 0)"/>
     <use xlink:href="#DejaVuSans-72" transform="translate(376.171875 0)"/>
     <use xlink:href="#DejaVuSans-79" transform="translate(417.285156 0)"/>
     <use xlink:href="#DejaVuSans-20" transform="translate(476.464844 0)"/>
     <use xlink:href="#DejaVuSans-63" transform="translate(508.251953 0)"/>
     <use xlink:href="#DejaVuSans-65" transform="translate(563.232422 0)"/>
     <use xlink:href="#DejaVuSans-6c" transform="translate(624.755859 0)"/>
     <use xlink:href="#DejaVuSans-6c" transform="translate(652.539062 0)"/>
     <use xlink:href="#DejaVuSans-73" transform="translate(680.322266 0)"/>
     <use xlink:href="#DejaVuSans-20" transform="translate(732.421875 0)"/>
     <use xlink:href="#DejaVuSans-63" transform="translate(764.208984 0)"/>
     <use xlink:href="#DejaVuSans-6c" transform="translate(819.189453 0)"/>
     <use xlink:href="#DejaVuSans-69" transform="translate(846.972656 0)"/>
     <use xlink:href="#DejaVuSans-70" transform="translate(874.755859 0)"/>
     <use xlink:href="#DejaVuSans-70" transform="translate(938.232422 0)"/>
     <use xlink:href="#DejaVuSans-65" transform="translate(1001.708984 0)"/>
     <use xlink:href="#DejaVuSans-64" transform="translate(1063.232422 0)"/>
     <use xlink:href="#DejaVuSans-20" transform="translate(1126.708984 0)"/>
     <use xlink:href="#DejaVuSans-65" transform="translate(1158.496094 0)"/>
     <use xlink:href="#DejaVuSans-78" transform="translate(1218.269531 0)"/>
     <use xlink:href="#DejaVuSans-61" transform="translate(1277.449219 0)"/>
     <use xlink:href="#DejaVuSans-63" transform="translate(1338.728516 0)"/>
     <use xlink:href="#DejaVuSans-74" transform="translate(1393.708984 0)"/>
     <use xlink:href="#DejaVuSans-6c" transform="translate(1432.917969 0)"/>
     <use xlink:href="#DejaVuSans-79" transform="translate(1460.701172 0)"/>
    </g>
   </g>
   <g id="patch_82">
    <path d="M 435.827459 381.752312 
L 455.827459 381.752312 
L 455.827459 374.752312 
L 435.827459 374.752312 
z
" style="fill: #60a5fa; opacity: 0.85; stroke: #60a5fa; stroke-linejoin: miter"/>
   </g>
   <g id="text_9">
    <!-- whole interior cells filled directly -->
    <g transform="translate(463.827459 381.752312) scale(0.1 -0.1)">
     <use xlink:href="#DejaVuSans-77"/>
     <use xlink:href="#DejaVuSans-68" transform="translate(81.787109 0)"/>
     <use xlink:href="#DejaVuSans-6f" transform="translate(145.166016 0)"/>
     <use xlink:href="#DejaVuSans-6c" transform="translate(206.347656 0)"/>
     <use xlink:href="#DejaVuSans-65" transform="translate(234.130859 0)"/>
     <use xlink:href="#DejaVuSans-20" transform="translate(295.654297 0)"/>
     <use xlink:href="#DejaVuSans-69" transform="translate(327.441406 0)"/>
     <use xlink:href="#DejaVuSans-6e" transform="translate(355.224609 0)"/>
     <use xlink:href="#DejaVuSans-74" transform="translate(418.603516 0)"/>
     <use xlink:href="#DejaVuSans-65" transform="translate(457.8125 0)"/>
     <use xlink:href="#DejaVuSans-72" transform="translate(519.335938 0)"/>
     <use xlink:href="#DejaVuSans-69" transform="translate(560.449219 0)"/>
     <use xlink:href="#DejaVuSans-6f" transform="translate(588.232422 0)"/>
     <use xlink:href="#DejaVuSans-72" transform="translate(649.414062 0)"/>
     <use xlink:href="#DejaVuSans-20" transform="translate(690.527344 0)"/>
     <use xlink:href="#DejaVuSans-63" transform="translate(722.314453 0)"/>
     <use xlink:href="#DejaVuSans-65" transform="translate(777.294922 0)"/>
     <use xlink:href="#DejaVuSans-6c" transform="translate(838.818359 0)"/>
     <use xlink:href="#DejaVuSans-6c" transform="translate(866.601562 0)"/>
     <use xlink:href="#DejaVuSans-73" transform="translate(894.384766 0)"/>
     <use xlink:href="#DejaVuSans-20" transform="translate(946.484375 0)"/>
     <use xlink:href="#DejaVuSans-66" transform="translate(978.271484 0)"/>
     <use xlink:href="#DejaVuSans-69" transform="translate(1013.476562 0)"/>
     <use xlink:href="#DejaVuSans-6c" transform="translate(1041.259766 0)"/>
     <use xlink:href="#DejaVuSans-6c" transform="translate(1069.042969 0)"/>
     <use xlink:href="#DejaVuSans-65" transform="translate(1096.826172 0)"/>
     <use xlink:href="#DejaVuSans-64" transform="translate(1158.349609 0)"/>
     <use xlink:href="#DejaVuSans-20" transform="translate(1221.826172 0)"/>
     <use xlink:href="#DejaVuSans-64" transform="translate(1253.613281 0)"/>
     <use xlink:href="#DejaVuSans-69" transform="translate(1317.089844 0)"/>
     <use xlink:href="#DejaVuSans-72" transform="translate(1344.873047 0)"/>
     <use xlink:href="#DejaVuSans-65" transform="translate(1383.736328 0)"/>
     <use xlink:href="#DejaVuSans-63" transform="translate(1445.259766 0)"/>
     <use xlink:href="#DejaVuSans-74" transform="translate(1500.240234 0)"/>
     <use xlink:href="#DejaVuSans-6c" transform="translate(1539.449219 0)"/>
     <use xlink:href="#DejaVuSans-79" transform="translate(1567.232422 0)"/>
    </g>
   </g>
  </g>
 </g>
 <defs>
  <clipPath id="p4d97dd657d">
   <rect x="7.2" y="67.104" width="202.176" height="202.176"/>
  </clipPath>
  <clipPath id="p3e3d35cd3d">
   <rect x="339.998897" y="67.104" width="202.176" height="202.176"/>
  </clipPath>
  <clipPath id="pd08be05d03">
   <rect x="672.797793" y="67.104" width="202.176" height="202.176"/>
  </clipPath>
 </defs>
</svg>
