<?xml version="1.0" encoding="utf-8" standalone="no"?>
<!DOCTYPE svg PUBLIC "-//W3C//DTD SVG 1.1//EN"
  "http://www.w3.org/Graphics/SVG/1.1/DTD/svg11.dtd">
<svg xmlns:xlink="http://www.w3.org/1999/xlink" width="913.987133pt" height="414.30875pt" viewBox="0 0 913.987133 414.30875" xmlns="http://www.w3.org/2000/svg" version="1.1">
 <metadata>
  <rdf:RDF xmlns:dc="http://purl.org/dc/elements/1.1/" xmlns:cc="http://creativecommons.org/ns#" xmlns:rdf="http://www.w3.org/1999/02/22-rdf-syntax-ns#">
   <cc:Work>
    <dc:type rdf:resource="http://purl.org/dc/dcmitype/StillImage"/>
    <dc:date>2026-05-02T21:28:45.748715</dc:date>
    <dc:format>image/svg+xml</dc:format>
    <dc:creator>
     <cc:Agent>
      <dc:title>Matplotlib v3.10.9, https://matplotlib.org/</dc:title>
     </cc:Agent>
    </dc:creator>
   </cc:Work>
  </rdf:RDF>
 </metadata>
 <defs>
  <style type="text/css">*{stroke-linejoin: round; stroke-linecap: butt}</style>
 </defs>
 <g id="figure_1">
  <g id="patch_1">
   <path d="M 0 414.30875 
L 913.987133 414.30875 
L 913.987133 0 
L 0 0 
z
" style="fill: #f8fafc"/>
  </g>
  <g id="axes_1">
   <g id="patch_2">
    <path d="M 7.2 188.64 
L 136.8 188.64 
L 136.8 59.04 
L 7.2 59.04 
z
" style="fill: #ffffff"/>
   </g>
   <g id="patch_3">
    <path d="M 128.347826 180.187826 
L 128.347826 67.492174 
L 15.652174 67.492174 
L 15.652174 180.187826 
z
" clip-path="url(#p7c0282aa68)" style="fill: #dbeafe; opacity: 0.9; stroke: #0f172a; stroke-width: 1.5; stroke-linejoin: miter"/>
   </g>
   <g id="patch_4">
    <path d="M 14.525217 181.314783 
L 129.474783 181.314783 
L 129.474783 66.365217 
L 14.525217 66.365217 
L 14.525217 181.314783 
z
" clip-path="url(#p7c0282aa68)" style="fill: none; stroke: #94a3b8; stroke-linejoin: miter"/>
   </g>
   <g id="matplotlib.axis_1"/>
   <g id="matplotlib.axis_2"/>
   <g id="text_1">
    <!-- dense fill -->
    <g style="fill: #334155" transform="translate(52.096875 210.878625) scale(0.088 -0.088)">
     <defs>
      <path id="DejaVuSans-64" d="M 2906 2969 
L 2906 4863 
L 3481 4863 
L 3481 0 
L 2906 0 
L 2906 525 
Q 2725 213 2448 61 
Q 2172 -91 1784 -91 
Q 1150 -91 751 415 
Q 353 922 353 1747 
Q 353 2572 751 3078 
Q 1150 3584 1784 3584 
Q 2172 3584 2448 3432 
Q 2725 3281 2906 2969 
z
M 947 1747 
Q 947 1113 1208 752 
Q 1469 391 1925 391 
Q 2381 391 2643 752 
Q 2906 1113 2906 1747 
Q 2906 2381 2643 2742 
Q 2381 3103 1925 3103 
Q 1469 3103 1208 2742 
Q 947 2381 947 1747 
z
" transform="scale(0.015625)"/>
      <path id="DejaVuSans-65" d="M 3597 1894 
L 3597 1613 
L 953 1613 
Q 991 1019 1311 708 
Q 1631 397 2203 397 
Q 2534 397 2845 478 
Q 3156 559 3463 722 
L 3463 178 
Q 3153 47 2828 -22 
Q 2503 -91 2169 -91 
Q 1331 -91 842 396 
Q 353 884 353 1716 
Q 353 2575 817 3079 
Q 1281 3584 2069 3584 
Q 2775 3584 3186 3129 
Q 3597 2675 3597 1894 
z
M 3022 2063 
Q 3016 2534 2758 2815 
Q 2500 3097 2075 3097 
Q 1594 3097 1305 2825 
Q 1016 2553 972 2059 
L 3022 2063 
z
" transform="scale(0.015625)"/>
      <path id="DejaVuSans-6e" d="M 3513 2113 
L 3513 0 
L 2938 0 
L 2938 2094 
Q 2938 2591 2744 2837 
Q 2550 3084 2163 3084 
Q 1697 3084 1428 2787 
Q 1159 2491 1159 1978 
L 1159 0 
L 581 0 
L 581 3500 
L 1159 3500 
L 1159 2956 
Q 1366 3272 1645 3428 
Q 1925 3584 2291 3584 
Q 2894 3584 3203 3211 
Q 3513 2838 3513 2113 
z
" transform="scale(0.015625)"/>
      <path id="DejaVuSans-73" d="M 2834 3397 
L 2834 2853 
Q 2591 2978 2328 3040 
Q 2066 3103 1784 3103 
Q 1356 3103 1142 2972 
Q 928 2841 928 2578 
Q 928 2378 1081 2264 
Q 1234 2150 1697 2047 
L 1894 2003 
Q 2506 1872 2764 1633 
Q 3022 1394 3022 966 
Q 3022 478 2636 193 
Q 2250 -91 1575 -91 
Q 1294 -91 989 -36 
Q 684 19 347 128 
L 347 722 
Q 666 556 975 473 
Q 1284 391 1588 391 
Q 1994 391 2212 530 
Q 2431 669 2431 922 
Q 2431 1156 2273 1281 
Q 2116 1406 1581 1522 
L 1381 1569 
Q 847 1681 609 1914 
Q 372 2147 372 2553 
Q 372 3047 722 3315 
Q 1072 3584 1716 3584 
Q 2034 3584 2315 3537 
Q 2597 3491 2834 3397 
z
" transform="scale(0.015625)"/>
      <path id="DejaVuSans-20" transform="scale(0.015625)"/>
      <path id="DejaVuSans-66" d="M 2375 4863 
L 2375 4384 
L 1825 4384 
Q 1516 4384 1395 4259 
Q 1275 4134 1275 3809 
L 1275 3500 
L 2222 3500 
L 2222 3053 
L 1275 3053 
L 1275 0 
L 697 0 
L 697 3053 
L 147 3053 
L 147 3500 
L 697 3500 
L 697 3744 
Q 697 4328 969 4595 
Q 1241 4863 1831 4863 
L 2375 4863 
z
" transform="scale(0.015625)"/>
      <path id="DejaVuSans-69" d="M 603 3500 
L 1178 3500 
L 1178 0 
L 603 0 
L 603 3500 
z
M 603 4863 
L 1178 4863 
L 1178 4134 
L 603 4134 
L 603 4863 
z
" transform="scale(0.015625)"/>
      <path id="DejaVuSans-6c" d="M 603 4863 
L 1178 4863 
L 1178 0 
L 603 0 
L 603 4863 
z
" transform="scale(0.015625)"/>
     </defs>
     <use xlink:href="#DejaVuSans-64"/>
     <use xlink:href="#DejaVuSans-65" transform="translate(63.476562 0)"/>
     <use xlink:href="#DejaVuSans-6e" transform="translate(125 0)"/>
     <use xlink:href="#DejaVuSans-73" transform="translate(188.378906 0)"/>
     <use xlink:href="#DejaVuSans-65" transform="translate(240.478516 0)"/>
     <use xlink:href="#DejaVuSans-20" transform="translate(302.001953 0)"/>
     <use xlink:href="#DejaVuSans-66" transform="translate(333.789062 0)"/>
     <use xlink:href="#DejaVuSans-69" transform="translate(368.994141 0)"/>
     <use xlink:href="#DejaVuSans-6c" transform="translate(396.777344 0)"/>
     <use xlink:href="#DejaVuSans-6c" transform="translate(424.560547 0)"/>
    </g>
   </g>
   <g id="text_2">
    <!-- Square -->
    <g transform="translate(50.032656 53.04) scale(0.11 -0.11)">
     <defs>
      <path id="DejaVuSans-Bold-53" d="M 3834 4519 
L 3834 3531 
Q 3450 3703 3084 3790 
Q 2719 3878 2394 3878 
Q 1963 3878 1756 3759 
Q 1550 3641 1550 3391 
Q 1550 3203 1689 3098 
Q 1828 2994 2194 2919 
L 2706 2816 
Q 3484 2659 3812 2340 
Q 4141 2022 4141 1434 
Q 4141 663 3683 286 
Q 3225 -91 2284 -91 
Q 1841 -91 1394 -6 
Q 947 78 500 244 
L 500 1259 
Q 947 1022 1364 901 
Q 1781 781 2169 781 
Q 2563 781 2772 912 
Q 2981 1044 2981 1288 
Q 2981 1506 2839 1625 
Q 2697 1744 2272 1838 
L 1806 1941 
Q 1106 2091 782 2419 
Q 459 2747 459 3303 
Q 459 4000 909 4375 
Q 1359 4750 2203 4750 
Q 2588 4750 2994 4692 
Q 3400 4634 3834 4519 
z
" transform="scale(0.015625)"/>
      <path id="DejaVuSans-Bold-71" d="M 2181 2772 
Q 1825 2772 1636 2509 
Q 1447 2247 1447 1747 
Q 1447 1247 1636 984 
Q 1825 722 2181 722 
Q 2541 722 2730 984 
Q 2919 1247 2919 1747 
Q 2919 2247 2730 2509 
Q 2541 2772 2181 2772 
z
M 2919 506 
Q 2688 197 2409 53 
Q 2131 -91 1766 -91 
Q 1119 -91 703 423 
Q 288 938 288 1747 
Q 288 2556 703 3067 
Q 1119 3578 1766 3578 
Q 2131 3578 2409 3434 
Q 2688 3291 2919 2981 
L 2919 3500 
L 4044 3500 
L 4044 -1331 
L 2919 -1331 
L 2919 506 
z
" transform="scale(0.015625)"/>
      <path id="DejaVuSans-Bold-75" d="M 500 1363 
L 500 3500 
L 1625 3500 
L 1625 3150 
Q 1625 2866 1622 2436 
Q 1619 2006 1619 1863 
Q 1619 1441 1641 1255 
Q 1663 1069 1716 984 
Q 1784 875 1895 815 
Q 2006 756 2150 756 
Q 2500 756 2700 1025 
Q 2900 1294 2900 1772 
L 2900 3500 
L 4019 3500 
L 4019 0 
L 2900 0 
L 2900 506 
Q 2647 200 2364 54 
Q 2081 -91 1741 -91 
Q 1134 -91 817 281 
Q 500 653 500 1363 
z
" transform="scale(0.015625)"/>
      <path id="DejaVuSans-Bold-61" d="M 2106 1575 
Q 1756 1575 1579 1456 
Q 1403 1338 1403 1106 
Q 1403 894 1545 773 
Q 1688 653 1941 653 
Q 2256 653 2472 879 
Q 2688 1106 2688 1447 
L 2688 1575 
L 2106 1575 
z
M 3816 1997 
L 3816 0 
L 2688 0 
L 2688 519 
Q 2463 200 2181 54 
Q 1900 -91 1497 -91 
Q 953 -91 614 226 
Q 275 544 275 1050 
Q 275 1666 698 1953 
Q 1122 2241 2028 2241 
L 2688 2241 
L 2688 2328 
Q 2688 2594 2478 2717 
Q 2269 2841 1825 2841 
Q 1466 2841 1156 2769 
Q 847 2697 581 2553 
L 581 3406 
Q 941 3494 1303 3539 
Q 1666 3584 2028 3584 
Q 2975 3584 3395 3211 
Q 3816 2838 3816 1997 
z
" transform="scale(0.015625)"/>
      <path id="DejaVuSans-Bold-72" d="M 3138 2547 
Q 2991 2616 2845 2648 
Q 2700 2681 2553 2681 
Q 2122 2681 1889 2404 
Q 1656 2128 1656 1613 
L 1656 0 
L 538 0 
L 538 3500 
L 1656 3500 
L 1656 2925 
Q 1872 3269 2151 3426 
Q 2431 3584 2822 3584 
Q 2878 3584 2943 3579 
Q 3009 3575 3134 3559 
L 3138 2547 
z
" transform="scale(0.015625)"/>
      <path id="DejaVuSans-Bold-65" d="M 4031 1759 
L 4031 1441 
L 1416 1441 
Q 1456 1047 1700 850 
Q 1944 653 2381 653 
Q 2734 653 3104 758 
Q 3475 863 3866 1075 
L 3866 213 
Q 3469 63 3072 -14 
Q 2675 -91 2278 -91 
Q 1328 -91 801 392 
Q 275 875 275 1747 
Q 275 2603 792 3093 
Q 1309 3584 2216 3584 
Q 3041 3584 3536 3087 
Q 4031 2591 4031 1759 
z
M 2881 2131 
Q 2881 2450 2695 2645 
Q 2509 2841 2209 2841 
Q 1884 2841 1681 2658 
Q 1478 2475 1428 2131 
L 2881 2131 
z
" transform="scale(0.015625)"/>
     </defs>
     <use xlink:href="#DejaVuSans-Bold-53"/>
     <use xlink:href="#DejaVuSans-Bold-71" transform="translate(72.021484 0)"/>
     <use xlink:href="#DejaVuSans-Bold-75" transform="translate(143.603516 0)"/>
     <use xlink:href="#DejaVuSans-Bold-61" transform="translate(214.794922 0)"/>
     <use xlink:href="#DejaVuSans-Bold-72" transform="translate(282.275391 0)"/>
     <use xlink:href="#DejaVuSans-Bold-65" transform="translate(331.591797 0)"/>
    </g>
   </g>
  </g>
  <g id="axes_2">
   <g id="patch_5">
    <path d="M 199.696783 188.64 
L 329.296783 188.64 
L 329.296783 59.04 
L 199.696783 59.04 
z
" style="fill: #ffffff"/>
   </g>
   <g id="patch_6">
    <path d="M 320.844609 123.84 
L 320.81444 125.683649 
L 320.723964 127.525324 
L 320.573279 129.363053 
L 320.362546 131.194867 
L 320.09199 133.018806 
L 319.761902 134.832916 
L 319.372634 136.635254 
L 318.924604 138.423891 
L 318.418291 140.196911 
L 317.854237 141.952415 
L 317.233048 143.688524 
L 316.555386 145.403379 
L 315.82198 147.095144 
L 315.033612 148.762006 
L 314.191129 150.402181 
L 313.295432 152.013913 
L 312.34748 153.595475 
L 311.348288 155.145175 
L 310.298927 156.661352 
L 309.200519 158.142383 
L 308.054242 159.586682 
L 306.861322 160.992703 
L 305.623037 162.35894 
L 304.340713 163.68393 
L 303.015723 164.966254 
L 301.649487 166.204539 
L 300.243466 167.397459 
L 298.799166 168.543736 
L 297.318135 169.642144 
L 295.801958 170.691505 
L 294.252259 171.690697 
L 292.670696 172.638649 
L 291.058965 173.534346 
L 289.418789 174.376829 
L 287.751927 175.165196 
L 286.060163 175.898603 
L 284.345308 176.576264 
L 282.609198 177.197454 
L 280.853694 177.761508 
L 279.080674 178.26782 
L 277.292037 178.715851 
L 275.489699 179.105118 
L 273.675589 179.435207 
L 271.85165 179.705763 
L 270.019836 179.916496 
L 268.182107 180.067181 
L 266.340432 180.157657 
L 264.496783 180.187826 
L 262.653134 180.157657 
L 260.811459 180.067181 
L 258.97373 179.916496 
L 257.141916 179.705763 
L 255.317977 179.435207 
L 253.503868 179.105118 
L 251.701529 178.715851 
L 249.912893 178.26782 
L 248.139873 177.761508 
L 246.384368 177.197454 
L 244.648259 176.576264 
L 242.933404 175.898603 
L 241.241639 175.165196 
L 239.574777 174.376829 
L 237.934602 173.534346 
L 236.32287 172.638649 
L 234.741308 171.690697 
L 233.191608 170.691505 
L 231.675431 169.642144 
L 230.1944 168.543736 
L 228.750101 167.397459 
L 227.34408 166.204539 
L 225.977843 164.966254 
L 224.652853 163.68393 
L 223.370529 162.35894 
L 222.132244 160.992703 
L 220.939325 159.586682 
L 219.793047 158.142383 
L 218.69464 156.661352 
L 217.645278 155.145175 
L 216.646086 153.595475 
L 215.698134 152.013913 
L 214.802437 150.402181 
L 213.959954 148.762006 
L 213.171587 147.095144 
L 212.43818 145.403379 
L 211.760519 143.688524 
L 211.139329 141.952415 
L 210.575276 140.196911 
L 210.068963 138.423891 
L 209.620933 136.635254 
L 209.231665 134.832916 
L 208.901576 133.018806 
L 208.631021 131.194867 
L 208.420287 129.363053 
L 208.269602 127.525324 
L 208.179126 125.683649 
L 208.148957 123.84 
L 208.179126 121.996351 
L 208.269602 120.154676 
L 208.420287 118.316947 
L 208.631021 116.485133 
L 208.901576 114.661194 
L 209.231665 112.847084 
L 209.620933 111.044746 
L 210.068963 109.256109 
L 210.575276 107.483089 
L 211.139329 105.727585 
L 211.760519 103.991476 
L 212.43818 102.276621 
L 213.171587 100.584856 
L 213.959954 98.917994 
L 214.802437 97.277819 
L 215.698134 95.666087 
L 216.646086 94.084525 
L 217.645278 92.534825 
L 218.69464 91.018648 
L 219.793047 89.537617 
L 220.939325 88.093318 
L 222.132244 86.687297 
L 223.370529 85.32106 
L 224.652853 83.99607 
L 225.977843 82.713746 
L 227.34408 81.475461 
L 228.750101 80.282541 
L 230.1944 79.136264 
L 231.675431 78.037856 
L 233.191608 76.988495 
L 234.741308 75.989303 
L 236.32287 75.041351 
L 237.934602 74.145654 
L 239.574777 73.303171 
L 241.241639 72.514804 
L 242.933404 71.781397 
L 244.648259 71.103736 
L 246.384368 70.482546 
L 248.139873 69.918492 
L 249.912893 69.41218 
L 251.701529 68.964149 
L 253.503868 68.574882 
L 255.317977 68.244793 
L 257.141916 67.974237 
L 258.97373 67.763504 
L 260.811459 67.612819 
L 262.653134 67.522343 
L 264.496783 67.492174 
L 266.340432 67.522343 
L 268.182107 67.612819 
L 270.019836 67.763504 
L 271.85165 67.974237 
L 273.675589 68.244793 
L 275.489699 68.574882 
L 277.292037 68.964149 
L 279.080674 69.41218 
L 280.853694 69.918492 
L 282.609198 70.482546 
L 284.345308 71.103736 
L 286.060163 71.781397 
L 287.751927 72.514804 
L 289.418789 73.303171 
L 291.058965 74.145654 
L 292.670696 75.041351 
L 294.252259 75.989303 
L 295.801958 76.988495 
L 297.318135 78.037856 
L 298.799166 79.136264 
L 300.243466 80.282541 
L 301.649487 81.475461 
L 303.015723 82.713746 
L 304.340713 83.99607 
L 305.623037 85.32106 
L 306.861322 86.687297 
L 308.054242 88.093318 
L 309.200519 89.537617 
L 310.298927 91.018648 
L 311.348288 92.534825 
L 312.34748 94.084525 
L 313.295432 95.666087 
L 314.191129 97.277819 
L 315.033612 98.917994 
L 315.82198 100.584856 
L 316.555386 102.276621 
L 317.233048 103.991476 
L 317.854237 105.727585 
L 318.418291 107.483089 
L 318.924604 109.256109 
L 319.372634 111.044746 
L 319.761902 112.847084 
L 320.09199 114.661194 
L 320.362546 116.485133 
L 320.573279 118.316947 
L 320.723964 120.154676 
L 320.81444 121.996351 
z
" clip-path="url(#padbd5e82bf)" style="fill: #e0f2fe; opacity: 0.9; stroke: #0f172a; stroke-width: 1.5; stroke-linejoin: miter"/>
   </g>
   <g id="patch_7">
    <path d="M 207.022001 181.314783 
L 321.971566 181.314783 
L 321.971566 66.365217 
L 207.022001 66.365217 
L 207.022001 181.314783 
z
" clip-path="url(#padbd5e82bf)" style="fill: none; stroke: #94a3b8; stroke-linejoin: miter"/>
   </g>
   <g id="matplotlib.axis_3"/>
   <g id="matplotlib.axis_4"/>
   <g id="text_3">
    <!-- smooth boundary -->
    <g style="fill: #334155" transform="translate(225.657158 210.878625) scale(0.088 -0.088)">
     <defs>
      <path id="DejaVuSans-6d" d="M 3328 2828 
Q 3544 3216 3844 3400 
Q 4144 3584 4550 3584 
Q 5097 3584 5394 3201 
Q 5691 2819 5691 2113 
L 5691 0 
L 5113 0 
L 5113 2094 
Q 5113 2597 4934 2840 
Q 4756 3084 4391 3084 
Q 3944 3084 3684 2787 
Q 3425 2491 3425 1978 
L 3425 0 
L 2847 0 
L 2847 2094 
Q 2847 2600 2669 2842 
Q 2491 3084 2119 3084 
Q 1678 3084 1418 2786 
Q 1159 2488 1159 1978 
L 1159 0 
L 581 0 
L 581 3500 
L 1159 3500 
L 1159 2956 
Q 1356 3278 1631 3431 
Q 1906 3584 2284 3584 
Q 2666 3584 2933 3390 
Q 3200 3197 3328 2828 
z
" transform="scale(0.015625)"/>
      <path id="DejaVuSans-6f" d="M 1959 3097 
Q 1497 3097 1228 2736 
Q 959 2375 959 1747 
Q 959 1119 1226 758 
Q 1494 397 1959 397 
Q 2419 397 2687 759 
Q 2956 1122 2956 1747 
Q 2956 2369 2687 2733 
Q 2419 3097 1959 3097 
z
M 1959 3584 
Q 2709 3584 3137 3096 
Q 3566 2609 3566 1747 
Q 3566 888 3137 398 
Q 2709 -91 1959 -91 
Q 1206 -91 779 398 
Q 353 888 353 1747 
Q 353 2609 779 3096 
Q 1206 3584 1959 3584 
z
" transform="scale(0.015625)"/>
      <path id="DejaVuSans-74" d="M 1172 4494 
L 1172 3500 
L 2356 3500 
L 2356 3053 
L 1172 3053 
L 1172 1153 
Q 1172 725 1289 603 
Q 1406 481 1766 481 
L 2356 481 
L 2356 0 
L 1766 0 
Q 1100 0 847 248 
Q 594 497 594 1153 
L 594 3053 
L 172 3053 
L 172 3500 
L 594 3500 
L 594 4494 
L 1172 4494 
z
" transform="scale(0.015625)"/>
      <path id="DejaVuSans-68" d="M 3513 2113 
L 3513 0 
L 2938 0 
L 2938 2094 
Q 2938 2591 2744 2837 
Q 2550 3084 2163 3084 
Q 1697 3084 1428 2787 
Q 1159 2491 1159 1978 
L 1159 0 
L 581 0 
L 581 4863 
L 1159 4863 
L 1159 2956 
Q 1366 3272 1645 3428 
Q 1925 3584 2291 3584 
Q 2894 3584 3203 3211 
Q 3513 2838 3513 2113 
z
" transform="scale(0.015625)"/>
      <path id="DejaVuSans-62" d="M 3116 1747 
Q 3116 2381 2855 2742 
Q 2594 3103 2138 3103 
Q 1681 3103 1420 2742 
Q 1159 2381 1159 1747 
Q 1159 1113 1420 752 
Q 1681 391 2138 391 
Q 2594 391 2855 752 
Q 3116 1113 3116 1747 
z
M 1159 2969 
Q 1341 3281 1617 3432 
Q 1894 3584 2278 3584 
Q 2916 3584 3314 3078 
Q 3713 2572 3713 1747 
Q 3713 922 3314 415 
Q 2916 -91 2278 -91 
Q 1894 -91 1617 61 
Q 1341 213 1159 525 
L 1159 0 
L 581 0 
L 581 4863 
L 1159 4863 
L 1159 2969 
z
" transform="scale(0.015625)"/>
      <path id="DejaVuSans-75" d="M 544 1381 
L 544 3500 
L 1119 3500 
L 1119 1403 
Q 1119 906 1312 657 
Q 1506 409 1894 409 
Q 2359 409 2629 706 
Q 2900 1003 2900 1516 
L 2900 3500 
L 3475 3500 
L 3475 0 
L 2900 0 
L 2900 538 
Q 2691 219 2414 64 
Q 2138 -91 1772 -91 
Q 1169 -91 856 284 
Q 544 659 544 1381 
z
M 1991 3584 
L 1991 3584 
z
" transform="scale(0.015625)"/>
      <path id="DejaVuSans-61" d="M 2194 1759 
Q 1497 1759 1228 1600 
Q 959 1441 959 1056 
Q 959 750 1161 570 
Q 1363 391 1709 391 
Q 2188 391 2477 730 
Q 2766 1069 2766 1631 
L 2766 1759 
L 2194 1759 
z
M 3341 1997 
L 3341 0 
L 2766 0 
L 2766 531 
Q 2569 213 2275 61 
Q 1981 -91 1556 -91 
Q 1019 -91 701 211 
Q 384 513 384 1019 
Q 384 1609 779 1909 
Q 1175 2209 1959 2209 
L 2766 2209 
L 2766 2266 
Q 2766 2663 2505 2880 
Q 2244 3097 1772 3097 
Q 1472 3097 1187 3025 
Q 903 2953 641 2809 
L 641 3341 
Q 956 3463 1253 3523 
Q 1550 3584 1831 3584 
Q 2591 3584 2966 3190 
Q 3341 2797 3341 1997 
z
" transform="scale(0.015625)"/>
      <path id="DejaVuSans-72" d="M 2631 2963 
Q 2534 3019 2420 3045 
Q 2306 3072 2169 3072 
Q 1681 3072 1420 2755 
Q 1159 2438 1159 1844 
L 1159 0 
L 581 0 
L 581 3500 
L 1159 3500 
L 1159 2956 
Q 1341 3275 1631 3429 
Q 1922 3584 2338 3584 
Q 2397 3584 2469 3576 
Q 2541 3569 2628 3553 
L 2631 2963 
z
" transform="scale(0.015625)"/>
      <path id="DejaVuSans-79" d="M 2059 -325 
Q 1816 -950 1584 -1140 
Q 1353 -1331 966 -1331 
L 506 -1331 
L 506 -850 
L 844 -850 
Q 1081 -850 1212 -737 
Q 1344 -625 1503 -206 
L 1606 56 
L 191 3500 
L 800 3500 
L 1894 763 
L 2988 3500 
L 3597 3500 
L 2059 -325 
z
" transform="scale(0.015625)"/>
     </defs>
     <use xlink:href="#DejaVuSans-73"/>
     <use xlink:href="#DejaVuSans-6d" transform="translate(52.099609 0)"/>
     <use xlink:href="#DejaVuSans-6f" transform="translate(149.511719 0)"/>
     <use xlink:href="#DejaVuSans-6f" transform="translate(210.693359 0)"/>
     <use xlink:href="#DejaVuSans-74" transform="translate(271.875 0)"/>
     <use xlink:href="#DejaVuSans-68" transform="translate(311.083984 0)"/>
     <use xlink:href="#DejaVuSans-20" transform="translate(374.462891 0)"/>
     <use xlink:href="#DejaVuSans-62" transform="translate(406.25 0)"/>
     <use xlink:href="#DejaVuSans-6f" transform="translate(469.726562 0)"/>
     <use xlink:href="#DejaVuSans-75" transform="translate(530.908203 0)"/>
     <use xlink:href="#DejaVuSans-6e" transform="translate(594.287109 0)"/>
     <use xlink:href="#DejaVuSans-64" transform="translate(657.666016 0)"/>
     <use xlink:href="#DejaVuSans-61" transform="translate(721.142578 0)"/>
     <use xlink:href="#DejaVuSans-72" transform="translate(782.421875 0)"/>
     <use xlink:href="#DejaVuSans-79" transform="translate(823.535156 0)"/>
    </g>
   </g>
   <g id="text_4">
    <!-- Disk -->
    <g transform="translate(251.114596 53.04) scale(0.11 -0.11)">
     <defs>
      <path id="DejaVuSans-Bold-44" d="M 1791 3756 
L 1791 909 
L 2222 909 
Q 2959 909 3348 1275 
Q 3738 1641 3738 2338 
Q 3738 3031 3350 3393 
Q 2963 3756 2222 3756 
L 1791 3756 
z
M 588 4666 
L 1856 4666 
Q 2919 4666 3439 4514 
Q 3959 4363 4331 4000 
Q 4659 3684 4818 3271 
Q 4978 2859 4978 2338 
Q 4978 1809 4818 1395 
Q 4659 981 4331 666 
Q 3956 303 3431 151 
Q 2906 0 1856 0 
L 588 0 
L 588 4666 
z
" transform="scale(0.015625)"/>
      <path id="DejaVuSans-Bold-69" d="M 538 3500 
L 1656 3500 
L 1656 0 
L 538 0 
L 538 3500 
z
M 538 4863 
L 1656 4863 
L 1656 3950 
L 538 3950 
L 538 4863 
z
" transform="scale(0.015625)"/>
      <path id="DejaVuSans-Bold-73" d="M 3272 3391 
L 3272 2541 
Q 2913 2691 2578 2766 
Q 2244 2841 1947 2841 
Q 1628 2841 1473 2761 
Q 1319 2681 1319 2516 
Q 1319 2381 1436 2309 
Q 1553 2238 1856 2203 
L 2053 2175 
Q 2913 2066 3209 1816 
Q 3506 1566 3506 1031 
Q 3506 472 3093 190 
Q 2681 -91 1863 -91 
Q 1516 -91 1145 -36 
Q 775 19 384 128 
L 384 978 
Q 719 816 1070 734 
Q 1422 653 1784 653 
Q 2113 653 2278 743 
Q 2444 834 2444 1013 
Q 2444 1163 2330 1236 
Q 2216 1309 1875 1350 
L 1678 1375 
Q 931 1469 631 1722 
Q 331 1975 331 2491 
Q 331 3047 712 3315 
Q 1094 3584 1881 3584 
Q 2191 3584 2531 3537 
Q 2872 3491 3272 3391 
z
" transform="scale(0.015625)"/>
      <path id="DejaVuSans-Bold-6b" d="M 538 4863 
L 1656 4863 
L 1656 2216 
L 2944 3500 
L 4244 3500 
L 2534 1894 
L 4378 0 
L 3022 0 
L 1656 1459 
L 1656 0 
L 538 0 
L 538 4863 
z
" transform="scale(0.015625)"/>
     </defs>
     <use xlink:href="#DejaVuSans-Bold-44"/>
     <use xlink:href="#DejaVuSans-Bold-69" transform="translate(83.007812 0)"/>
     <use xlink:href="#DejaVuSans-Bold-73" transform="translate(117.285156 0)"/>
     <use xlink:href="#DejaVuSans-Bold-6b" transform="translate(176.806641 0)"/>
    </g>
   </g>
  </g>
  <g id="axes_3">
   <g id="patch_8">
    <path d="M 392.193566 188.64 
L 521.793566 188.64 
L 521.793566 59.04 
L 392.193566 59.04 
z
" style="fill: #ffffff"/>
   </g>
   <g id="patch_9">
    <path d="M 536.681426 123.84 
L 456.993566 44.15214 
L 377.305707 123.84 
L 456.993566 203.52786 
z
" clip-path="url(#p21863e8f13)" style="fill: #fef3c7; opacity: 0.9; stroke: #0f172a; stroke-width: 1.5; stroke-linejoin: miter"/>
   </g>
   <g id="patch_10">
    <path d="M 399.518784 181.314783 
L 514.468349 181.314783 
L 514.468349 66.365217 
L 399.518784 66.365217 
L 399.518784 181.314783 
z
" clip-path="url(#p21863e8f13)" style="fill: none; stroke: #94a3b8; stroke-linejoin: miter"/>
   </g>
   <g id="matplotlib.axis_5"/>
   <g id="matplotlib.axis_6"/>
   <g id="text_5">
    <!-- diagonal edges -->
    <g style="fill: #334155" transform="translate(423.396816 210.878625) scale(0.088 -0.088)">
     <defs>
      <path id="DejaVuSans-67" d="M 2906 1791 
Q 2906 2416 2648 2759 
Q 2391 3103 1925 3103 
Q 1463 3103 1205 2759 
Q 947 2416 947 1791 
Q 947 1169 1205 825 
Q 1463 481 1925 481 
Q 2391 481 2648 825 
Q 2906 1169 2906 1791 
z
M 3481 434 
Q 3481 -459 3084 -895 
Q 2688 -1331 1869 -1331 
Q 1566 -1331 1297 -1286 
Q 1028 -1241 775 -1147 
L 775 -588 
Q 1028 -725 1275 -790 
Q 1522 -856 1778 -856 
Q 2344 -856 2625 -561 
Q 2906 -266 2906 331 
L 2906 616 
Q 2728 306 2450 153 
Q 2172 0 1784 0 
Q 1141 0 747 490 
Q 353 981 353 1791 
Q 353 2603 747 3093 
Q 1141 3584 1784 3584 
Q 2172 3584 2450 3431 
Q 2728 3278 2906 2969 
L 2906 3500 
L 3481 3500 
L 3481 434 
z
" transform="scale(0.015625)"/>
     </defs>
     <use xlink:href="#DejaVuSans-64"/>
     <use xlink:href="#DejaVuSans-69" transform="translate(63.476562 0)"/>
     <use xlink:href="#DejaVuSans-61" transform="translate(91.259766 0)"/>
     <use xlink:href="#DejaVuSans-67" transform="translate(152.539062 0)"/>
     <use xlink:href="#DejaVuSans-6f" transform="translate(216.015625 0)"/>
     <use xlink:href="#DejaVuSans-6e" transform="translate(277.197266 0)"/>
     <use xlink:href="#DejaVuSans-61" transform="translate(340.576172 0)"/>
     <use xlink:href="#DejaVuSans-6c" transform="translate(401.855469 0)"/>
     <use xlink:href="#DejaVuSans-20" transform="translate(429.638672 0)"/>
     <use xlink:href="#DejaVuSans-65" transform="translate(461.425781 0)"/>
     <use xlink:href="#DejaVuSans-64" transform="translate(522.949219 0)"/>
     <use xlink:href="#DejaVuSans-67" transform="translate(586.425781 0)"/>
     <use xlink:href="#DejaVuSans-65" transform="translate(649.902344 0)"/>
     <use xlink:href="#DejaVuSans-73" transform="translate(711.425781 0)"/>
    </g>
   </g>
   <g id="text_6">
    <!-- Diamond -->
    <g transform="translate(429.468645 53.04) scale(0.11 -0.11)">
     <defs>
      <path id="DejaVuSans-Bold-6d" d="M 3781 2919 
Q 3994 3244 4286 3414 
Q 4578 3584 4928 3584 
Q 5531 3584 5847 3212 
Q 6163 2841 6163 2131 
L 6163 0 
L 5038 0 
L 5038 1825 
Q 5041 1866 5042 1909 
Q 5044 1953 5044 2034 
Q 5044 2406 4934 2573 
Q 4825 2741 4581 2741 
Q 4263 2741 4089 2478 
Q 3916 2216 3909 1719 
L 3909 0 
L 2784 0 
L 2784 1825 
Q 2784 2406 2684 2573 
Q 2584 2741 2328 2741 
Q 2006 2741 1831 2477 
Q 1656 2213 1656 1722 
L 1656 0 
L 531 0 
L 531 3500 
L 1656 3500 
L 1656 2988 
Q 1863 3284 2130 3434 
Q 2397 3584 2719 3584 
Q 3081 3584 3359 3409 
Q 3638 3234 3781 2919 
z
" transform="scale(0.015625)"/>
      <path id="DejaVuSans-Bold-6f" d="M 2203 2784 
Q 1831 2784 1636 2517 
Q 1441 2250 1441 1747 
Q 1441 1244 1636 976 
Q 1831 709 2203 709 
Q 2569 709 2762 976 
Q 2956 1244 2956 1747 
Q 2956 2250 2762 2517 
Q 2569 2784 2203 2784 
z
M 2203 3584 
Q 3106 3584 3614 3096 
Q 4122 2609 4122 1747 
Q 4122 884 3614 396 
Q 3106 -91 2203 -91 
Q 1297 -91 786 396 
Q 275 884 275 1747 
Q 275 2609 786 3096 
Q 1297 3584 2203 3584 
z
" transform="scale(0.015625)"/>
      <path id="DejaVuSans-Bold-6e" d="M 4056 2131 
L 4056 0 
L 2931 0 
L 2931 347 
L 2931 1631 
Q 2931 2084 2911 2256 
Q 2891 2428 2841 2509 
Q 2775 2619 2662 2680 
Q 2550 2741 2406 2741 
Q 2056 2741 1856 2470 
Q 1656 2200 1656 1722 
L 1656 0 
L 538 0 
L 538 3500 
L 1656 3500 
L 1656 2988 
Q 1909 3294 2193 3439 
Q 2478 3584 2822 3584 
Q 3428 3584 3742 3212 
Q 4056 2841 4056 2131 
z
" transform="scale(0.015625)"/>
      <path id="DejaVuSans-Bold-64" d="M 2919 2988 
L 2919 4863 
L 4044 4863 
L 4044 0 
L 2919 0 
L 2919 506 
Q 2688 197 2409 53 
Q 2131 -91 1766 -91 
Q 1119 -91 703 423 
Q 288 938 288 1747 
Q 288 2556 703 3070 
Q 1119 3584 1766 3584 
Q 2128 3584 2408 3439 
Q 2688 3294 2919 2988 
z
M 2181 722 
Q 2541 722 2730 984 
Q 2919 1247 2919 1747 
Q 2919 2247 2730 2509 
Q 2541 2772 2181 2772 
Q 1825 2772 1636 2509 
Q 1447 2247 1447 1747 
Q 1447 1247 1636 984 
Q 1825 722 2181 722 
z
" transform="scale(0.015625)"/>
     </defs>
     <use xlink:href="#DejaVuSans-Bold-44"/>
     <use xlink:href="#DejaVuSans-Bold-69" transform="translate(83.007812 0)"/>
     <use xlink:href="#DejaVuSans-Bold-61" transform="translate(117.285156 0)"/>
     <use xlink:href="#DejaVuSans-Bold-6d" transform="translate(184.765625 0)"/>
     <use xlink:href="#DejaVuSans-Bold-6f" transform="translate(288.964844 0)"/>
     <use xlink:href="#DejaVuSans-Bold-6e" transform="translate(357.666016 0)"/>
     <use xlink:href="#DejaVuSans-Bold-64" transform="translate(428.857422 0)"/>
    </g>
   </g>
  </g>
  <g id="axes_4">
   <g id="patch_11">
    <path d="M 584.69035 188.64 
L 714.29035 188.64 
L 714.29035 59.04 
L 584.69035 59.04 
z
" style="fill: #ffffff"/>
   </g>
   <g id="patch_12">
    <path d="M 705.808006 125.683649 
L 705.717531 127.525324 
L 705.566846 129.363053 
L 705.356112 131.194867 
L 705.085557 133.018806 
L 704.755468 134.832916 
L 704.3662 136.635254 
L 703.91817 138.423891 
L 703.411857 140.196911 
L 702.847804 141.952415 
L 702.226614 143.688524 
L 701.548953 145.403379 
L 700.815546 147.095144 
L 700.027179 148.762006 
L 699.184696 150.402181 
L 698.288998 152.013913 
L 697.341046 153.595475 
L 696.341855 155.145175 
L 695.292493 156.661352 
L 694.194086 158.142383 
L 693.047808 159.586682 
L 691.854888 160.992703 
L 690.616603 162.35894 
L 689.33428 163.68393 
L 688.00929 164.966254 
L 686.643053 166.204539 
L 685.237032 167.397459 
L 683.792733 168.543736 
L 682.311702 169.642144 
L 680.795525 170.691505 
L 679.245825 171.690697 
L 677.664263 172.638649 
L 676.052531 173.534346 
L 674.412356 174.376829 
L 672.745494 175.165196 
L 671.053729 175.898603 
L 669.338874 176.576264 
L 667.602765 177.197454 
L 665.84726 177.761508 
L 664.07424 178.26782 
L 662.285603 178.715851 
L 660.483265 179.105118 
L 658.669155 179.435207 
L 656.845217 179.705763 
L 655.013402 179.916496 
L 653.175674 180.067181 
L 651.333999 180.157657 
L 649.49035 180.187826 
L 647.6467 180.157657 
L 645.805025 180.067181 
L 643.967297 179.916496 
L 642.135482 179.705763 
L 640.311544 179.435207 
L 638.497434 179.105118 
L 636.695096 178.715851 
L 634.906459 178.26782 
L 633.133439 177.761508 
L 631.377935 177.197454 
L 629.641825 176.576264 
L 627.92697 175.898603 
L 626.235206 175.165196 
L 624.568343 174.376829 
L 622.928168 173.534346 
L 621.316437 172.638649 
L 619.734874 171.690697 
L 618.185175 170.691505 
L 616.668998 169.642144 
L 615.187967 168.543736 
L 613.743667 167.397459 
L 612.337646 166.204539 
L 610.97141 164.966254 
L 609.64642 163.68393 
L 608.364096 162.35894 
L 607.125811 160.992703 
L 605.932891 159.586682 
L 604.786614 158.142383 
L 603.688206 156.661352 
L 602.638845 155.145175 
L 601.639653 153.595475 
L 600.691701 152.013913 
L 599.796004 150.402181 
L 598.95352 148.762006 
L 598.165153 147.095144 
L 597.431746 145.403379 
L 596.754085 143.688524 
L 596.132895 141.952415 
L 595.568842 140.196911 
L 595.062529 138.423891 
L 594.614499 136.635254 
L 594.225231 134.832916 
L 593.895143 133.018806 
L 593.624587 131.194867 
L 593.413854 129.363053 
L 593.263169 127.525324 
L 593.172693 125.683649 
L 593.142524 123.84 
L 593.172693 121.996351 
L 593.263169 120.154676 
L 593.413854 118.316947 
L 593.624587 116.485133 
L 593.895143 114.661194 
L 594.225231 112.847084 
L 594.614499 111.044746 
L 595.062529 109.256109 
L 595.568842 107.483089 
L 596.132895 105.727585 
L 596.754085 103.991476 
L 597.431746 102.276621 
L 598.165153 100.584856 
L 598.95352 98.917994 
L 599.796004 97.277819 
L 600.691701 95.666087 
L 601.639653 94.084525 
L 602.638845 92.534825 
L 603.688206 91.018648 
L 604.786614 89.537617 
L 605.932891 88.093318 
L 607.125811 86.687297 
L 608.364096 85.32106 
L 609.64642 83.99607 
L 610.97141 82.713746 
L 612.337646 81.475461 
L 613.743667 80.282541 
L 615.187967 79.136264 
L 616.668998 78.037856 
L 618.185175 76.988495 
L 619.734874 75.989303 
L 621.316437 75.041351 
L 622.928168 74.145654 
L 624.568343 73.303171 
L 626.235206 72.514804 
L 627.92697 71.781397 
L 629.641825 71.103736 
L 631.377935 70.482546 
L 633.133439 69.918492 
L 634.906459 69.41218 
L 636.695096 68.964149 
L 638.497434 68.574882 
L 640.311544 68.244793 
L 642.135482 67.974237 
L 643.967297 67.763504 
L 645.805025 67.612819 
L 647.6467 67.522343 
L 649.49035 67.492174 
L 651.333999 67.522343 
L 653.175674 67.612819 
L 655.013402 67.763504 
L 656.845217 67.974237 
L 658.669155 68.244793 
L 660.483265 68.574882 
L 662.285603 68.964149 
L 664.07424 69.41218 
L 665.84726 69.918492 
L 667.602765 70.482546 
L 669.338874 71.103736 
L 671.053729 71.781397 
L 672.745494 72.514804 
L 674.412356 73.303171 
L 676.052531 74.145654 
L 677.664263 75.041351 
L 679.245825 75.989303 
L 680.795525 76.988495 
L 682.311702 78.037856 
L 683.792733 79.136264 
L 685.237032 80.282541 
L 686.643053 81.475461 
L 688.00929 82.713746 
L 689.33428 83.99607 
L 690.616603 85.32106 
L 691.854888 86.687297 
L 693.047808 88.093318 
L 694.194086 89.537617 
L 695.292493 91.018648 
L 696.341855 92.534825 
L 697.341046 94.084525 
L 698.288998 95.666087 
L 699.184696 97.277819 
L 700.027179 98.917994 
L 700.815546 100.584856 
L 701.548953 102.276621 
L 702.226614 103.991476 
L 702.847804 105.727585 
L 703.411857 107.483089 
L 703.91817 109.256109 
L 704.3662 111.044746 
L 704.755468 112.847084 
L 705.085557 114.661194 
L 705.356112 116.485133 
L 705.566846 118.316947 
L 705.717531 120.154676 
L 705.808006 121.996351 
L 705.838176 123.84 
z
" clip-path="url(#p7044d212a2)" style="fill: #fee2e2; opacity: 0.9; stroke: #0f172a; stroke-width: 1.5; stroke-linejoin: miter"/>
   </g>
   <g id="patch_13">
    <path d="M 674.833295 123.010358 
L 674.792581 122.181604 
L 674.724773 121.354626 
L 674.629943 120.53031 
L 674.508193 119.709537 
L 674.359653 118.893188 
L 674.184482 118.082136 
L 673.982869 117.277249 
L 673.755028 116.47939 
L 673.501204 115.689413 
L 673.221669 114.908164 
L 672.916721 114.136479 
L 672.586688 113.375185 
L 672.231923 112.625097 
L 671.852805 111.887018 
L 671.449742 111.161739 
L 671.023163 110.450036 
L 670.573527 109.752671 
L 670.101314 109.070392 
L 669.607031 108.403928 
L 669.091206 107.753993 
L 668.554392 107.121284 
L 667.997164 106.506477 
L 667.420118 105.910232 
L 666.823873 105.333186 
L 666.209066 104.775958 
L 665.576357 104.239144 
L 664.926422 103.723319 
L 664.259958 103.229035 
L 663.577678 102.756823 
L 662.880314 102.307186 
L 662.168611 101.880608 
L 661.443331 101.477544 
L 660.705252 101.098427 
L 659.955164 100.743662 
L 659.19387 100.413629 
L 658.422186 100.108681 
L 657.640936 99.829146 
L 656.850959 99.575322 
L 656.0531 99.347481 
L 655.248214 99.145867 
L 654.437162 98.970697 
L 653.620812 98.822157 
L 652.80004 98.700407 
L 651.975723 98.605577 
L 651.148746 98.537769 
L 650.319992 98.497054 
L 649.49035 98.483478 
L 648.660708 98.497054 
L 647.831954 98.537769 
L 647.004976 98.605577 
L 646.180659 98.700407 
L 645.359887 98.822157 
L 644.543538 98.970697 
L 643.732485 99.145867 
L 642.927599 99.347481 
L 642.12974 99.575322 
L 641.339763 99.829146 
L 640.558514 100.108681 
L 639.786829 100.413629 
L 639.025535 100.743662 
L 638.275447 101.098427 
L 637.537368 101.477544 
L 636.812089 101.880608 
L 636.100386 102.307186 
L 635.403021 102.756823 
L 634.720741 103.229035 
L 634.054277 103.723319 
L 633.404343 104.239144 
L 632.771633 104.775958 
L 632.156827 105.333186 
L 631.560581 105.910232 
L 630.983535 106.506477 
L 630.426307 107.121284 
L 629.889493 107.753993 
L 629.373668 108.403928 
L 628.879385 109.070392 
L 628.407172 109.752671 
L 627.957536 110.450036 
L 627.530958 111.161739 
L 627.127894 111.887018 
L 626.748776 112.625097 
L 626.394011 113.375185 
L 626.063978 114.136479 
L 625.759031 114.908164 
L 625.479495 115.689413 
L 625.225671 116.47939 
L 624.99783 117.277249 
L 624.796217 118.082136 
L 624.621046 118.893188 
L 624.472507 119.709537 
L 624.350756 120.53031 
L 624.255926 121.354626 
L 624.188118 122.181604 
L 624.147404 123.010358 
L 624.133828 123.84 
L 624.147404 124.669642 
L 624.188118 125.498396 
L 624.255926 126.325374 
L 624.350756 127.14969 
L 624.472507 127.970463 
L 624.621046 128.786812 
L 624.796217 129.597864 
L 624.99783 130.402751 
L 625.225671 131.20061 
L 625.479495 131.990587 
L 625.759031 132.771836 
L 626.063978 133.543521 
L 626.394011 134.304815 
L 626.748776 135.054903 
L 627.127894 135.792982 
L 627.530958 136.518261 
L 627.957536 137.229964 
L 628.407172 137.927329 
L 628.879385 138.609608 
L 629.373668 139.276072 
L 629.889493 139.926007 
L 630.426307 140.558716 
L 630.983535 141.173523 
L 631.560581 141.769768 
L 632.156827 142.346814 
L 632.771633 142.904042 
L 633.404343 143.440856 
L 634.054277 143.956681 
L 634.720741 144.450965 
L 635.403021 144.923177 
L 636.100386 145.372814 
L 636.812089 145.799392 
L 637.537368 146.202456 
L 638.275447 146.581573 
L 639.025535 146.936338 
L 639.786829 147.266371 
L 640.558514 147.571319 
L 641.339763 147.850854 
L 642.12974 148.104678 
L 642.927599 148.332519 
L 643.732485 148.534133 
L 644.543538 148.709303 
L 645.359887 148.857843 
L 646.180659 148.979593 
L 647.004976 149.074423 
L 647.831954 149.142231 
L 648.660708 149.182946 
L 649.49035 149.196522 
L 650.319992 149.182946 
L 651.148746 149.142231 
L 651.975723 149.074423 
L 652.80004 148.979593 
L 653.620812 148.857843 
L 654.437162 148.709303 
L 655.248214 148.534133 
L 656.0531 148.332519 
L 656.850959 148.104678 
L 657.640936 147.850854 
L 658.422186 147.571319 
L 659.19387 147.266371 
L 659.955164 146.936338 
L 660.705252 146.581573 
L 661.443331 146.202456 
L 662.168611 145.799392 
L 662.880314 145.372814 
L 663.577678 144.923177 
L 664.259958 144.450965 
L 664.926422 143.956681 
L 665.576357 143.440856 
L 666.209066 142.904042 
L 666.823873 142.346814 
L 667.420118 141.769768 
L 667.997164 141.173523 
L 668.554392 140.558716 
L 669.091206 139.926007 
L 669.607031 139.276072 
L 670.101314 138.609608 
L 670.573527 137.927329 
L 671.023163 137.229964 
L 671.449742 136.518261 
L 671.852805 135.792982 
L 672.231923 135.054903 
L 672.586688 134.304815 
L 672.916721 133.543521 
L 673.221669 132.771836 
L 673.501204 131.990587 
L 673.755028 131.20061 
L 673.982869 130.402751 
L 674.184482 129.597864 
L 674.359653 128.786812 
L 674.508193 127.970463 
L 674.629943 127.14969 
L 674.724773 126.325374 
L 674.792581 125.498396 
L 674.833295 124.669642 
L 674.846871 123.84 
z
" clip-path="url(#p7044d212a2)" style="fill: #ffffff; stroke: #0f172a; stroke-width: 1.2; stroke-linejoin: miter"/>
   </g>
   <g id="patch_14">
    <path d="M 592.015567 181.314783 
L 706.965132 181.314783 
L 706.965132 66.365217 
L 592.015567 66.365217 
L 592.015567 181.314783 
z
" clip-path="url(#p7044d212a2)" style="fill: none; stroke: #94a3b8; stroke-linejoin: miter"/>
   </g>
   <g id="matplotlib.axis_7"/>
   <g id="matplotlib.axis_8"/>
   <g id="text_7">
    <!-- one moderate hole -->
    <g style="fill: #334155" transform="translate(607.678662 210.878625) scale(0.088 -0.088)">
     <use xlink:href="#DejaVuSans-6f"/>
     <use xlink:href="#DejaVuSans-6e" transform="translate(61.181641 0)"/>
     <use xlink:href="#DejaVuSans-65" transform="translate(124.560547 0)"/>
     <use xlink:href="#DejaVuSans-20" transform="translate(186.083984 0)"/>
     <use xlink:href="#DejaVuSans-6d" transform="translate(217.871094 0)"/>
     <use xlink:href="#DejaVuSans-6f" transform="translate(315.283203 0)"/>
     <use xlink:href="#DejaVuSans-64" transform="translate(376.464844 0)"/>
     <use xlink:href="#DejaVuSans-65" transform="translate(439.941406 0)"/>
     <use xlink:href="#DejaVuSans-72" transform="translate(501.464844 0)"/>
     <use xlink:href="#DejaVuSans-61" transform="translate(542.578125 0)"/>
     <use xlink:href="#DejaVuSans-74" transform="translate(603.857422 0)"/>
     <use xlink:href="#DejaVuSans-65" transform="translate(643.066406 0)"/>
     <use xlink:href="#DejaVuSans-20" transform="translate(704.589844 0)"/>
     <use xlink:href="#DejaVuSans-68" transform="translate(736.376953 0)"/>
     <use xlink:href="#DejaVuSans-6f" transform="translate(799.755859 0)"/>
     <use xlink:href="#DejaVuSans-6c" transform="translate(860.9375 0)"/>
     <use xlink:href="#DejaVuSans-65" transform="translate(888.720703 0)"/>
    </g>
   </g>
   <g id="text_8">
    <!-- Donut Light -->
    <g transform="translate(612.90074 53.04) scale(0.11 -0.11)">
     <defs>
      <path id="DejaVuSans-Bold-74" d="M 1759 4494 
L 1759 3500 
L 2913 3500 
L 2913 2700 
L 1759 2700 
L 1759 1216 
Q 1759 972 1856 886 
Q 1953 800 2241 800 
L 2816 800 
L 2816 0 
L 1856 0 
Q 1194 0 917 276 
Q 641 553 641 1216 
L 641 2700 
L 84 2700 
L 84 3500 
L 641 3500 
L 641 4494 
L 1759 4494 
z
" transform="scale(0.015625)"/>
      <path id="DejaVuSans-Bold-20" transform="scale(0.015625)"/>
      <path id="DejaVuSans-Bold-4c" d="M 588 4666 
L 1791 4666 
L 1791 909 
L 3903 909 
L 3903 0 
L 588 0 
L 588 4666 
z
" transform="scale(0.015625)"/>
      <path id="DejaVuSans-Bold-67" d="M 2919 594 
Q 2688 288 2409 144 
Q 2131 0 1766 0 
Q 1125 0 706 504 
Q 288 1009 288 1791 
Q 288 2575 706 3076 
Q 1125 3578 1766 3578 
Q 2131 3578 2409 3434 
Q 2688 3291 2919 2981 
L 2919 3500 
L 4044 3500 
L 4044 353 
Q 4044 -491 3511 -936 
Q 2978 -1381 1966 -1381 
Q 1638 -1381 1331 -1331 
Q 1025 -1281 716 -1178 
L 716 -306 
Q 1009 -475 1290 -558 
Q 1572 -641 1856 -641 
Q 2406 -641 2662 -400 
Q 2919 -159 2919 353 
L 2919 594 
z
M 2181 2772 
Q 1834 2772 1640 2515 
Q 1447 2259 1447 1791 
Q 1447 1309 1634 1061 
Q 1822 813 2181 813 
Q 2531 813 2725 1069 
Q 2919 1325 2919 1791 
Q 2919 2259 2725 2515 
Q 2531 2772 2181 2772 
z
" transform="scale(0.015625)"/>
      <path id="DejaVuSans-Bold-68" d="M 4056 2131 
L 4056 0 
L 2931 0 
L 2931 347 
L 2931 1625 
Q 2931 2084 2911 2256 
Q 2891 2428 2841 2509 
Q 2775 2619 2662 2680 
Q 2550 2741 2406 2741 
Q 2056 2741 1856 2470 
Q 1656 2200 1656 1722 
L 1656 0 
L 538 0 
L 538 4863 
L 1656 4863 
L 1656 2988 
Q 1909 3294 2193 3439 
Q 2478 3584 2822 3584 
Q 3428 3584 3742 3212 
Q 4056 2841 4056 2131 
z
" transform="scale(0.015625)"/>
     </defs>
     <use xlink:href="#DejaVuSans-Bold-44"/>
     <use xlink:href="#DejaVuSans-Bold-6f" transform="translate(83.007812 0)"/>
     <use xlink:href="#DejaVuSans-Bold-6e" transform="translate(151.708984 0)"/>
     <use xlink:href="#DejaVuSans-Bold-75" transform="translate(222.900391 0)"/>
     <use xlink:href="#DejaVuSans-Bold-74" transform="translate(294.091797 0)"/>
     <use xlink:href="#DejaVuSans-Bold-20" transform="translate(341.894531 0)"/>
     <use xlink:href="#DejaVuSans-Bold-4c" transform="translate(376.708984 0)"/>
     <use xlink:href="#DejaVuSans-Bold-69" transform="translate(440.429688 0)"/>
     <use xlink:href="#DejaVuSans-Bold-67" transform="translate(474.707031 0)"/>
     <use xlink:href="#DejaVuSans-Bold-68" transform="translate(546.289062 0)"/>
     <use xlink:href="#DejaVuSans-Bold-74" transform="translate(617.480469 0)"/>
    </g>
   </g>
  </g>
  <g id="axes_5">
   <g id="patch_15">
    <path d="M 777.187133 188.64 
L 906.787133 188.64 
L 906.787133 59.04 
L 777.187133 59.04 
z
" style="fill: #ffffff"/>
   </g>
   <g id="patch_16">
    <path d="M 898.30479 125.683649 
L 898.214314 127.525324 
L 898.063629 129.363053 
L 897.852895 131.194867 
L 897.58234 133.018806 
L 897.252251 134.832916 
L 896.862984 136.635254 
L 896.414953 138.423891 
L 895.90864 140.196911 
L 895.344587 141.952415 
L 894.723397 143.688524 
L 894.045736 145.403379 
L 893.312329 147.095144 
L 892.523962 148.762006 
L 891.681479 150.402181 
L 890.785782 152.013913 
L 889.83783 153.595475 
L 888.838638 155.145175 
L 887.789276 156.661352 
L 886.690869 158.142383 
L 885.544591 159.586682 
L 884.351672 160.992703 
L 883.113387 162.35894 
L 881.831063 163.68393 
L 880.506073 164.966254 
L 879.139836 166.204539 
L 877.733815 167.397459 
L 876.289516 168.543736 
L 874.808485 169.642144 
L 873.292308 170.691505 
L 871.742608 171.690697 
L 870.161046 172.638649 
L 868.549314 173.534346 
L 866.909139 174.376829 
L 865.242277 175.165196 
L 863.550512 175.898603 
L 861.835657 176.576264 
L 860.099548 177.197454 
L 858.344043 177.761508 
L 856.571023 178.26782 
L 854.782387 178.715851 
L 852.980048 179.105118 
L 851.165939 179.435207 
L 849.342 179.705763 
L 847.510186 179.916496 
L 845.672457 180.067181 
L 843.830782 180.157657 
L 841.987133 180.187826 
L 840.143484 180.157657 
L 838.301809 180.067181 
L 836.46408 179.916496 
L 834.632266 179.705763 
L 832.808327 179.435207 
L 830.994217 179.105118 
L 829.191879 178.715851 
L 827.403242 178.26782 
L 825.630222 177.761508 
L 823.874718 177.197454 
L 822.138608 176.576264 
L 820.423753 175.898603 
L 818.731989 175.165196 
L 817.065127 174.376829 
L 815.424952 173.534346 
L 813.81322 172.638649 
L 812.231657 171.690697 
L 810.681958 170.691505 
L 809.165781 169.642144 
L 807.68475 168.543736 
L 806.24045 167.397459 
L 804.83443 166.204539 
L 803.468193 164.966254 
L 802.143203 163.68393 
L 800.860879 162.35894 
L 799.622594 160.992703 
L 798.429674 159.586682 
L 797.283397 158.142383 
L 796.184989 156.661352 
L 795.135628 155.145175 
L 794.136436 153.595475 
L 793.188484 152.013913 
L 792.292787 150.402181 
L 791.450304 148.762006 
L 790.661936 147.095144 
L 789.92853 145.403379 
L 789.250868 143.688524 
L 788.629679 141.952415 
L 788.065625 140.196911 
L 787.559312 138.423891 
L 787.111282 136.635254 
L 786.722014 134.832916 
L 786.391926 133.018806 
L 786.12137 131.194867 
L 785.910637 129.363053 
L 785.759952 127.525324 
L 785.669476 125.683649 
L 785.639307 123.84 
L 785.669476 121.996351 
L 785.759952 120.154676 
L 785.910637 118.316947 
L 786.12137 116.485133 
L 786.391926 114.661194 
L 786.722014 112.847084 
L 787.111282 111.044746 
L 787.559312 109.256109 
L 788.065625 107.483089 
L 788.629679 105.727585 
L 789.250868 103.991476 
L 789.92853 102.276621 
L 790.661936 100.584856 
L 791.450304 98.917994 
L 792.292787 97.277819 
L 793.188484 95.666087 
L 794.136436 94.084525 
L 795.135628 92.534825 
L 796.184989 91.018648 
L 797.283397 89.537617 
L 798.429674 88.093318 
L 799.622594 86.687297 
L 800.860879 85.32106 
L 802.143203 83.99607 
L 803.468193 82.713746 
L 804.83443 81.475461 
L 806.24045 80.282541 
L 807.68475 79.136264 
L 809.165781 78.037856 
L 810.681958 76.988495 
L 812.231657 75.989303 
L 813.81322 75.041351 
L 815.424952 74.145654 
L 817.065127 73.303171 
L 818.731989 72.514804 
L 820.423753 71.781397 
L 822.138608 71.103736 
L 823.874718 70.482546 
L 825.630222 69.918492 
L 827.403242 69.41218 
L 829.191879 68.964149 
L 830.994217 68.574882 
L 832.808327 68.244793 
L 834.632266 67.974237 
L 836.46408 67.763504 
L 838.301809 67.612819 
L 840.143484 67.522343 
L 841.987133 67.492174 
L 843.830782 67.522343 
L 845.672457 67.612819 
L 847.510186 67.763504 
L 849.342 67.974237 
L 851.165939 68.244793 
L 852.980048 68.574882 
L 854.782387 68.964149 
L 856.571023 69.41218 
L 858.344043 69.918492 
L 860.099548 70.482546 
L 861.835657 71.103736 
L 863.550512 71.781397 
L 865.242277 72.514804 
L 866.909139 73.303171 
L 868.549314 74.145654 
L 870.161046 75.041351 
L 871.742608 75.989303 
L 873.292308 76.988495 
L 874.808485 78.037856 
L 876.289516 79.136264 
L 877.733815 80.282541 
L 879.139836 81.475461 
L 880.506073 82.713746 
L 881.831063 83.99607 
L 883.113387 85.32106 
L 884.351672 86.687297 
L 885.544591 88.093318 
L 886.690869 89.537617 
L 887.789276 91.018648 
L 888.838638 92.534825 
L 889.83783 94.084525 
L 890.785782 95.666087 
L 891.681479 97.277819 
L 892.523962 98.917994 
L 893.312329 100.584856 
L 894.045736 102.276621 
L 894.723397 103.991476 
L 895.344587 105.727585 
L 895.90864 107.483089 
L 896.414953 109.256109 
L 896.862984 111.044746 
L 897.252251 112.847084 
L 897.58234 114.661194 
L 897.852895 116.485133 
L 898.063629 118.316947 
L 898.214314 120.154676 
L 898.30479 121.996351 
L 898.334959 123.84 
z
" clip-path="url(#p68484fc996)" style="fill: #fecaca; opacity: 0.9; stroke: #0f172a; stroke-width: 1.5; stroke-linejoin: miter"/>
   </g>
   <g id="patch_17">
    <path d="M 885.914905 122.401954 
L 885.844334 120.965447 
L 885.7268 119.532019 
L 885.562428 118.103204 
L 885.351394 116.680531 
L 885.093925 115.265526 
L 884.790296 113.859702 
L 884.440833 112.464565 
L 884.045909 111.08161 
L 883.605947 109.712316 
L 883.121419 108.358151 
L 882.592843 107.020564 
L 882.020786 105.700988 
L 881.40586 104.400835 
L 880.748723 103.121499 
L 880.050079 101.864348 
L 879.310676 100.630729 
L 878.531307 99.421964 
L 877.712805 98.239345 
L 876.856047 97.084141 
L 875.961951 95.957588 
L 875.031473 94.860891 
L 874.065611 93.795227 
L 873.065398 92.761735 
L 872.031906 91.761522 
L 870.966241 90.79566 
L 869.869545 89.865182 
L 868.742992 88.971086 
L 867.587787 88.114328 
L 866.405169 87.295826 
L 865.196404 86.516456 
L 863.962785 85.777054 
L 862.705634 85.07841 
L 861.426298 84.421273 
L 860.126145 83.806347 
L 858.806569 83.234289 
L 857.468982 82.705714 
L 856.114817 82.221186 
L 854.745523 81.781224 
L 853.362567 81.3863 
L 851.967431 81.036836 
L 850.561607 80.733208 
L 849.146601 80.475739 
L 847.723929 80.264705 
L 846.295114 80.100333 
L 844.861686 79.982799 
L 843.425179 79.912228 
L 841.987133 79.888696 
L 840.549087 79.912228 
L 839.11258 79.982799 
L 837.679152 80.100333 
L 836.250336 80.264705 
L 834.827664 80.475739 
L 833.412659 80.733208 
L 832.006835 81.036836 
L 830.611698 81.3863 
L 829.228743 81.781224 
L 827.859449 82.221186 
L 826.505284 82.705714 
L 825.167697 83.234289 
L 823.848121 83.806347 
L 822.547968 84.421273 
L 821.268631 85.07841 
L 820.011481 85.777054 
L 818.777862 86.516456 
L 817.569096 87.295826 
L 816.386478 88.114328 
L 815.231274 88.971086 
L 814.104721 89.865182 
L 813.008024 90.79566 
L 811.94236 91.761522 
L 810.908868 92.761735 
L 809.908655 93.795227 
L 808.942793 94.860891 
L 808.012315 95.957588 
L 807.118219 97.084141 
L 806.261461 98.239345 
L 805.442959 99.421964 
L 804.663589 100.630729 
L 803.924187 101.864348 
L 803.225543 103.121499 
L 802.568406 104.400835 
L 801.95348 105.700988 
L 801.381422 107.020564 
L 800.852847 108.358151 
L 800.368319 109.712316 
L 799.928357 111.08161 
L 799.533433 112.464565 
L 799.183969 113.859702 
L 798.880341 115.265526 
L 798.622871 116.680531 
L 798.411838 118.103204 
L 798.247466 119.532019 
L 798.129932 120.965447 
L 798.059361 122.401954 
L 798.035829 123.84 
L 798.059361 125.278046 
L 798.129932 126.714553 
L 798.247466 128.147981 
L 798.411838 129.576796 
L 798.622871 130.999469 
L 798.880341 132.414474 
L 799.183969 133.820298 
L 799.533433 135.215435 
L 799.928357 136.59839 
L 800.368319 137.967684 
L 800.852847 139.321849 
L 801.381422 140.659436 
L 801.95348 141.979012 
L 802.568406 143.279165 
L 803.225543 144.558501 
L 803.924187 145.815652 
L 804.663589 147.049271 
L 805.442959 148.258036 
L 806.261461 149.440655 
L 807.118219 150.595859 
L 808.012315 151.722412 
L 808.942793 152.819109 
L 809.908655 153.884773 
L 810.908868 154.918265 
L 811.94236 155.918478 
L 813.008024 156.88434 
L 814.104721 157.814818 
L 815.231274 158.708914 
L 816.386478 159.565672 
L 817.569096 160.384174 
L 818.777862 161.163544 
L 820.011481 161.902946 
L 821.268631 162.60159 
L 822.547968 163.258727 
L 823.848121 163.873653 
L 825.167697 164.445711 
L 826.505284 164.974286 
L 827.859449 165.458814 
L 829.228743 165.898776 
L 830.611698 166.2937 
L 832.006835 166.643164 
L 833.412659 166.946792 
L 834.827664 167.204261 
L 836.250336 167.415295 
L 837.679152 167.579667 
L 839.11258 167.697201 
L 840.549087 167.767772 
L 841.987133 167.791304 
L 843.425179 167.767772 
L 844.861686 167.697201 
L 846.295114 167.579667 
L 847.723929 167.415295 
L 849.146601 167.204261 
L 850.561607 166.946792 
L 851.967431 166.643164 
L 853.362567 166.2937 
L 854.745523 165.898776 
L 856.114817 165.458814 
L 857.468982 164.974286 
L 858.806569 164.445711 
L 860.126145 163.873653 
L 861.426298 163.258727 
L 862.705634 162.60159 
L 863.962785 161.902946 
L 865.196404 161.163544 
L 866.405169 160.384174 
L 867.587787 159.565672 
L 868.742992 158.708914 
L 869.869545 157.814818 
L 870.966241 156.88434 
L 872.031906 155.918478 
L 873.065398 154.918265 
L 874.065611 153.884773 
L 875.031473 152.819109 
L 875.961951 151.722412 
L 876.856047 150.595859 
L 877.712805 149.440655 
L 878.531307 148.258036 
L 879.310676 147.049271 
L 880.050079 145.815652 
L 880.748723 144.558501 
L 881.40586 143.279165 
L 882.020786 141.979012 
L 882.592843 140.659436 
L 883.121419 139.321849 
L 883.605947 137.967684 
L 884.045909 136.59839 
L 884.440833 135.215435 
L 884.790296 133.820298 
L 885.093925 132.414474 
L 885.351394 130.999469 
L 885.562428 129.576796 
L 885.7268 128.147981 
L 885.844334 126.714553 
L 885.914905 125.278046 
L 885.938437 123.84 
z
" clip-path="url(#p68484fc996)" style="fill: #ffffff; stroke: #0f172a; stroke-width: 1.2; stroke-linejoin: miter"/>
   </g>
   <g id="patch_18">
    <path d="M 784.51235 181.314783 
L 899.461915 181.314783 
L 899.461915 66.365217 
L 784.51235 66.365217 
L 784.51235 181.314783 
z
" clip-path="url(#p68484fc996)" style="fill: none; stroke: #94a3b8; stroke-linejoin: miter"/>
   </g>
   <g id="matplotlib.axis_9"/>
   <g id="matplotlib.axis_10"/>
   <g id="text_9">
    <!-- very low fill -->
    <g style="fill: #334155" transform="translate(816.736633 210.878625) scale(0.088 -0.088)">
     <defs>
      <path id="DejaVuSans-76" d="M 191 3500 
L 800 3500 
L 1894 563 
L 2988 3500 
L 3597 3500 
L 2284 0 
L 1503 0 
L 191 3500 
z
" transform="scale(0.015625)"/>
      <path id="DejaVuSans-77" d="M 269 3500 
L 844 3500 
L 1563 769 
L 2278 3500 
L 2956 3500 
L 3675 769 
L 4391 3500 
L 4966 3500 
L 4050 0 
L 3372 0 
L 2619 2869 
L 1863 0 
L 1184 0 
L 269 3500 
z
" transform="scale(0.015625)"/>
     </defs>
     <use xlink:href="#DejaVuSans-76"/>
     <use xlink:href="#DejaVuSans-65" transform="translate(59.179688 0)"/>
     <use xlink:href="#DejaVuSans-72" transform="translate(120.703125 0)"/>
     <use xlink:href="#DejaVuSans-79" transform="translate(161.816406 0)"/>
     <use xlink:href="#DejaVuSans-20" transform="translate(220.996094 0)"/>
     <use xlink:href="#DejaVuSans-6c" transform="translate(252.783203 0)"/>
     <use xlink:href="#DejaVuSans-6f" transform="translate(280.566406 0)"/>
     <use xlink:href="#DejaVuSans-77" transform="translate(341.748047 0)"/>
     <use xlink:href="#DejaVuSans-20" transform="translate(423.535156 0)"/>
     <use xlink:href="#DejaVuSans-66" transform="translate(455.322266 0)"/>
     <use xlink:href="#DejaVuSans-69" transform="translate(490.527344 0)"/>
     <use xlink:href="#DejaVuSans-6c" transform="translate(518.310547 0)"/>
     <use xlink:href="#DejaVuSans-6c" transform="translate(546.09375 0)"/>
    </g>
   </g>
   <g id="text_10">
    <!-- Donut Heavy -->
    <g transform="translate(802.052836 53.04) scale(0.11 -0.11)">
     <defs>
      <path id="DejaVuSans-Bold-48" d="M 588 4666 
L 1791 4666 
L 1791 2888 
L 3566 2888 
L 3566 4666 
L 4769 4666 
L 4769 0 
L 3566 0 
L 3566 1978 
L 1791 1978 
L 1791 0 
L 588 0 
L 588 4666 
z
" transform="scale(0.015625)"/>
      <path id="DejaVuSans-Bold-76" d="M 97 3500 
L 1216 3500 
L 2088 1081 
L 2956 3500 
L 4078 3500 
L 2700 0 
L 1472 0 
L 97 3500 
z
" transform="scale(0.015625)"/>
      <path id="DejaVuSans-Bold-79" d="M 78 3500 
L 1197 3500 
L 2138 1125 
L 2938 3500 
L 4056 3500 
L 2584 -331 
Q 2363 -916 2067 -1148 
Q 1772 -1381 1288 -1381 
L 641 -1381 
L 641 -647 
L 991 -647 
Q 1275 -647 1404 -556 
Q 1534 -466 1606 -231 
L 1638 -134 
L 78 3500 
z
" transform="scale(0.015625)"/>
     </defs>
     <use xlink:href="#DejaVuSans-Bold-44"/>
     <use xlink:href="#DejaVuSans-Bold-6f" transform="translate(83.007812 0)"/>
     <use xlink:href="#DejaVuSans-Bold-6e" transform="translate(151.708984 0)"/>
     <use xlink:href="#DejaVuSans-Bold-75" transform="translate(222.900391 0)"/>
     <use xlink:href="#DejaVuSans-Bold-74" transform="translate(294.091797 0)"/>
     <use xlink:href="#DejaVuSans-Bold-20" transform="translate(341.894531 0)"/>
     <use xlink:href="#DejaVuSans-Bold-48" transform="translate(376.708984 0)"/>
     <use xlink:href="#DejaVuSans-Bold-65" transform="translate(460.400391 0)"/>
     <use xlink:href="#DejaVuSans-Bold-61" transform="translate(528.222656 0)"/>
     <use xlink:href="#DejaVuSans-Bold-76" transform="translate(595.703125 0)"/>
     <use xlink:href="#DejaVuSans-Bold-79" transform="translate(660.888672 0)"/>
    </g>
   </g>
  </g>
  <g id="axes_6">
   <g id="patch_19">
    <path d="M 7.2 383.04 
L 136.8 383.04 
L 136.8 253.44 
L 7.2 253.44 
z
" style="fill: #ffffff"/>
   </g>
   <g id="patch_20">
    <path d="M 145.252174 325.001739 
L 145.252174 311.478261 
L -1.252174 311.478261 
L -1.252174 325.001739 
z
" clip-path="url(#p1960a1cac0)" style="fill: #dcfce7; opacity: 0.9; stroke: #0f172a; stroke-width: 1.5; stroke-linejoin: miter"/>
   </g>
   <g id="patch_21">
    <path d="M 14.525217 375.714783 
L 129.474783 375.714783 
L 129.474783 260.765217 
L 14.525217 260.765217 
L 14.525217 375.714783 
z
" clip-path="url(#p1960a1cac0)" style="fill: none; stroke: #94a3b8; stroke-linejoin: miter"/>
   </g>
   <g id="matplotlib.axis_11"/>
   <g id="matplotlib.axis_12"/>
   <g id="text_11">
    <!-- thin geometry -->
    <g style="fill: #334155" transform="translate(40.753125 405.278625) scale(0.088 -0.088)">
     <use xlink:href="#DejaVuSans-74"/>
     <use xlink:href="#DejaVuSans-68" transform="translate(39.208984 0)"/>
     <use xlink:href="#DejaVuSans-69" transform="translate(102.587891 0)"/>
     <use xlink:href="#DejaVuSans-6e" transform="translate(130.371094 0)"/>
     <use xlink:href="#DejaVuSans-20" transform="translate(193.75 0)"/>
     <use xlink:href="#DejaVuSans-67" transform="translate(225.537109 0)"/>
     <use xlink:href="#DejaVuSans-65" transform="translate(289.013672 0)"/>
     <use xlink:href="#DejaVuSans-6f" transform="translate(350.537109 0)"/>
     <use xlink:href="#DejaVuSans-6d" transform="translate(411.71875 0)"/>
     <use xlink:href="#DejaVuSans-65" transform="translate(509.130859 0)"/>
     <use xlink:href="#DejaVuSans-74" transform="translate(570.654297 0)"/>
     <use xlink:href="#DejaVuSans-72" transform="translate(609.863281 0)"/>
     <use xlink:href="#DejaVuSans-79" transform="translate(650.976562 0)"/>
    </g>
   </g>
   <g id="text_12">
    <!-- Strip -->
    <g transform="translate(56.875859 247.44) scale(0.11 -0.11)">
     <defs>
      <path id="DejaVuSans-Bold-70" d="M 1656 506 
L 1656 -1331 
L 538 -1331 
L 538 3500 
L 1656 3500 
L 1656 2988 
Q 1888 3294 2169 3439 
Q 2450 3584 2816 3584 
Q 3463 3584 3878 3070 
Q 4294 2556 4294 1747 
Q 4294 938 3878 423 
Q 3463 -91 2816 -91 
Q 2450 -91 2169 54 
Q 1888 200 1656 506 
z
M 2400 2772 
Q 2041 2772 1848 2508 
Q 1656 2244 1656 1747 
Q 1656 1250 1848 986 
Q 2041 722 2400 722 
Q 2759 722 2948 984 
Q 3138 1247 3138 1747 
Q 3138 2247 2948 2509 
Q 2759 2772 2400 2772 
z
" transform="scale(0.015625)"/>
     </defs>
     <use xlink:href="#DejaVuSans-Bold-53"/>
     <use xlink:href="#DejaVuSans-Bold-74" transform="translate(72.021484 0)"/>
     <use xlink:href="#DejaVuSans-Bold-72" transform="translate(119.824219 0)"/>
     <use xlink:href="#DejaVuSans-Bold-69" transform="translate(169.140625 0)"/>
     <use xlink:href="#DejaVuSans-Bold-70" transform="translate(203.417969 0)"/>
    </g>
   </g>
  </g>
  <g id="axes_7">
   <g id="patch_22">
    <path d="M 199.696783 383.04 
L 329.296783 383.04 
L 329.296783 253.44 
L 199.696783 253.44 
z
" style="fill: #ffffff"/>
   </g>
   <g id="patch_23">
    <path d="M 249.83066 319.198698 
L 249.783613 320.156369 
L 249.705257 321.111987 
L 249.595675 322.064531 
L 249.454986 323.012979 
L 249.28334 323.956316 
L 249.080921 324.893532 
L 248.847946 325.823623 
L 248.584663 326.745593 
L 248.291355 327.658456 
L 247.968336 328.561233 
L 247.615953 329.452957 
L 247.234581 330.332675 
L 246.82463 331.199443 
L 246.386539 332.052334 
L 245.920776 332.890435 
L 245.427841 333.712847 
L 244.908262 334.518691 
L 244.362594 335.307103 
L 243.791422 336.077239 
L 243.195357 336.828275 
L 242.575039 337.559406 
L 241.931131 338.269849 
L 241.264322 338.958844 
L 240.575328 339.625652 
L 239.864885 340.26956 
L 239.133754 340.889878 
L 238.382718 341.485943 
L 237.612582 342.057115 
L 236.82417 342.602783 
L 236.018326 343.122362 
L 235.195914 343.615297 
L 234.357813 344.08106 
L 233.504922 344.519151 
L 232.638154 344.929102 
L 231.758436 345.310474 
L 230.866712 345.662857 
L 229.963935 345.985876 
L 229.051072 346.279184 
L 228.129102 346.542467 
L 227.199011 346.775442 
L 226.261795 346.977862 
L 225.318458 347.149508 
L 224.37001 347.290197 
L 223.417466 347.399778 
L 222.461847 347.478134 
L 221.504176 347.525182 
L 220.545479 347.54087 
L 219.586781 347.525182 
L 218.62911 347.478134 
L 217.673491 347.399778 
L 216.720948 347.290197 
L 215.7725 347.149508 
L 214.829163 346.977862 
L 213.891947 346.775442 
L 212.961856 346.542467 
L 212.039885 346.279184 
L 211.127023 345.985876 
L 210.224246 345.662857 
L 209.332522 345.310474 
L 208.452804 344.929102 
L 207.586036 344.519151 
L 206.733145 344.08106 
L 205.895044 343.615297 
L 205.072632 343.122362 
L 204.266788 342.602783 
L 203.478376 342.057115 
L 202.70824 341.485943 
L 201.957204 340.889878 
L 201.226073 340.26956 
L 200.51563 339.625652 
L 199.826635 338.958844 
L 199.159827 338.269849 
L 198.515919 337.559406 
L 197.8956 336.828275 
L 197.299536 336.077239 
L 196.728364 335.307103 
L 196.182696 334.518691 
L 195.663117 333.712847 
L 195.170181 332.890435 
L 194.704419 332.052334 
L 194.266328 331.199443 
L 193.856377 330.332675 
L 193.475005 329.452957 
L 193.122621 328.561233 
L 192.799603 327.658456 
L 192.506295 326.745593 
L 192.243012 325.823623 
L 192.010037 324.893532 
L 191.807617 323.956316 
L 191.635971 323.012979 
L 191.495282 322.064531 
L 191.385701 321.111987 
L 191.307345 320.156369 
L 191.260297 319.198698 
L 191.244609 318.24 
L 191.260297 317.281302 
L 191.307345 316.323631 
L 191.385701 315.368013 
L 191.495282 314.415469 
L 191.635971 313.467021 
L 191.807617 312.523684 
L 192.010037 311.586468 
L 192.243012 310.656377 
L 192.506295 309.734407 
L 192.799603 308.821544 
L 193.122621 307.918767 
L 193.475005 307.027043 
L 193.856377 306.147325 
L 194.266328 305.280557 
L 194.704419 304.427666 
L 195.170181 303.589565 
L 195.663117 302.767153 
L 196.182696 301.961309 
L 196.728364 301.172897 
L 197.299536 300.402761 
L 197.8956 299.651725 
L 198.515919 298.920594 
L 199.159827 298.210151 
L 199.826635 297.521156 
L 200.51563 296.854348 
L 201.226073 296.21044 
L 201.957204 295.590122 
L 202.70824 294.994057 
L 203.478376 294.422885 
L 204.266788 293.877217 
L 205.072632 293.357638 
L 205.895044 292.864703 
L 206.733145 292.39894 
L 207.586036 291.960849 
L 208.452804 291.550898 
L 209.332522 291.169526 
L 210.224246 290.817143 
L 211.127023 290.494124 
L 212.039885 290.200816 
L 212.961856 289.937533 
L 213.891947 289.704558 
L 214.829163 289.502138 
L 215.7725 289.330492 
L 216.720948 289.189803 
L 217.673491 289.080222 
L 218.62911 289.001866 
L 219.586781 288.954818 
L 220.545479 288.93913 
L 221.504176 288.954818 
L 222.461847 289.001866 
L 223.417466 289.080222 
L 224.37001 289.189803 
L 225.318458 289.330492 
L 226.261795 289.502138 
L 227.199011 289.704558 
L 228.129102 289.937533 
L 229.051072 290.200816 
L 229.963935 290.494124 
L 230.866712 290.817143 
L 231.758436 291.169526 
L 232.638154 291.550898 
L 233.504922 291.960849 
L 234.357813 292.39894 
L 235.195914 292.864703 
L 236.018326 293.357638 
L 236.82417 293.877217 
L 237.612582 294.422885 
L 238.382718 294.994057 
L 239.133754 295.590122 
L 239.864885 296.21044 
L 240.575328 296.854348 
L 241.264322 297.521156 
L 241.931131 298.210151 
L 242.575039 298.920594 
L 243.195357 299.651725 
L 243.791422 300.402761 
L 244.362594 301.172897 
L 244.908262 301.961309 
L 245.427841 302.767153 
L 245.920776 303.589565 
L 246.386539 304.427666 
L 246.82463 305.280557 
L 247.234581 306.147325 
L 247.615953 307.027043 
L 247.968336 307.918767 
L 248.291355 308.821544 
L 248.584663 309.734407 
L 248.847946 310.656377 
L 249.080921 311.586468 
L 249.28334 312.523684 
L 249.454986 313.467021 
L 249.595675 314.415469 
L 249.705257 315.368013 
L 249.783613 316.323631 
L 249.83066 317.281302 
L 249.846348 318.24 
z
" clip-path="url(#pa28634793d)" style="fill: #ede9fe; opacity: 0.9; stroke: #0f172a; stroke-width: 1.5; stroke-linejoin: miter"/>
   </g>
   <g id="patch_24">
    <path d="M 337.733269 319.198698 
L 337.686222 320.156369 
L 337.607865 321.111987 
L 337.498284 322.064531 
L 337.357595 323.012979 
L 337.185949 323.956316 
L 336.98353 324.893532 
L 336.750554 325.823623 
L 336.487272 326.745593 
L 336.193964 327.658456 
L 335.870945 328.561233 
L 335.518561 329.452957 
L 335.13719 330.332675 
L 334.727239 331.199443 
L 334.289147 332.052334 
L 333.823385 332.890435 
L 333.33045 333.712847 
L 332.81087 334.518691 
L 332.265202 335.307103 
L 331.69403 336.077239 
L 331.097966 336.828275 
L 330.477648 337.559406 
L 329.83374 338.269849 
L 329.166931 338.958844 
L 328.477936 339.625652 
L 327.767493 340.26956 
L 327.036362 340.889878 
L 326.285327 341.485943 
L 325.515191 342.057115 
L 324.726778 342.602783 
L 323.920935 343.122362 
L 323.098522 343.615297 
L 322.260422 344.08106 
L 321.407531 344.519151 
L 320.540762 344.929102 
L 319.661045 345.310474 
L 318.76932 345.662857 
L 317.866543 345.985876 
L 316.953681 346.279184 
L 316.031711 346.542467 
L 315.10162 346.775442 
L 314.164404 346.977862 
L 313.221067 347.149508 
L 312.272618 347.290197 
L 311.320075 347.399778 
L 310.364456 347.478134 
L 309.406785 347.525182 
L 308.448088 347.54087 
L 307.48939 347.525182 
L 306.531719 347.478134 
L 305.5761 347.399778 
L 304.623557 347.290197 
L 303.675109 347.149508 
L 302.731771 346.977862 
L 301.794556 346.775442 
L 300.864464 346.542467 
L 299.942494 346.279184 
L 299.029632 345.985876 
L 298.126855 345.662857 
L 297.23513 345.310474 
L 296.355413 344.929102 
L 295.488644 344.519151 
L 294.635753 344.08106 
L 293.797653 343.615297 
L 292.97524 343.122362 
L 292.169397 342.602783 
L 291.380985 342.057115 
L 290.610848 341.485943 
L 289.859813 340.889878 
L 289.128682 340.26956 
L 288.418239 339.625652 
L 287.729244 338.958844 
L 287.062436 338.269849 
L 286.418527 337.559406 
L 285.798209 336.828275 
L 285.202145 336.077239 
L 284.630973 335.307103 
L 284.085305 334.518691 
L 283.565725 333.712847 
L 283.07279 332.890435 
L 282.607028 332.052334 
L 282.168936 331.199443 
L 281.758985 330.332675 
L 281.377614 329.452957 
L 281.02523 328.561233 
L 280.702211 327.658456 
L 280.408904 326.745593 
L 280.145621 325.823623 
L 279.912645 324.893532 
L 279.710226 323.956316 
L 279.53858 323.012979 
L 279.397891 322.064531 
L 279.28831 321.111987 
L 279.209953 320.156369 
L 279.162906 319.198698 
L 279.147218 318.24 
L 279.162906 317.281302 
L 279.209953 316.323631 
L 279.28831 315.368013 
L 279.397891 314.415469 
L 279.53858 313.467021 
L 279.710226 312.523684 
L 279.912645 311.586468 
L 280.145621 310.656377 
L 280.408904 309.734407 
L 280.702211 308.821544 
L 281.02523 307.918767 
L 281.377614 307.027043 
L 281.758985 306.147325 
L 282.168936 305.280557 
L 282.607028 304.427666 
L 283.07279 303.589565 
L 283.565725 302.767153 
L 284.085305 301.961309 
L 284.630973 301.172897 
L 285.202145 300.402761 
L 285.798209 299.651725 
L 286.418527 298.920594 
L 287.062436 298.210151 
L 287.729244 297.521156 
L 288.418239 296.854348 
L 289.128682 296.21044 
L 289.859813 295.590122 
L 290.610848 294.994057 
L 291.380985 294.422885 
L 292.169397 293.877217 
L 292.97524 293.357638 
L 293.797653 292.864703 
L 294.635753 292.39894 
L 295.488644 291.960849 
L 296.355413 291.550898 
L 297.23513 291.169526 
L 298.126855 290.817143 
L 299.029632 290.494124 
L 299.942494 290.200816 
L 300.864464 289.937533 
L 301.794556 289.704558 
L 302.731771 289.502138 
L 303.675109 289.330492 
L 304.623557 289.189803 
L 305.5761 289.080222 
L 306.531719 289.001866 
L 307.48939 288.954818 
L 308.448088 288.93913 
L 309.406785 288.954818 
L 310.364456 289.001866 
L 311.320075 289.080222 
L 312.272618 289.189803 
L 313.221067 289.330492 
L 314.164404 289.502138 
L 315.10162 289.704558 
L 316.031711 289.937533 
L 316.953681 290.200816 
L 317.866543 290.494124 
L 318.76932 290.817143 
L 319.661045 291.169526 
L 320.540762 291.550898 
L 321.407531 291.960849 
L 322.260422 292.39894 
L 323.098522 292.864703 
L 323.920935 293.357638 
L 324.726778 293.877217 
L 325.515191 294.422885 
L 326.285327 294.994057 
L 327.036362 295.590122 
L 327.767493 296.21044 
L 328.477936 296.854348 
L 329.166931 297.521156 
L 329.83374 298.210151 
L 330.477648 298.920594 
L 331.097966 299.651725 
L 331.69403 300.402761 
L 332.265202 301.172897 
L 332.81087 301.961309 
L 333.33045 302.767153 
L 333.823385 303.589565 
L 334.289147 304.427666 
L 334.727239 305.280557 
L 335.13719 306.147325 
L 335.518561 307.027043 
L 335.870945 307.918767 
L 336.193964 308.821544 
L 336.487272 309.734407 
L 336.750554 310.656377 
L 336.98353 311.586468 
L 337.185949 312.523684 
L 337.357595 313.467021 
L 337.498284 314.415469 
L 337.607865 315.368013 
L 337.686222 316.323631 
L 337.733269 317.281302 
L 337.748957 318.24 
z
" clip-path="url(#pa28634793d)" style="fill: #ede9fe; opacity: 0.9; stroke: #0f172a; stroke-width: 1.5; stroke-linejoin: miter"/>
   </g>
   <g id="patch_25">
    <path d="M 207.022001 375.714783 
L 321.971566 375.714783 
L 321.971566 260.765217 
L 207.022001 260.765217 
L 207.022001 375.714783 
z
" clip-path="url(#pa28634793d)" style="fill: none; stroke: #94a3b8; stroke-linejoin: miter"/>
   </g>
   <g id="matplotlib.axis_13"/>
   <g id="matplotlib.axis_14"/>
   <g id="text_13">
    <!-- multipolygon -->
    <g style="fill: #334155" transform="translate(235.666471 405.278625) scale(0.088 -0.088)">
     <defs>
      <path id="DejaVuSans-70" d="M 1159 525 
L 1159 -1331 
L 581 -1331 
L 581 3500 
L 1159 3500 
L 1159 2969 
Q 1341 3281 1617 3432 
Q 1894 3584 2278 3584 
Q 2916 3584 3314 3078 
Q 3713 2572 3713 1747 
Q 3713 922 3314 415 
Q 2916 -91 2278 -91 
Q 1894 -91 1617 61 
Q 1341 213 1159 525 
z
M 3116 1747 
Q 3116 2381 2855 2742 
Q 2594 3103 2138 3103 
Q 1681 3103 1420 2742 
Q 1159 2381 1159 1747 
Q 1159 1113 1420 752 
Q 1681 391 2138 391 
Q 2594 391 2855 752 
Q 3116 1113 3116 1747 
z
" transform="scale(0.015625)"/>
     </defs>
     <use xlink:href="#DejaVuSans-6d"/>
     <use xlink:href="#DejaVuSans-75" transform="translate(97.412109 0)"/>
     <use xlink:href="#DejaVuSans-6c" transform="translate(160.791016 0)"/>
     <use xlink:href="#DejaVuSans-74" transform="translate(188.574219 0)"/>
     <use xlink:href="#DejaVuSans-69" transform="translate(227.783203 0)"/>
     <use xlink:href="#DejaVuSans-70" transform="translate(255.566406 0)"/>
     <use xlink:href="#DejaVuSans-6f" transform="translate(319.042969 0)"/>
     <use xlink:href="#DejaVuSans-6c" transform="translate(380.224609 0)"/>
     <use xlink:href="#DejaVuSans-79" transform="translate(408.007812 0)"/>
     <use xlink:href="#DejaVuSans-67" transform="translate(467.1875 0)"/>
     <use xlink:href="#DejaVuSans-6f" transform="translate(530.664062 0)"/>
     <use xlink:href="#DejaVuSans-6e" transform="translate(591.845703 0)"/>
    </g>
   </g>
   <g id="text_14">
    <!-- Double Disk -->
    <g transform="translate(227.387252 247.44) scale(0.11 -0.11)">
     <defs>
      <path id="DejaVuSans-Bold-62" d="M 2400 722 
Q 2759 722 2948 984 
Q 3138 1247 3138 1747 
Q 3138 2247 2948 2509 
Q 2759 2772 2400 2772 
Q 2041 2772 1848 2508 
Q 1656 2244 1656 1747 
Q 1656 1250 1848 986 
Q 2041 722 2400 722 
z
M 1656 2988 
Q 1888 3294 2169 3439 
Q 2450 3584 2816 3584 
Q 3463 3584 3878 3070 
Q 4294 2556 4294 1747 
Q 4294 938 3878 423 
Q 3463 -91 2816 -91 
Q 2450 -91 2169 54 
Q 1888 200 1656 506 
L 1656 0 
L 538 0 
L 538 4863 
L 1656 4863 
L 1656 2988 
z
" transform="scale(0.015625)"/>
      <path id="DejaVuSans-Bold-6c" d="M 538 4863 
L 1656 4863 
L 1656 0 
L 538 0 
L 538 4863 
z
" transform="scale(0.015625)"/>
     </defs>
     <use xlink:href="#DejaVuSans-Bold-44"/>
     <use xlink:href="#DejaVuSans-Bold-6f" transform="translate(83.007812 0)"/>
     <use xlink:href="#DejaVuSans-Bold-75" transform="translate(151.708984 0)"/>
     <use xlink:href="#DejaVuSans-Bold-62" transform="translate(222.900391 0)"/>
     <use xlink:href="#DejaVuSans-Bold-6c" transform="translate(294.482422 0)"/>
     <use xlink:href="#DejaVuSans-Bold-65" transform="translate(328.759766 0)"/>
     <use xlink:href="#DejaVuSans-Bold-20" transform="translate(396.582031 0)"/>
     <use xlink:href="#DejaVuSans-Bold-44" transform="translate(431.396484 0)"/>
     <use xlink:href="#DejaVuSans-Bold-69" transform="translate(514.404297 0)"/>
     <use xlink:href="#DejaVuSans-Bold-73" transform="translate(548.681641 0)"/>
     <use xlink:href="#DejaVuSans-Bold-6b" transform="translate(608.203125 0)"/>
    </g>
   </g>
  </g>
  <g id="axes_8">
   <g id="patch_26">
    <path d="M 392.193566 383.04 
L 521.793566 383.04 
L 521.793566 253.44 
L 392.193566 253.44 
z
" style="fill: #ffffff"/>
   </g>
   <g id="patch_27">
    <path d="M 400.64574 374.587826 
L 400.64574 261.892174 
L 513.341393 261.892174 
L 513.341393 374.587826 
z
" clip-path="url(#p0656a2cf89)" style="fill: #fae8ff; opacity: 0.9; stroke: #0f172a; stroke-width: 1.5; stroke-linejoin: miter"/>
   </g>
   <g id="patch_28">
    <path d="M 497.84574 277.387826 
L 416.141393 277.387826 
L 416.141393 359.092174 
L 497.84574 359.092174 
z
" clip-path="url(#p0656a2cf89)" style="fill: #ffffff; stroke: #0f172a; stroke-width: 1.2; stroke-linejoin: miter"/>
   </g>
   <g id="patch_29">
    <path d="M 399.518784 375.714783 
L 514.468349 375.714783 
L 514.468349 260.765217 
L 399.518784 260.765217 
L 399.518784 375.714783 
z
" clip-path="url(#p0656a2cf89)" style="fill: none; stroke: #94a3b8; stroke-linejoin: miter"/>
   </g>
   <g id="matplotlib.axis_15"/>
   <g id="matplotlib.axis_16"/>
   <g id="text_15">
    <!-- ring-like shell -->
    <g style="fill: #334155" transform="translate(427.621504 405.278625) scale(0.088 -0.088)">
     <defs>
      <path id="DejaVuSans-2d" d="M 313 2009 
L 1997 2009 
L 1997 1497 
L 313 1497 
L 313 2009 
z
" transform="scale(0.015625)"/>
      <path id="DejaVuSans-6b" d="M 581 4863 
L 1159 4863 
L 1159 1991 
L 2875 3500 
L 3609 3500 
L 1753 1863 
L 3688 0 
L 2938 0 
L 1159 1709 
L 1159 0 
L 581 0 
L 581 4863 
z
" transform="scale(0.015625)"/>
     </defs>
     <use xlink:href="#DejaVuSans-72"/>
     <use xlink:href="#DejaVuSans-69" transform="translate(41.113281 0)"/>
     <use xlink:href="#DejaVuSans-6e" transform="translate(68.896484 0)"/>
     <use xlink:href="#DejaVuSans-67" transform="translate(132.275391 0)"/>
     <use xlink:href="#DejaVuSans-2d" transform="translate(195.751953 0)"/>
     <use xlink:href="#DejaVuSans-6c" transform="translate(231.835938 0)"/>
     <use xlink:href="#DejaVuSans-69" transform="translate(259.619141 0)"/>
     <use xlink:href="#DejaVuSans-6b" transform="translate(287.402344 0)"/>
     <use xlink:href="#DejaVuSans-65" transform="translate(341.6875 0)"/>
     <use xlink:href="#DejaVuSans-20" transform="translate(403.210938 0)"/>
     <use xlink:href="#DejaVuSans-73" transform="translate(434.998047 0)"/>
     <use xlink:href="#DejaVuSans-68" transform="translate(487.097656 0)"/>
     <use xlink:href="#DejaVuSans-65" transform="translate(550.476562 0)"/>
     <use xlink:href="#DejaVuSans-6c" transform="translate(612 0)"/>
     <use xlink:href="#DejaVuSans-6c" transform="translate(639.783203 0)"/>
    </g>
   </g>
   <g id="text_16">
    <!-- Frame -->
    <g transform="translate(437.701457 247.44) scale(0.11 -0.11)">
     <defs>
      <path id="DejaVuSans-Bold-46" d="M 588 4666 
L 3834 4666 
L 3834 3756 
L 1791 3756 
L 1791 2888 
L 3713 2888 
L 3713 1978 
L 1791 1978 
L 1791 0 
L 588 0 
L 588 4666 
z
" transform="scale(0.015625)"/>
     </defs>
     <use xlink:href="#DejaVuSans-Bold-46"/>
     <use xlink:href="#DejaVuSans-Bold-72" transform="translate(61.935547 0)"/>
     <use xlink:href="#DejaVuSans-Bold-61" transform="translate(111.251953 0)"/>
     <use xlink:href="#DejaVuSans-Bold-6d" transform="translate(178.732422 0)"/>
     <use xlink:href="#DejaVuSans-Bold-65" transform="translate(282.931641 0)"/>
    </g>
   </g>
  </g>
  <g id="axes_9">
   <g id="patch_30">
    <path d="M 584.69035 383.04 
L 714.29035 383.04 
L 714.29035 253.44 
L 584.69035 253.44 
z
" style="fill: #ffffff"/>
   </g>
   <g id="patch_31">
    <path d="M 649.49035 374.587826 
L 662.07611 335.562813 
L 703.080317 335.652436 
L 669.854537 311.623274 
L 682.610771 272.653651 
L 649.49035 296.827826 
L 616.369928 272.653651 
L 629.126162 311.623274 
L 595.900382 335.652436 
L 636.90459 335.562813 
z
" clip-path="url(#p8125225a82)" style="fill: #ffe4e6; opacity: 0.9; stroke: #0f172a; stroke-width: 1.5; stroke-linejoin: miter"/>
   </g>
   <g id="patch_32">
    <path d="M 592.015567 375.714783 
L 706.965132 375.714783 
L 706.965132 260.765217 
L 592.015567 260.765217 
L 592.015567 375.714783 
z
" clip-path="url(#p8125225a82)" style="fill: none; stroke: #94a3b8; stroke-linejoin: miter"/>
   </g>
   <g id="matplotlib.axis_17"/>
   <g id="matplotlib.axis_18"/>
   <g id="text_17">
    <!-- concave outline -->
    <g style="fill: #334155" transform="translate(614.618287 405.278625) scale(0.088 -0.088)">
     <defs>
      <path id="DejaVuSans-63" d="M 3122 3366 
L 3122 2828 
Q 2878 2963 2633 3030 
Q 2388 3097 2138 3097 
Q 1578 3097 1268 2742 
Q 959 2388 959 1747 
Q 959 1106 1268 751 
Q 1578 397 2138 397 
Q 2388 397 2633 464 
Q 2878 531 3122 666 
L 3122 134 
Q 2881 22 2623 -34 
Q 2366 -91 2075 -91 
Q 1284 -91 818 406 
Q 353 903 353 1747 
Q 353 2603 823 3093 
Q 1294 3584 2113 3584 
Q 2378 3584 2631 3529 
Q 2884 3475 3122 3366 
z
" transform="scale(0.015625)"/>
     </defs>
     <use xlink:href="#DejaVuSans-63"/>
     <use xlink:href="#DejaVuSans-6f" transform="translate(54.980469 0)"/>
     <use xlink:href="#DejaVuSans-6e" transform="translate(116.162109 0)"/>
     <use xlink:href="#DejaVuSans-63" transform="translate(179.541016 0)"/>
     <use xlink:href="#DejaVuSans-61" transform="translate(234.521484 0)"/>
     <use xlink:href="#DejaVuSans-76" transform="translate(295.800781 0)"/>
     <use xlink:href="#DejaVuSans-65" transform="translate(354.980469 0)"/>
     <use xlink:href="#DejaVuSans-20" transform="translate(416.503906 0)"/>
     <use xlink:href="#DejaVuSans-6f" transform="translate(448.291016 0)"/>
     <use xlink:href="#DejaVuSans-75" transform="translate(509.472656 0)"/>
     <use xlink:href="#DejaVuSans-74" transform="translate(572.851562 0)"/>
     <use xlink:href="#DejaVuSans-6c" transform="translate(612.060547 0)"/>
     <use xlink:href="#DejaVuSans-69" transform="translate(639.84375 0)"/>
     <use xlink:href="#DejaVuSans-6e" transform="translate(667.626953 0)"/>
     <use xlink:href="#DejaVuSans-65" transform="translate(731.005859 0)"/>
    </g>
   </g>
   <g id="text_18">
    <!-- Star -->
    <g transform="translate(636.476834 247.44) scale(0.11 -0.11)">
     <use xlink:href="#DejaVuSans-Bold-53"/>
     <use xlink:href="#DejaVuSans-Bold-74" transform="translate(72.021484 0)"/>
     <use xlink:href="#DejaVuSans-Bold-61" transform="translate(119.824219 0)"/>
     <use xlink:href="#DejaVuSans-Bold-72" transform="translate(187.304688 0)"/>
    </g>
   </g>
  </g>
  <g id="axes_10">
   <g id="patch_33">
    <path d="M 777.187133 383.04 
L 906.787133 383.04 
L 906.787133 253.44 
L 777.187133 253.44 
z
" style="fill: #ffffff"/>
   </g>
   <g id="patch_34">
    <path d="M 898.334959 333.735652 
L 785.639307 333.735652 
L 785.639307 302.744348 
L 785.639307 262.173913 
L 800.289742 262.173913 
L 800.289742 302.744348 
L 810.150611 302.744348 
L 810.150611 262.173913 
L 824.801046 262.173913 
L 824.801046 302.744348 
L 834.661915 302.744348 
L 834.661915 262.173913 
L 849.31235 262.173913 
L 849.31235 302.744348 
L 859.17322 302.744348 
L 859.17322 262.173913 
L 873.823655 262.173913 
L 873.823655 302.744348 
L 883.684524 302.744348 
L 883.684524 262.173913 
L 898.334959 262.173913 
L 898.334959 302.744348 
z
" clip-path="url(#pd69b300217)" style="fill: #e2e8f0; opacity: 0.9; stroke: #0f172a; stroke-width: 1.5; stroke-linejoin: miter"/>
   </g>
   <g id="patch_35">
    <path d="M 784.51235 375.714783 
L 899.461915 375.714783 
L 899.461915 260.765217 
L 784.51235 260.765217 
L 784.51235 375.714783 
z
" clip-path="url(#pd69b300217)" style="fill: none; stroke: #94a3b8; stroke-linejoin: miter"/>
   </g>
   <g id="matplotlib.axis_19"/>
   <g id="matplotlib.axis_20"/>
   <g id="text_19">
    <!-- many local boundary turns -->
    <g style="fill: #334155" transform="translate(782.873133 405.278625) scale(0.088 -0.088)">
     <use xlink:href="#DejaVuSans-6d"/>
     <use xlink:href="#DejaVuSans-61" transform="translate(97.412109 0)"/>
     <use xlink:href="#DejaVuSans-6e" transform="translate(158.691406 0)"/>
     <use xlink:href="#DejaVuSans-79" transform="translate(222.070312 0)"/>
     <use xlink:href="#DejaVuSans-20" transform="translate(281.25 0)"/>
     <use xlink:href="#DejaVuSans-6c" transform="translate(313.037109 0)"/>
     <use xlink:href="#DejaVuSans-6f" transform="translate(340.820312 0)"/>
     <use xlink:href="#DejaVuSans-63" transform="translate(402.001953 0)"/>
     <use xlink:href="#DejaVuSans-61" transform="translate(456.982422 0)"/>
     <use xlink:href="#DejaVuSans-6c" transform="translate(518.261719 0)"/>
     <use xlink:href="#DejaVuSans-20" transform="translate(546.044922 0)"/>
     <use xlink:href="#DejaVuSans-62" transform="translate(577.832031 0)"/>
     <use xlink:href="#DejaVuSans-6f" transform="translate(641.308594 0)"/>
     <use xlink:href="#DejaVuSans-75" transform="translate(702.490234 0)"/>
     <use xlink:href="#DejaVuSans-6e" transform="translate(765.869141 0)"/>
     <use xlink:href="#DejaVuSans-64" transform="translate(829.248047 0)"/>
     <use xlink:href="#DejaVuSans-61" transform="translate(892.724609 0)"/>
     <use xlink:href="#DejaVuSans-72" transform="translate(954.003906 0)"/>
     <use xlink:href="#DejaVuSans-79" transform="translate(995.117188 0)"/>
     <use xlink:href="#DejaVuSans-20" transform="translate(1054.296875 0)"/>
     <use xlink:href="#DejaVuSans-74" transform="translate(1086.083984 0)"/>
     <use xlink:href="#DejaVuSans-75" transform="translate(1125.292969 0)"/>
     <use xlink:href="#DejaVuSans-72" transform="translate(1188.671875 0)"/>
     <use xlink:href="#DejaVuSans-6e" transform="translate(1228.035156 0)"/>
     <use xlink:href="#DejaVuSans-73" transform="translate(1291.414062 0)"/>
    </g>
   </g>
   <g id="text_20">
    <!-- Comb -->
    <g transform="translate(824.504008 247.44) scale(0.11 -0.11)">
     <defs>
      <path id="DejaVuSans-Bold-43" d="M 4288 256 
Q 3956 84 3597 -3 
Q 3238 -91 2847 -91 
Q 1681 -91 1000 561 
Q 319 1213 319 2328 
Q 319 3447 1000 4098 
Q 1681 4750 2847 4750 
Q 3238 4750 3597 4662 
Q 3956 4575 4288 4403 
L 4288 3438 
Q 3953 3666 3628 3772 
Q 3303 3878 2944 3878 
Q 2300 3878 1931 3465 
Q 1563 3053 1563 2328 
Q 1563 1606 1931 1193 
Q 2300 781 2944 781 
Q 3303 781 3628 887 
Q 3953 994 4288 1222 
L 4288 256 
z
" transform="scale(0.015625)"/>
     </defs>
     <use xlink:href="#DejaVuSans-Bold-43"/>
     <use xlink:href="#DejaVuSans-Bold-6f" transform="translate(73.388672 0)"/>
     <use xlink:href="#DejaVuSans-Bold-6d" transform="translate(142.089844 0)"/>
     <use xlink:href="#DejaVuSans-Bold-62" transform="translate(246.289062 0)"/>
    </g>
   </g>
  </g>
  <g id="text_21">
   <!-- Benchmark Corpus: Occupancy, Holes, Concavity, And Boundary Complexity -->
   <g transform="translate(105.051066 19.3575) scale(0.16 -0.16)">
    <defs>
     <path id="DejaVuSans-Bold-42" d="M 2456 2859 
Q 2741 2859 2887 2984 
Q 3034 3109 3034 3353 
Q 3034 3594 2887 3720 
Q 2741 3847 2456 3847 
L 1791 3847 
L 1791 2859 
L 2456 2859 
z
M 2497 819 
Q 2859 819 3042 972 
Q 3225 1125 3225 1434 
Q 3225 1738 3044 1889 
Q 2863 2041 2497 2041 
L 1791 2041 
L 1791 819 
L 2497 819 
z
M 3616 2497 
Q 4003 2384 4215 2081 
Q 4428 1778 4428 1338 
Q 4428 663 3972 331 
Q 3516 0 2584 0 
L 588 0 
L 588 4666 
L 2394 4666 
Q 3366 4666 3802 4372 
Q 4238 4078 4238 3431 
Q 4238 3091 4078 2852 
Q 3919 2613 3616 2497 
z
" transform="scale(0.015625)"/>
     <path id="DejaVuSans-Bold-63" d="M 3366 3391 
L 3366 2478 
Q 3138 2634 2908 2709 
Q 2678 2784 2431 2784 
Q 1963 2784 1702 2511 
Q 1441 2238 1441 1747 
Q 1441 1256 1702 982 
Q 1963 709 2431 709 
Q 2694 709 2930 787 
Q 3166 866 3366 1019 
L 3366 103 
Q 3103 6 2833 -42 
Q 2563 -91 2291 -91 
Q 1344 -91 809 395 
Q 275 881 275 1747 
Q 275 2613 809 3098 
Q 1344 3584 2291 3584 
Q 2566 3584 2833 3536 
Q 3100 3488 3366 3391 
z
" transform="scale(0.015625)"/>
     <path id="DejaVuSans-Bold-3a" d="M 716 3500 
L 1844 3500 
L 1844 2291 
L 716 2291 
L 716 3500 
z
M 716 1209 
L 1844 1209 
L 1844 0 
L 716 0 
L 716 1209 
z
" transform="scale(0.015625)"/>
     <path id="DejaVuSans-Bold-4f" d="M 2719 3878 
Q 2169 3878 1866 3472 
Q 1563 3066 1563 2328 
Q 1563 1594 1866 1187 
Q 2169 781 2719 781 
Q 3272 781 3575 1187 
Q 3878 1594 3878 2328 
Q 3878 3066 3575 3472 
Q 3272 3878 2719 3878 
z
M 2719 4750 
Q 3844 4750 4481 4106 
Q 5119 3463 5119 2328 
Q 5119 1197 4481 553 
Q 3844 -91 2719 -91 
Q 1597 -91 958 553 
Q 319 1197 319 2328 
Q 319 3463 958 4106 
Q 1597 4750 2719 4750 
z
" transform="scale(0.015625)"/>
     <path id="DejaVuSans-Bold-2c" d="M 653 1209 
L 1778 1209 
L 1778 256 
L 1006 -909 
L 341 -909 
L 653 256 
L 653 1209 
z
" transform="scale(0.015625)"/>
     <path id="DejaVuSans-Bold-41" d="M 3419 850 
L 1538 850 
L 1241 0 
L 31 0 
L 1759 4666 
L 3194 4666 
L 4922 0 
L 3713 0 
L 3419 850 
z
M 1838 1716 
L 3116 1716 
L 2478 3572 
L 1838 1716 
z
" transform="scale(0.015625)"/>
     <path id="DejaVuSans-Bold-78" d="M 1422 1791 
L 159 3500 
L 1344 3500 
L 2059 2463 
L 2784 3500 
L 3969 3500 
L 2706 1797 
L 4031 0 
L 2847 0 
L 2059 1106 
L 1281 0 
L 97 0 
L 1422 1791 
z
" transform="scale(0.015625)"/>
    </defs>
    <use xlink:href="#DejaVuSans-Bold-42"/>
    <use xlink:href="#DejaVuSans-Bold-65" transform="translate(76.220703 0)"/>
    <use xlink:href="#DejaVuSans-Bold-6e" transform="translate(144.042969 0)"/>
    <use xlink:href="#DejaVuSans-Bold-63" transform="translate(215.234375 0)"/>
    <use xlink:href="#DejaVuSans-Bold-68" transform="translate(274.511719 0)"/>
    <use xlink:href="#DejaVuSans-Bold-6d" transform="translate(345.703125 0)"/>
    <use xlink:href="#DejaVuSans-Bold-61" transform="translate(449.902344 0)"/>
    <use xlink:href="#DejaVuSans-Bold-72" transform="translate(517.382812 0)"/>
    <use xlink:href="#DejaVuSans-Bold-6b" transform="translate(566.699219 0)"/>
    <use xlink:href="#DejaVuSans-Bold-20" transform="translate(633.203125 0)"/>
    <use xlink:href="#DejaVuSans-Bold-43" transform="translate(668.017578 0)"/>
    <use xlink:href="#DejaVuSans-Bold-6f" transform="translate(741.40625 0)"/>
    <use xlink:href="#DejaVuSans-Bold-72" transform="translate(810.107422 0)"/>
    <use xlink:href="#DejaVuSans-Bold-70" transform="translate(859.423828 0)"/>
    <use xlink:href="#DejaVuSans-Bold-75" transform="translate(931.005859 0)"/>
    <use xlink:href="#DejaVuSans-Bold-73" transform="translate(1002.197266 0)"/>
    <use xlink:href="#DejaVuSans-Bold-3a" transform="translate(1061.71875 0)"/>
    <use xlink:href="#DejaVuSans-Bold-20" transform="translate(1101.708984 0)"/>
    <use xlink:href="#DejaVuSans-Bold-4f" transform="translate(1136.523438 0)"/>
    <use xlink:href="#DejaVuSans-Bold-63" transform="translate(1221.533203 0)"/>
    <use xlink:href="#DejaVuSans-Bold-63" transform="translate(1280.810547 0)"/>
    <use xlink:href="#DejaVuSans-Bold-75" transform="translate(1340.087891 0)"/>
    <use xlink:href="#DejaVuSans-Bold-70" transform="translate(1411.279297 0)"/>
    <use xlink:href="#DejaVuSans-Bold-61" transform="translate(1482.861328 0)"/>
    <use xlink:href="#DejaVuSans-Bold-6e" transform="translate(1550.341797 0)"/>
    <use xlink:href="#DejaVuSans-Bold-63" transform="translate(1621.533203 0)"/>
    <use xlink:href="#DejaVuSans-Bold-79" transform="translate(1680.810547 0)"/>
    <use xlink:href="#DejaVuSans-Bold-2c" transform="translate(1738.246094 0)"/>
    <use xlink:href="#DejaVuSans-Bold-20" transform="translate(1776.234375 0)"/>
    <use xlink:href="#DejaVuSans-Bold-48" transform="translate(1811.048828 0)"/>
    <use xlink:href="#DejaVuSans-Bold-6f" transform="translate(1894.740234 0)"/>
    <use xlink:href="#DejaVuSans-Bold-6c" transform="translate(1963.441406 0)"/>
    <use xlink:href="#DejaVuSans-Bold-65" transform="translate(1997.71875 0)"/>
    <use xlink:href="#DejaVuSans-Bold-73" transform="translate(2065.541016 0)"/>
    <use xlink:href="#DejaVuSans-Bold-2c" transform="translate(2125.0625 0)"/>
    <use xlink:href="#DejaVuSans-Bold-20" transform="translate(2163.050781 0)"/>
    <use xlink:href="#DejaVuSans-Bold-43" transform="translate(2197.865234 0)"/>
    <use xlink:href="#DejaVuSans-Bold-6f" transform="translate(2271.253906 0)"/>
    <use xlink:href="#DejaVuSans-Bold-6e" transform="translate(2339.955078 0)"/>
    <use xlink:href="#DejaVuSans-Bold-63" transform="translate(2411.146484 0)"/>
    <use xlink:href="#DejaVuSans-Bold-61" transform="translate(2470.423828 0)"/>
    <use xlink:href="#DejaVuSans-Bold-76" transform="translate(2537.904297 0)"/>
    <use xlink:href="#DejaVuSans-Bold-69" transform="translate(2603.089844 0)"/>
    <use xlink:href="#DejaVuSans-Bold-74" transform="translate(2637.367188 0)"/>
    <use xlink:href="#DejaVuSans-Bold-79" transform="translate(2685.169922 0)"/>
    <use xlink:href="#DejaVuSans-Bold-2c" transform="translate(2742.605469 0)"/>
    <use xlink:href="#DejaVuSans-Bold-20" transform="translate(2780.59375 0)"/>
    <use xlink:href="#DejaVuSans-Bold-41" transform="translate(2815.408203 0)"/>
    <use xlink:href="#DejaVuSans-Bold-6e" transform="translate(2892.800781 0)"/>
    <use xlink:href="#DejaVuSans-Bold-64" transform="translate(2963.992188 0)"/>
    <use xlink:href="#DejaVuSans-Bold-20" transform="translate(3035.574219 0)"/>
    <use xlink:href="#DejaVuSans-Bold-42" transform="translate(3070.388672 0)"/>
    <use xlink:href="#DejaVuSans-Bold-6f" transform="translate(3146.609375 0)"/>
    <use xlink:href="#DejaVuSans-Bold-75" transform="translate(3215.310547 0)"/>
    <use xlink:href="#DejaVuSans-Bold-6e" transform="translate(3286.501953 0)"/>
    <use xlink:href="#DejaVuSans-Bold-64" transform="translate(3357.693359 0)"/>
    <use xlink:href="#DejaVuSans-Bold-61" transform="translate(3429.275391 0)"/>
    <use xlink:href="#DejaVuSans-Bold-72" transform="translate(3496.755859 0)"/>
    <use xlink:href="#DejaVuSans-Bold-79" transform="translate(3546.072266 0)"/>
    <use xlink:href="#DejaVuSans-Bold-20" transform="translate(3611.257812 0)"/>
    <use xlink:href="#DejaVuSans-Bold-43" transform="translate(3646.072266 0)"/>
    <use xlink:href="#DejaVuSans-Bold-6f" transform="translate(3719.460938 0)"/>
    <use xlink:href="#DejaVuSans-Bold-6d" transform="translate(3788.162109 0)"/>
    <use xlink:href="#DejaVuSans-Bold-70" transform="translate(3892.361328 0)"/>
    <use xlink:href="#DejaVuSans-Bold-6c" transform="translate(3963.943359 0)"/>
    <use xlink:href="#DejaVuSans-Bold-65" transform="translate(3998.220703 0)"/>
    <use xlink:href="#DejaVuSans-Bold-78" transform="translate(4066.042969 0)"/>
    <use xlink:href="#DejaVuSans-Bold-69" transform="translate(4130.544922 0)"/>
    <use xlink:href="#DejaVuSans-Bold-74" transform="translate(4164.822266 0)"/>
    <use xlink:href="#DejaVuSans-Bold-79" transform="translate(4212.625 0)"/>
   </g>
  </g>
 </g>
 <defs>
  <clipPath id="p7c0282aa68">
   <rect x="7.2" y="59.04" width="129.6" height="129.6"/>
  </clipPath>
  <clipPath id="padbd5e82bf">
   <rect x="199.696783" y="59.04" width="129.6" height="129.6"/>
  </clipPath>
  <clipPath id="p21863e8f13">
   <rect x="392.193566" y="59.04" width="129.6" height="129.6"/>
  </clipPath>
  <clipPath id="p7044d212a2">
   <rect x="584.69035" y="59.04" width="129.6" height="129.6"/>
  </clipPath>
  <clipPath id="p68484fc996">
   <rect x="777.187133" y="59.04" width="129.6" height="129.6"/>
  </clipPath>
  <clipPath id="p1960a1cac0">
   <rect x="7.2" y="253.44" width="129.6" height="129.6"/>
  </clipPath>
  <clipPath id="pa28634793d">
   <rect x="199.696783" y="253.44" width="129.6" height="129.6"/>
  </clipPath>
  <clipPath id="p0656a2cf89">
   <rect x="392.193566" y="253.44" width="129.6" height="129.6"/>
  </clipPath>
  <clipPath id="p8125225a82">
   <rect x="584.69035" y="253.44" width="129.6" height="129.6"/>
  </clipPath>
  <clipPath id="pd69b300217">
   <rect x="777.187133" y="253.44" width="129.6" height="129.6"/>
  </clipPath>
 </defs>
</svg>
