<?xml version="1.0" encoding="utf-8" standalone="no"?>
<!DOCTYPE svg PUBLIC "-//W3C//DTD SVG 1.1//EN"
  "http://www.w3.org/Graphics/SVG/1.1/DTD/svg11.dtd">
<svg xmlns:xlink="http://www.w3.org/1999/xlink" width="601.122422pt" height="372.617906pt" viewBox="0 0 601.122422 372.617906" xmlns="http://www.w3.org/2000/svg" version="1.1">
 <metadata>
  <rdf:RDF xmlns:dc="http://purl.org/dc/elements/1.1/" xmlns:cc="http://creativecommons.org/ns#" xmlns:rdf="http://www.w3.org/1999/02/22-rdf-syntax-ns#">
   <cc:Work>
    <dc:type rdf:resource="http://purl.org/dc/dcmitype/StillImage"/>
    <dc:date>2026-05-02T12:39:31.398439</dc:date>
    <dc:format>image/svg+xml</dc:format>
    <dc:creator>
     <cc:Agent>
      <dc:title>Matplotlib v3.10.9, https://matplotlib.org/</dc:title>
     </cc:Agent>
    </dc:creator>
   </cc:Work>
  </rdf:RDF>
 </metadata>
 <defs>
  <style type="text/css">*{stroke-linejoin: round; stroke-linecap: butt}</style>
 </defs>
 <g id="figure_1">
  <g id="patch_1">
   <path d="M 0 372.617906 
L 601.122422 372.617906 
L 601.122422 0 
L 0 0 
z
" style="fill: #f8fafc"/>
  </g>
  <g id="axes_1">
   <g id="patch_2">
    <path d="M 40.603125 335.061656 
L 576.283125 335.061656 
L 576.283125 24.597656 
L 40.603125 24.597656 
z
" style="fill: #ffffff"/>
   </g>
   <g id="matplotlib.axis_1">
    <g id="xtick_1">
     <g id="line2d_1">
      <path d="M 64.952216 335.061656 
L 64.952216 24.597656 
" clip-path="url(#p841a805928)" style="fill: none; stroke: #e2e8f0; stroke-opacity: 0.6; stroke-width: 0.6; stroke-linecap: square"/>
     </g>
     <g id="line2d_2">
      <defs>
       <path id="ma58c1d5110" d="M 0 0 
L 0 3.5 
" style="stroke: #000000; stroke-width: 0.8"/>
      </defs>
      <g>
       <use xlink:href="#ma58c1d5110" x="64.952216" y="335.061656" style="stroke: #000000; stroke-width: 0.8"/>
      </g>
     </g>
     <g id="text_1">
      <!-- $\mathdefault{0}$ -->
      <g transform="translate(61.752216 349.660094) scale(0.1 -0.1)">
       <defs>
        <path id="DejaVuSans-30" d="M 2034 4250 
Q 1547 4250 1301 3770 
Q 1056 3291 1056 2328 
Q 1056 1369 1301 889 
Q 1547 409 2034 409 
Q 2525 409 2770 889 
Q 3016 1369 3016 2328 
Q 3016 3291 2770 3770 
Q 2525 4250 2034 4250 
z
M 2034 4750 
Q 2819 4750 3233 4129 
Q 3647 3509 3647 2328 
Q 3647 1150 3233 529 
Q 2819 -91 2034 -91 
Q 1250 -91 836 529 
Q 422 1150 422 2328 
Q 422 3509 836 4129 
Q 1250 4750 2034 4750 
z
" transform="scale(0.015625)"/>
       </defs>
       <use xlink:href="#DejaVuSans-30" transform="translate(0 0.78125)"/>
      </g>
     </g>
    </g>
    <g id="xtick_2">
     <g id="line2d_3">
      <path d="M 215.384625 335.061656 
L 215.384625 24.597656 
" clip-path="url(#p841a805928)" style="fill: none; stroke: #e2e8f0; stroke-opacity: 0.6; stroke-width: 0.6; stroke-linecap: square"/>
     </g>
     <g id="line2d_4">
      <g>
       <use xlink:href="#ma58c1d5110" x="215.384625" y="335.061656" style="stroke: #000000; stroke-width: 0.8"/>
      </g>
     </g>
     <g id="text_2">
      <!-- $\mathdefault{10^{2}}$ -->
      <g transform="translate(206.584625 349.660094) scale(0.1 -0.1)">
       <defs>
        <path id="DejaVuSans-31" d="M 794 531 
L 1825 531 
L 1825 4091 
L 703 3866 
L 703 4441 
L 1819 4666 
L 2450 4666 
L 2450 531 
L 3481 531 
L 3481 0 
L 794 0 
L 794 531 
z
" transform="scale(0.015625)"/>
        <path id="DejaVuSans-32" d="M 1228 531 
L 3431 531 
L 3431 0 
L 469 0 
L 469 531 
Q 828 903 1448 1529 
Q 2069 2156 2228 2338 
Q 2531 2678 2651 2914 
Q 2772 3150 2772 3378 
Q 2772 3750 2511 3984 
Q 2250 4219 1831 4219 
Q 1534 4219 1204 4116 
Q 875 4013 500 3803 
L 500 4441 
Q 881 4594 1212 4672 
Q 1544 4750 1819 4750 
Q 2544 4750 2975 4387 
Q 3406 4025 3406 3419 
Q 3406 3131 3298 2873 
Q 3191 2616 2906 2266 
Q 2828 2175 2409 1742 
Q 1991 1309 1228 531 
z
" transform="scale(0.015625)"/>
       </defs>
       <use xlink:href="#DejaVuSans-31" transform="translate(0 0.765625)"/>
       <use xlink:href="#DejaVuSans-30" transform="translate(63.623047 0.765625)"/>
       <use xlink:href="#DejaVuSans-32" transform="translate(128.203125 39.046875) scale(0.7)"/>
      </g>
     </g>
    </g>
    <g id="xtick_3">
     <g id="line2d_5">
      <path d="M 412.224548 335.061656 
L 412.224548 24.597656 
" clip-path="url(#p841a805928)" style="fill: none; stroke: #e2e8f0; stroke-opacity: 0.6; stroke-width: 0.6; stroke-linecap: square"/>
     </g>
     <g id="line2d_6">
      <g>
       <use xlink:href="#ma58c1d5110" x="412.224548" y="335.061656" style="stroke: #000000; stroke-width: 0.8"/>
      </g>
     </g>
     <g id="text_3">
      <!-- $\mathdefault{10^{3}}$ -->
      <g transform="translate(403.424548 349.660094) scale(0.1 -0.1)">
       <defs>
        <path id="DejaVuSans-33" d="M 2597 2516 
Q 3050 2419 3304 2112 
Q 3559 1806 3559 1356 
Q 3559 666 3084 287 
Q 2609 -91 1734 -91 
Q 1441 -91 1130 -33 
Q 819 25 488 141 
L 488 750 
Q 750 597 1062 519 
Q 1375 441 1716 441 
Q 2309 441 2620 675 
Q 2931 909 2931 1356 
Q 2931 1769 2642 2001 
Q 2353 2234 1838 2234 
L 1294 2234 
L 1294 2753 
L 1863 2753 
Q 2328 2753 2575 2939 
Q 2822 3125 2822 3475 
Q 2822 3834 2567 4026 
Q 2313 4219 1838 4219 
Q 1578 4219 1281 4162 
Q 984 4106 628 3988 
L 628 4550 
Q 988 4650 1302 4700 
Q 1616 4750 1894 4750 
Q 2613 4750 3031 4423 
Q 3450 4097 3450 3541 
Q 3450 3153 3228 2886 
Q 3006 2619 2597 2516 
z
" transform="scale(0.015625)"/>
       </defs>
       <use xlink:href="#DejaVuSans-31" transform="translate(0 0.765625)"/>
       <use xlink:href="#DejaVuSans-30" transform="translate(63.623047 0.765625)"/>
       <use xlink:href="#DejaVuSans-33" transform="translate(128.203125 39.046875) scale(0.7)"/>
      </g>
     </g>
    </g>
    <g id="text_4">
     <!-- Decision threshold (bbox cells) -->
     <g transform="translate(231.523594 363.338219) scale(0.1 -0.1)">
      <defs>
       <path id="DejaVuSans-44" d="M 1259 4147 
L 1259 519 
L 2022 519 
Q 2988 519 3436 956 
Q 3884 1394 3884 2338 
Q 3884 3275 3436 3711 
Q 2988 4147 2022 4147 
L 1259 4147 
z
M 628 4666 
L 1925 4666 
Q 3281 4666 3915 4102 
Q 4550 3538 4550 2338 
Q 4550 1131 3912 565 
Q 3275 0 1925 0 
L 628 0 
L 628 4666 
z
" transform="scale(0.015625)"/>
       <path id="DejaVuSans-65" d="M 3597 1894 
L 3597 1613 
L 953 1613 
Q 991 1019 1311 708 
Q 1631 397 2203 397 
Q 2534 397 2845 478 
Q 3156 559 3463 722 
L 3463 178 
Q 3153 47 2828 -22 
Q 2503 -91 2169 -91 
Q 1331 -91 842 396 
Q 353 884 353 1716 
Q 353 2575 817 3079 
Q 1281 3584 2069 3584 
Q 2775 3584 3186 3129 
Q 3597 2675 3597 1894 
z
M 3022 2063 
Q 3016 2534 2758 2815 
Q 2500 3097 2075 3097 
Q 1594 3097 1305 2825 
Q 1016 2553 972 2059 
L 3022 2063 
z
" transform="scale(0.015625)"/>
       <path id="DejaVuSans-63" d="M 3122 3366 
L 3122 2828 
Q 2878 2963 2633 3030 
Q 2388 3097 2138 3097 
Q 1578 3097 1268 2742 
Q 959 2388 959 1747 
Q 959 1106 1268 751 
Q 1578 397 2138 397 
Q 2388 397 2633 464 
Q 2878 531 3122 666 
L 3122 134 
Q 2881 22 2623 -34 
Q 2366 -91 2075 -91 
Q 1284 -91 818 406 
Q 353 903 353 1747 
Q 353 2603 823 3093 
Q 1294 3584 2113 3584 
Q 2378 3584 2631 3529 
Q 2884 3475 3122 3366 
z
" transform="scale(0.015625)"/>
       <path id="DejaVuSans-69" d="M 603 3500 
L 1178 3500 
L 1178 0 
L 603 0 
L 603 3500 
z
M 603 4863 
L 1178 4863 
L 1178 4134 
L 603 4134 
L 603 4863 
z
" transform="scale(0.015625)"/>
       <path id="DejaVuSans-73" d="M 2834 3397 
L 2834 2853 
Q 2591 2978 2328 3040 
Q 2066 3103 1784 3103 
Q 1356 3103 1142 2972 
Q 928 2841 928 2578 
Q 928 2378 1081 2264 
Q 1234 2150 1697 2047 
L 1894 2003 
Q 2506 1872 2764 1633 
Q 3022 1394 3022 966 
Q 3022 478 2636 193 
Q 2250 -91 1575 -91 
Q 1294 -91 989 -36 
Q 684 19 347 128 
L 347 722 
Q 666 556 975 473 
Q 1284 391 1588 391 
Q 1994 391 2212 530 
Q 2431 669 2431 922 
Q 2431 1156 2273 1281 
Q 2116 1406 1581 1522 
L 1381 1569 
Q 847 1681 609 1914 
Q 372 2147 372 2553 
Q 372 3047 722 3315 
Q 1072 3584 1716 3584 
Q 2034 3584 2315 3537 
Q 2597 3491 2834 3397 
z
" transform="scale(0.015625)"/>
       <path id="DejaVuSans-6f" d="M 1959 3097 
Q 1497 3097 1228 2736 
Q 959 2375 959 1747 
Q 959 1119 1226 758 
Q 1494 397 1959 397 
Q 2419 397 2687 759 
Q 2956 1122 2956 1747 
Q 2956 2369 2687 2733 
Q 2419 3097 1959 3097 
z
M 1959 3584 
Q 2709 3584 3137 3096 
Q 3566 2609 3566 1747 
Q 3566 888 3137 398 
Q 2709 -91 1959 -91 
Q 1206 -91 779 398 
Q 353 888 353 1747 
Q 353 2609 779 3096 
Q 1206 3584 1959 3584 
z
" transform="scale(0.015625)"/>
       <path id="DejaVuSans-6e" d="M 3513 2113 
L 3513 0 
L 2938 0 
L 2938 2094 
Q 2938 2591 2744 2837 
Q 2550 3084 2163 3084 
Q 1697 3084 1428 2787 
Q 1159 2491 1159 1978 
L 1159 0 
L 581 0 
L 581 3500 
L 1159 3500 
L 1159 2956 
Q 1366 3272 1645 3428 
Q 1925 3584 2291 3584 
Q 2894 3584 3203 3211 
Q 3513 2838 3513 2113 
z
" transform="scale(0.015625)"/>
       <path id="DejaVuSans-20" transform="scale(0.015625)"/>
       <path id="DejaVuSans-74" d="M 1172 4494 
L 1172 3500 
L 2356 3500 
L 2356 3053 
L 1172 3053 
L 1172 1153 
Q 1172 725 1289 603 
Q 1406 481 1766 481 
L 2356 481 
L 2356 0 
L 1766 0 
Q 1100 0 847 248 
Q 594 497 594 1153 
L 594 3053 
L 172 3053 
L 172 3500 
L 594 3500 
L 594 4494 
L 1172 4494 
z
" transform="scale(0.015625)"/>
       <path id="DejaVuSans-68" d="M 3513 2113 
L 3513 0 
L 2938 0 
L 2938 2094 
Q 2938 2591 2744 2837 
Q 2550 3084 2163 3084 
Q 1697 3084 1428 2787 
Q 1159 2491 1159 1978 
L 1159 0 
L 581 0 
L 581 4863 
L 1159 4863 
L 1159 2956 
Q 1366 3272 1645 3428 
Q 1925 3584 2291 3584 
Q 2894 3584 3203 3211 
Q 3513 2838 3513 2113 
z
" transform="scale(0.015625)"/>
       <path id="DejaVuSans-72" d="M 2631 2963 
Q 2534 3019 2420 3045 
Q 2306 3072 2169 3072 
Q 1681 3072 1420 2755 
Q 1159 2438 1159 1844 
L 1159 0 
L 581 0 
L 581 3500 
L 1159 3500 
L 1159 2956 
Q 1341 3275 1631 3429 
Q 1922 3584 2338 3584 
Q 2397 3584 2469 3576 
Q 2541 3569 2628 3553 
L 2631 2963 
z
" transform="scale(0.015625)"/>
       <path id="DejaVuSans-6c" d="M 603 4863 
L 1178 4863 
L 1178 0 
L 603 0 
L 603 4863 
z
" transform="scale(0.015625)"/>
       <path id="DejaVuSans-64" d="M 2906 2969 
L 2906 4863 
L 3481 4863 
L 3481 0 
L 2906 0 
L 2906 525 
Q 2725 213 2448 61 
Q 2172 -91 1784 -91 
Q 1150 -91 751 415 
Q 353 922 353 1747 
Q 353 2572 751 3078 
Q 1150 3584 1784 3584 
Q 2172 3584 2448 3432 
Q 2725 3281 2906 2969 
z
M 947 1747 
Q 947 1113 1208 752 
Q 1469 391 1925 391 
Q 2381 391 2643 752 
Q 2906 1113 2906 1747 
Q 2906 2381 2643 2742 
Q 2381 3103 1925 3103 
Q 1469 3103 1208 2742 
Q 947 2381 947 1747 
z
" transform="scale(0.015625)"/>
       <path id="DejaVuSans-28" d="M 1984 4856 
Q 1566 4138 1362 3434 
Q 1159 2731 1159 2009 
Q 1159 1288 1364 580 
Q 1569 -128 1984 -844 
L 1484 -844 
Q 1016 -109 783 600 
Q 550 1309 550 2009 
Q 550 2706 781 3412 
Q 1013 4119 1484 4856 
L 1984 4856 
z
" transform="scale(0.015625)"/>
       <path id="DejaVuSans-62" d="M 3116 1747 
Q 3116 2381 2855 2742 
Q 2594 3103 2138 3103 
Q 1681 3103 1420 2742 
Q 1159 2381 1159 1747 
Q 1159 1113 1420 752 
Q 1681 391 2138 391 
Q 2594 391 2855 752 
Q 3116 1113 3116 1747 
z
M 1159 2969 
Q 1341 3281 1617 3432 
Q 1894 3584 2278 3584 
Q 2916 3584 3314 3078 
Q 3713 2572 3713 1747 
Q 3713 922 3314 415 
Q 2916 -91 2278 -91 
Q 1894 -91 1617 61 
Q 1341 213 1159 525 
L 1159 0 
L 581 0 
L 581 4863 
L 1159 4863 
L 1159 2969 
z
" transform="scale(0.015625)"/>
       <path id="DejaVuSans-78" d="M 3513 3500 
L 2247 1797 
L 3578 0 
L 2900 0 
L 1881 1375 
L 863 0 
L 184 0 
L 1544 1831 
L 300 3500 
L 978 3500 
L 1906 2253 
L 2834 3500 
L 3513 3500 
z
" transform="scale(0.015625)"/>
       <path id="DejaVuSans-29" d="M 513 4856 
L 1013 4856 
Q 1481 4119 1714 3412 
Q 1947 2706 1947 2009 
Q 1947 1309 1714 600 
Q 1481 -109 1013 -844 
L 513 -844 
Q 928 -128 1133 580 
Q 1338 1288 1338 2009 
Q 1338 2731 1133 3434 
Q 928 4138 513 4856 
z
" transform="scale(0.015625)"/>
      </defs>
      <use xlink:href="#DejaVuSans-44"/>
      <use xlink:href="#DejaVuSans-65" transform="translate(77.001953 0)"/>
      <use xlink:href="#DejaVuSans-63" transform="translate(138.525391 0)"/>
      <use xlink:href="#DejaVuSans-69" transform="translate(193.505859 0)"/>
      <use xlink:href="#DejaVuSans-73" transform="translate(221.289062 0)"/>
      <use xlink:href="#DejaVuSans-69" transform="translate(273.388672 0)"/>
      <use xlink:href="#DejaVuSans-6f" transform="translate(301.171875 0)"/>
      <use xlink:href="#DejaVuSans-6e" transform="translate(362.353516 0)"/>
      <use xlink:href="#DejaVuSans-20" transform="translate(425.732422 0)"/>
      <use xlink:href="#DejaVuSans-74" transform="translate(457.519531 0)"/>
      <use xlink:href="#DejaVuSans-68" transform="translate(496.728516 0)"/>
      <use xlink:href="#DejaVuSans-72" transform="translate(560.107422 0)"/>
      <use xlink:href="#DejaVuSans-65" transform="translate(598.970703 0)"/>
      <use xlink:href="#DejaVuSans-73" transform="translate(660.494141 0)"/>
      <use xlink:href="#DejaVuSans-68" transform="translate(712.59375 0)"/>
      <use xlink:href="#DejaVuSans-6f" transform="translate(775.972656 0)"/>
      <use xlink:href="#DejaVuSans-6c" transform="translate(837.154297 0)"/>
      <use xlink:href="#DejaVuSans-64" transform="translate(864.9375 0)"/>
      <use xlink:href="#DejaVuSans-20" transform="translate(928.414062 0)"/>
      <use xlink:href="#DejaVuSans-28" transform="translate(960.201172 0)"/>
      <use xlink:href="#DejaVuSans-62" transform="translate(999.214844 0)"/>
      <use xlink:href="#DejaVuSans-62" transform="translate(1062.691406 0)"/>
      <use xlink:href="#DejaVuSans-6f" transform="translate(1126.167969 0)"/>
      <use xlink:href="#DejaVuSans-78" transform="translate(1184.224609 0)"/>
      <use xlink:href="#DejaVuSans-20" transform="translate(1243.404297 0)"/>
      <use xlink:href="#DejaVuSans-63" transform="translate(1275.191406 0)"/>
      <use xlink:href="#DejaVuSans-65" transform="translate(1330.171875 0)"/>
      <use xlink:href="#DejaVuSans-6c" transform="translate(1391.695312 0)"/>
      <use xlink:href="#DejaVuSans-6c" transform="translate(1419.478516 0)"/>
      <use xlink:href="#DejaVuSans-73" transform="translate(1447.261719 0)"/>
      <use xlink:href="#DejaVuSans-29" transform="translate(1499.361328 0)"/>
     </g>
    </g>
   </g>
   <g id="matplotlib.axis_2">
    <g id="ytick_1">
     <g id="line2d_7">
      <path d="M 40.603125 334.974307 
L 576.283125 334.974307 
" clip-path="url(#p841a805928)" style="fill: none; stroke: #cbd5e1; stroke-opacity: 0.8; stroke-width: 0.8; stroke-linecap: square"/>
     </g>
     <g id="line2d_8">
      <defs>
       <path id="mdb172413e0" d="M 0 0 
L -3.5 0 
" style="stroke: #000000; stroke-width: 0.8"/>
      </defs>
      <g>
       <use xlink:href="#mdb172413e0" x="40.603125" y="334.974307" style="stroke: #000000; stroke-width: 0.8"/>
      </g>
     </g>
     <g id="text_5">
      <!-- 0 -->
      <g transform="translate(27.240625 338.773525) scale(0.1 -0.1)">
       <use xlink:href="#DejaVuSans-30"/>
      </g>
     </g>
    </g>
    <g id="ytick_2">
     <g id="line2d_9">
      <path d="M 40.603125 300.034421 
L 576.283125 300.034421 
" clip-path="url(#p841a805928)" style="fill: none; stroke: #cbd5e1; stroke-opacity: 0.8; stroke-width: 0.8; stroke-linecap: square"/>
     </g>
     <g id="line2d_10">
      <g>
       <use xlink:href="#mdb172413e0" x="40.603125" y="300.034421" style="stroke: #000000; stroke-width: 0.8"/>
      </g>
     </g>
     <g id="text_6">
      <!-- 2 -->
      <g transform="translate(27.240625 303.83364) scale(0.1 -0.1)">
       <use xlink:href="#DejaVuSans-32"/>
      </g>
     </g>
    </g>
    <g id="ytick_3">
     <g id="line2d_11">
      <path d="M 40.603125 265.094536 
L 576.283125 265.094536 
" clip-path="url(#p841a805928)" style="fill: none; stroke: #cbd5e1; stroke-opacity: 0.8; stroke-width: 0.8; stroke-linecap: square"/>
     </g>
     <g id="line2d_12">
      <g>
       <use xlink:href="#mdb172413e0" x="40.603125" y="265.094536" style="stroke: #000000; stroke-width: 0.8"/>
      </g>
     </g>
     <g id="text_7">
      <!-- 4 -->
      <g transform="translate(27.240625 268.893755) scale(0.1 -0.1)">
       <defs>
        <path id="DejaVuSans-34" d="M 2419 4116 
L 825 1625 
L 2419 1625 
L 2419 4116 
z
M 2253 4666 
L 3047 4666 
L 3047 1625 
L 3713 1625 
L 3713 1100 
L 3047 1100 
L 3047 0 
L 2419 0 
L 2419 1100 
L 313 1100 
L 313 1709 
L 2253 4666 
z
" transform="scale(0.015625)"/>
       </defs>
       <use xlink:href="#DejaVuSans-34"/>
      </g>
     </g>
    </g>
    <g id="ytick_4">
     <g id="line2d_13">
      <path d="M 40.603125 230.154651 
L 576.283125 230.154651 
" clip-path="url(#p841a805928)" style="fill: none; stroke: #cbd5e1; stroke-opacity: 0.8; stroke-width: 0.8; stroke-linecap: square"/>
     </g>
     <g id="line2d_14">
      <g>
       <use xlink:href="#mdb172413e0" x="40.603125" y="230.154651" style="stroke: #000000; stroke-width: 0.8"/>
      </g>
     </g>
     <g id="text_8">
      <!-- 6 -->
      <g transform="translate(27.240625 233.95387) scale(0.1 -0.1)">
       <defs>
        <path id="DejaVuSans-36" d="M 2113 2584 
Q 1688 2584 1439 2293 
Q 1191 2003 1191 1497 
Q 1191 994 1439 701 
Q 1688 409 2113 409 
Q 2538 409 2786 701 
Q 3034 994 3034 1497 
Q 3034 2003 2786 2293 
Q 2538 2584 2113 2584 
z
M 3366 4563 
L 3366 3988 
Q 3128 4100 2886 4159 
Q 2644 4219 2406 4219 
Q 1781 4219 1451 3797 
Q 1122 3375 1075 2522 
Q 1259 2794 1537 2939 
Q 1816 3084 2150 3084 
Q 2853 3084 3261 2657 
Q 3669 2231 3669 1497 
Q 3669 778 3244 343 
Q 2819 -91 2113 -91 
Q 1303 -91 875 529 
Q 447 1150 447 2328 
Q 447 3434 972 4092 
Q 1497 4750 2381 4750 
Q 2619 4750 2861 4703 
Q 3103 4656 3366 4563 
z
" transform="scale(0.015625)"/>
       </defs>
       <use xlink:href="#DejaVuSans-36"/>
      </g>
     </g>
    </g>
    <g id="ytick_5">
     <g id="line2d_15">
      <path d="M 40.603125 195.214765 
L 576.283125 195.214765 
" clip-path="url(#p841a805928)" style="fill: none; stroke: #cbd5e1; stroke-opacity: 0.8; stroke-width: 0.8; stroke-linecap: square"/>
     </g>
     <g id="line2d_16">
      <g>
       <use xlink:href="#mdb172413e0" x="40.603125" y="195.214765" style="stroke: #000000; stroke-width: 0.8"/>
      </g>
     </g>
     <g id="text_9">
      <!-- 8 -->
      <g transform="translate(27.240625 199.013984) scale(0.1 -0.1)">
       <defs>
        <path id="DejaVuSans-38" d="M 2034 2216 
Q 1584 2216 1326 1975 
Q 1069 1734 1069 1313 
Q 1069 891 1326 650 
Q 1584 409 2034 409 
Q 2484 409 2743 651 
Q 3003 894 3003 1313 
Q 3003 1734 2745 1975 
Q 2488 2216 2034 2216 
z
M 1403 2484 
Q 997 2584 770 2862 
Q 544 3141 544 3541 
Q 544 4100 942 4425 
Q 1341 4750 2034 4750 
Q 2731 4750 3128 4425 
Q 3525 4100 3525 3541 
Q 3525 3141 3298 2862 
Q 3072 2584 2669 2484 
Q 3125 2378 3379 2068 
Q 3634 1759 3634 1313 
Q 3634 634 3220 271 
Q 2806 -91 2034 -91 
Q 1263 -91 848 271 
Q 434 634 434 1313 
Q 434 1759 690 2068 
Q 947 2378 1403 2484 
z
M 1172 3481 
Q 1172 3119 1398 2916 
Q 1625 2713 2034 2713 
Q 2441 2713 2670 2916 
Q 2900 3119 2900 3481 
Q 2900 3844 2670 4047 
Q 2441 4250 2034 4250 
Q 1625 4250 1398 4047 
Q 1172 3844 1172 3481 
z
" transform="scale(0.015625)"/>
       </defs>
       <use xlink:href="#DejaVuSans-38"/>
      </g>
     </g>
    </g>
    <g id="ytick_6">
     <g id="line2d_17">
      <path d="M 40.603125 160.27488 
L 576.283125 160.27488 
" clip-path="url(#p841a805928)" style="fill: none; stroke: #cbd5e1; stroke-opacity: 0.8; stroke-width: 0.8; stroke-linecap: square"/>
     </g>
     <g id="line2d_18">
      <g>
       <use xlink:href="#mdb172413e0" x="40.603125" y="160.27488" style="stroke: #000000; stroke-width: 0.8"/>
      </g>
     </g>
     <g id="text_10">
      <!-- 10 -->
      <g transform="translate(20.878125 164.074099) scale(0.1 -0.1)">
       <use xlink:href="#DejaVuSans-31"/>
       <use xlink:href="#DejaVuSans-30" transform="translate(63.623047 0)"/>
      </g>
     </g>
    </g>
    <g id="ytick_7">
     <g id="line2d_19">
      <path d="M 40.603125 125.334995 
L 576.283125 125.334995 
" clip-path="url(#p841a805928)" style="fill: none; stroke: #cbd5e1; stroke-opacity: 0.8; stroke-width: 0.8; stroke-linecap: square"/>
     </g>
     <g id="line2d_20">
      <g>
       <use xlink:href="#mdb172413e0" x="40.603125" y="125.334995" style="stroke: #000000; stroke-width: 0.8"/>
      </g>
     </g>
     <g id="text_11">
      <!-- 12 -->
      <g transform="translate(20.878125 129.134214) scale(0.1 -0.1)">
       <use xlink:href="#DejaVuSans-31"/>
       <use xlink:href="#DejaVuSans-32" transform="translate(63.623047 0)"/>
      </g>
     </g>
    </g>
    <g id="ytick_8">
     <g id="line2d_21">
      <path d="M 40.603125 90.39511 
L 576.283125 90.39511 
" clip-path="url(#p841a805928)" style="fill: none; stroke: #cbd5e1; stroke-opacity: 0.8; stroke-width: 0.8; stroke-linecap: square"/>
     </g>
     <g id="line2d_22">
      <g>
       <use xlink:href="#mdb172413e0" x="40.603125" y="90.39511" style="stroke: #000000; stroke-width: 0.8"/>
      </g>
     </g>
     <g id="text_12">
      <!-- 14 -->
      <g transform="translate(20.878125 94.194328) scale(0.1 -0.1)">
       <use xlink:href="#DejaVuSans-31"/>
       <use xlink:href="#DejaVuSans-34" transform="translate(63.623047 0)"/>
      </g>
     </g>
    </g>
    <g id="ytick_9">
     <g id="line2d_23">
      <path d="M 40.603125 55.455224 
L 576.283125 55.455224 
" clip-path="url(#p841a805928)" style="fill: none; stroke: #cbd5e1; stroke-opacity: 0.8; stroke-width: 0.8; stroke-linecap: square"/>
     </g>
     <g id="line2d_24">
      <g>
       <use xlink:href="#mdb172413e0" x="40.603125" y="55.455224" style="stroke: #000000; stroke-width: 0.8"/>
      </g>
     </g>
     <g id="text_13">
      <!-- 16 -->
      <g transform="translate(20.878125 59.254443) scale(0.1 -0.1)">
       <use xlink:href="#DejaVuSans-31"/>
       <use xlink:href="#DejaVuSans-36" transform="translate(63.623047 0)"/>
      </g>
     </g>
    </g>
    <g id="text_14">
     <!-- Aggregate runtime above best (%) -->
     <g transform="translate(14.798438 266.739812) rotate(-90) scale(0.1 -0.1)">
      <defs>
       <path id="DejaVuSans-41" d="M 2188 4044 
L 1331 1722 
L 3047 1722 
L 2188 4044 
z
M 1831 4666 
L 2547 4666 
L 4325 0 
L 3669 0 
L 3244 1197 
L 1141 1197 
L 716 0 
L 50 0 
L 1831 4666 
z
" transform="scale(0.015625)"/>
       <path id="DejaVuSans-67" d="M 2906 1791 
Q 2906 2416 2648 2759 
Q 2391 3103 1925 3103 
Q 1463 3103 1205 2759 
Q 947 2416 947 1791 
Q 947 1169 1205 825 
Q 1463 481 1925 481 
Q 2391 481 2648 825 
Q 2906 1169 2906 1791 
z
M 3481 434 
Q 3481 -459 3084 -895 
Q 2688 -1331 1869 -1331 
Q 1566 -1331 1297 -1286 
Q 1028 -1241 775 -1147 
L 775 -588 
Q 1028 -725 1275 -790 
Q 1522 -856 1778 -856 
Q 2344 -856 2625 -561 
Q 2906 -266 2906 331 
L 2906 616 
Q 2728 306 2450 153 
Q 2172 0 1784 0 
Q 1141 0 747 490 
Q 353 981 353 1791 
Q 353 2603 747 3093 
Q 1141 3584 1784 3584 
Q 2172 3584 2450 3431 
Q 2728 3278 2906 2969 
L 2906 3500 
L 3481 3500 
L 3481 434 
z
" transform="scale(0.015625)"/>
       <path id="DejaVuSans-61" d="M 2194 1759 
Q 1497 1759 1228 1600 
Q 959 1441 959 1056 
Q 959 750 1161 570 
Q 1363 391 1709 391 
Q 2188 391 2477 730 
Q 2766 1069 2766 1631 
L 2766 1759 
L 2194 1759 
z
M 3341 1997 
L 3341 0 
L 2766 0 
L 2766 531 
Q 2569 213 2275 61 
Q 1981 -91 1556 -91 
Q 1019 -91 701 211 
Q 384 513 384 1019 
Q 384 1609 779 1909 
Q 1175 2209 1959 2209 
L 2766 2209 
L 2766 2266 
Q 2766 2663 2505 2880 
Q 2244 3097 1772 3097 
Q 1472 3097 1187 3025 
Q 903 2953 641 2809 
L 641 3341 
Q 956 3463 1253 3523 
Q 1550 3584 1831 3584 
Q 2591 3584 2966 3190 
Q 3341 2797 3341 1997 
z
" transform="scale(0.015625)"/>
       <path id="DejaVuSans-75" d="M 544 1381 
L 544 3500 
L 1119 3500 
L 1119 1403 
Q 1119 906 1312 657 
Q 1506 409 1894 409 
Q 2359 409 2629 706 
Q 2900 1003 2900 1516 
L 2900 3500 
L 3475 3500 
L 3475 0 
L 2900 0 
L 2900 538 
Q 2691 219 2414 64 
Q 2138 -91 1772 -91 
Q 1169 -91 856 284 
Q 544 659 544 1381 
z
M 1991 3584 
L 1991 3584 
z
" transform="scale(0.015625)"/>
       <path id="DejaVuSans-6d" d="M 3328 2828 
Q 3544 3216 3844 3400 
Q 4144 3584 4550 3584 
Q 5097 3584 5394 3201 
Q 5691 2819 5691 2113 
L 5691 0 
L 5113 0 
L 5113 2094 
Q 5113 2597 4934 2840 
Q 4756 3084 4391 3084 
Q 3944 3084 3684 2787 
Q 3425 2491 3425 1978 
L 3425 0 
L 2847 0 
L 2847 2094 
Q 2847 2600 2669 2842 
Q 2491 3084 2119 3084 
Q 1678 3084 1418 2786 
Q 1159 2488 1159 1978 
L 1159 0 
L 581 0 
L 581 3500 
L 1159 3500 
L 1159 2956 
Q 1356 3278 1631 3431 
Q 1906 3584 2284 3584 
Q 2666 3584 2933 3390 
Q 3200 3197 3328 2828 
z
" transform="scale(0.015625)"/>
       <path id="DejaVuSans-76" d="M 191 3500 
L 800 3500 
L 1894 563 
L 2988 3500 
L 3597 3500 
L 2284 0 
L 1503 0 
L 191 3500 
z
" transform="scale(0.015625)"/>
       <path id="DejaVuSans-25" d="M 4653 2053 
Q 4381 2053 4226 1822 
Q 4072 1591 4072 1178 
Q 4072 772 4226 539 
Q 4381 306 4653 306 
Q 4919 306 5073 539 
Q 5228 772 5228 1178 
Q 5228 1588 5073 1820 
Q 4919 2053 4653 2053 
z
M 4653 2450 
Q 5147 2450 5437 2106 
Q 5728 1763 5728 1178 
Q 5728 594 5436 251 
Q 5144 -91 4653 -91 
Q 4153 -91 3862 251 
Q 3572 594 3572 1178 
Q 3572 1766 3864 2108 
Q 4156 2450 4653 2450 
z
M 1428 4353 
Q 1159 4353 1004 4120 
Q 850 3888 850 3481 
Q 850 3069 1003 2837 
Q 1156 2606 1428 2606 
Q 1700 2606 1854 2837 
Q 2009 3069 2009 3481 
Q 2009 3884 1853 4118 
Q 1697 4353 1428 4353 
z
M 4250 4750 
L 4750 4750 
L 1831 -91 
L 1331 -91 
L 4250 4750 
z
M 1428 4750 
Q 1922 4750 2215 4408 
Q 2509 4066 2509 3481 
Q 2509 2891 2217 2550 
Q 1925 2209 1428 2209 
Q 931 2209 642 2551 
Q 353 2894 353 3481 
Q 353 4063 643 4406 
Q 934 4750 1428 4750 
z
" transform="scale(0.015625)"/>
      </defs>
      <use xlink:href="#DejaVuSans-41"/>
      <use xlink:href="#DejaVuSans-67" transform="translate(68.408203 0)"/>
      <use xlink:href="#DejaVuSans-67" transform="translate(131.884766 0)"/>
      <use xlink:href="#DejaVuSans-72" transform="translate(195.361328 0)"/>
      <use xlink:href="#DejaVuSans-65" transform="translate(234.224609 0)"/>
      <use xlink:href="#DejaVuSans-67" transform="translate(295.748047 0)"/>
      <use xlink:href="#DejaVuSans-61" transform="translate(359.224609 0)"/>
      <use xlink:href="#DejaVuSans-74" transform="translate(420.503906 0)"/>
      <use xlink:href="#DejaVuSans-65" transform="translate(459.712891 0)"/>
      <use xlink:href="#DejaVuSans-20" transform="translate(521.236328 0)"/>
      <use xlink:href="#DejaVuSans-72" transform="translate(553.023438 0)"/>
      <use xlink:href="#DejaVuSans-75" transform="translate(594.136719 0)"/>
      <use xlink:href="#DejaVuSans-6e" transform="translate(657.515625 0)"/>
      <use xlink:href="#DejaVuSans-74" transform="translate(720.894531 0)"/>
      <use xlink:href="#DejaVuSans-69" transform="translate(760.103516 0)"/>
      <use xlink:href="#DejaVuSans-6d" transform="translate(787.886719 0)"/>
      <use xlink:href="#DejaVuSans-65" transform="translate(885.298828 0)"/>
      <use xlink:href="#DejaVuSans-20" transform="translate(946.822266 0)"/>
      <use xlink:href="#DejaVuSans-61" transform="translate(978.609375 0)"/>
      <use xlink:href="#DejaVuSans-62" transform="translate(1039.888672 0)"/>
      <use xlink:href="#DejaVuSans-6f" transform="translate(1103.365234 0)"/>
      <use xlink:href="#DejaVuSans-76" transform="translate(1164.546875 0)"/>
      <use xlink:href="#DejaVuSans-65" transform="translate(1223.726562 0)"/>
      <use xlink:href="#DejaVuSans-20" transform="translate(1285.25 0)"/>
      <use xlink:href="#DejaVuSans-62" transform="translate(1317.037109 0)"/>
      <use xlink:href="#DejaVuSans-65" transform="translate(1380.513672 0)"/>
      <use xlink:href="#DejaVuSans-73" transform="translate(1442.037109 0)"/>
      <use xlink:href="#DejaVuSans-74" transform="translate(1494.136719 0)"/>
      <use xlink:href="#DejaVuSans-20" transform="translate(1533.345703 0)"/>
      <use xlink:href="#DejaVuSans-28" transform="translate(1565.132812 0)"/>
      <use xlink:href="#DejaVuSans-25" transform="translate(1604.146484 0)"/>
      <use xlink:href="#DejaVuSans-29" transform="translate(1699.166016 0)"/>
     </g>
    </g>
   </g>
   <g id="line2d_25">
    <path d="M 64.952216 334.974307 
L 186.802468 333.039961 
L 200.341384 332.850758 
L 215.384625 332.705127 
L 246.975431 331.122558 
L 259.82165 330.877373 
L 266.370337 331.194078 
L 272.394545 330.527233 
L 278.418753 327.741936 
L 283.996299 327.205011 
L 289.573844 326.970628 
L 294.766415 327.117548 
L 299.958986 323.230091 
L 304.816311 323.169866 
L 309.673637 322.188024 
L 314.236393 321.986571 
L 318.799149 318.583764 
L 323.10103 317.791676 
L 331.472141 316.802609 
L 335.541371 313.199217 
L 339.401828 312.610509 
L 343.262286 311.877082 
L 346.934352 312.08359 
L 350.606418 311.640383 
L 357.608836 311.18145 
L 360.954384 311.037353 
L 364.157524 310.778498 
L 364.299931 304.090366 
L 367.503071 303.472596 
L 373.778573 302.894024 
L 376.850935 302.197551 
L 385.595056 302.279844 
L 388.332173 302.089816 
L 388.435484 293.081156 
L 391.172601 292.105135 
L 399.102289 291.423795 
L 399.191834 290.715086 
L 404.29486 289.216534 
L 409.152185 288.854491 
L 409.230543 276.549297 
L 411.620027 276.240803 
L 413.935977 275.44398 
L 414.009511 273.179405 
L 418.572267 272.618326 
L 423.135023 270.519988 
L 427.436904 269.765101 
L 427.498367 253.54902 
L 431.680689 252.749301 
L 433.800898 249.967726 
L 437.762993 248.859831 
L 441.832223 249.088581 
L 443.787201 246.979832 
L 453.128652 244.572449 
L 454.942292 243.838573 
L 458.484217 218.579644 
L 460.134863 217.229735 
L 463.560011 215.777941 
L 466.908867 214.742232 
L 475.042085 211.254931 
L 484.167597 205.481827 
L 487.090501 204.295085 
L 489.957728 163.52486 
L 491.31193 162.108341 
L 491.364543 160.706273 
L 495.508475 158.996623 
L 499.436102 157.288884 
L 504.814276 155.563986 
L 506.100845 148.780268 
L 515.974866 139.876635 
L 521.828217 138.04684 
L 522.977284 136.870032 
L 525.240858 76.456839 
L 526.256696 74.564009 
L 527.454619 72.49401 
L 530.720139 69.624132 
L 534.933632 66.8521 
L 540.198885 53.630589 
L 551.934034 39.377497 
" clip-path="url(#p841a805928)" style="fill: none; stroke: #2563eb; stroke-width: 2.2; stroke-linecap: square"/>
    <defs>
     <path id="m45ad99e533" d="M 0 2 
C 0.530406 2 1.03916 1.789267 1.414214 1.414214 
C 1.789267 1.03916 2 0.530406 2 0 
C 2 -0.530406 1.789267 -1.03916 1.414214 -1.414214 
C 1.03916 -1.789267 0.530406 -2 0 -2 
C -0.530406 -2 -1.03916 -1.789267 -1.414214 -1.414214 
C -1.789267 -1.03916 -2 -0.530406 -2 0 
C -2 0.530406 -1.789267 1.03916 -1.414214 1.414214 
C -1.03916 1.789267 -0.530406 2 0 2 
z
" style="stroke: #2563eb"/>
    </defs>
    <g clip-path="url(#p841a805928)">
     <use xlink:href="#m45ad99e533" x="64.952216" y="334.974307" style="fill: #2563eb; stroke: #2563eb"/>
     <use xlink:href="#m45ad99e533" x="186.802468" y="333.039961" style="fill: #2563eb; stroke: #2563eb"/>
     <use xlink:href="#m45ad99e533" x="200.341384" y="332.850758" style="fill: #2563eb; stroke: #2563eb"/>
     <use xlink:href="#m45ad99e533" x="215.384625" y="332.705127" style="fill: #2563eb; stroke: #2563eb"/>
     <use xlink:href="#m45ad99e533" x="246.975431" y="331.122558" style="fill: #2563eb; stroke: #2563eb"/>
     <use xlink:href="#m45ad99e533" x="259.82165" y="330.877373" style="fill: #2563eb; stroke: #2563eb"/>
     <use xlink:href="#m45ad99e533" x="266.370337" y="331.194078" style="fill: #2563eb; stroke: #2563eb"/>
     <use xlink:href="#m45ad99e533" x="272.394545" y="330.527233" style="fill: #2563eb; stroke: #2563eb"/>
     <use xlink:href="#m45ad99e533" x="278.418753" y="327.741936" style="fill: #2563eb; stroke: #2563eb"/>
     <use xlink:href="#m45ad99e533" x="283.996299" y="327.205011" style="fill: #2563eb; stroke: #2563eb"/>
     <use xlink:href="#m45ad99e533" x="289.573844" y="326.970628" style="fill: #2563eb; stroke: #2563eb"/>
     <use xlink:href="#m45ad99e533" x="294.766415" y="327.117548" style="fill: #2563eb; stroke: #2563eb"/>
     <use xlink:href="#m45ad99e533" x="299.958986" y="323.230091" style="fill: #2563eb; stroke: #2563eb"/>
     <use xlink:href="#m45ad99e533" x="304.816311" y="323.169866" style="fill: #2563eb; stroke: #2563eb"/>
     <use xlink:href="#m45ad99e533" x="309.673637" y="322.188024" style="fill: #2563eb; stroke: #2563eb"/>
     <use xlink:href="#m45ad99e533" x="314.236393" y="321.986571" style="fill: #2563eb; stroke: #2563eb"/>
     <use xlink:href="#m45ad99e533" x="318.799149" y="318.583764" style="fill: #2563eb; stroke: #2563eb"/>
     <use xlink:href="#m45ad99e533" x="323.10103" y="317.791676" style="fill: #2563eb; stroke: #2563eb"/>
     <use xlink:href="#m45ad99e533" x="331.472141" y="316.802609" style="fill: #2563eb; stroke: #2563eb"/>
     <use xlink:href="#m45ad99e533" x="335.541371" y="313.199217" style="fill: #2563eb; stroke: #2563eb"/>
     <use xlink:href="#m45ad99e533" x="339.401828" y="312.610509" style="fill: #2563eb; stroke: #2563eb"/>
     <use xlink:href="#m45ad99e533" x="343.262286" y="311.877082" style="fill: #2563eb; stroke: #2563eb"/>
     <use xlink:href="#m45ad99e533" x="346.934352" y="312.08359" style="fill: #2563eb; stroke: #2563eb"/>
     <use xlink:href="#m45ad99e533" x="350.606418" y="311.640383" style="fill: #2563eb; stroke: #2563eb"/>
     <use xlink:href="#m45ad99e533" x="357.608836" y="311.18145" style="fill: #2563eb; stroke: #2563eb"/>
     <use xlink:href="#m45ad99e533" x="360.954384" y="311.037353" style="fill: #2563eb; stroke: #2563eb"/>
     <use xlink:href="#m45ad99e533" x="364.157524" y="310.778498" style="fill: #2563eb; stroke: #2563eb"/>
     <use xlink:href="#m45ad99e533" x="364.299931" y="304.090366" style="fill: #2563eb; stroke: #2563eb"/>
     <use xlink:href="#m45ad99e533" x="367.503071" y="303.472596" style="fill: #2563eb; stroke: #2563eb"/>
     <use xlink:href="#m45ad99e533" x="373.778573" y="302.894024" style="fill: #2563eb; stroke: #2563eb"/>
     <use xlink:href="#m45ad99e533" x="376.850935" y="302.197551" style="fill: #2563eb; stroke: #2563eb"/>
     <use xlink:href="#m45ad99e533" x="385.595056" y="302.279844" style="fill: #2563eb; stroke: #2563eb"/>
     <use xlink:href="#m45ad99e533" x="388.332173" y="302.089816" style="fill: #2563eb; stroke: #2563eb"/>
     <use xlink:href="#m45ad99e533" x="388.435484" y="293.081156" style="fill: #2563eb; stroke: #2563eb"/>
     <use xlink:href="#m45ad99e533" x="391.172601" y="292.105135" style="fill: #2563eb; stroke: #2563eb"/>
     <use xlink:href="#m45ad99e533" x="399.102289" y="291.423795" style="fill: #2563eb; stroke: #2563eb"/>
     <use xlink:href="#m45ad99e533" x="399.191834" y="290.715086" style="fill: #2563eb; stroke: #2563eb"/>
     <use xlink:href="#m45ad99e533" x="404.29486" y="289.216534" style="fill: #2563eb; stroke: #2563eb"/>
     <use xlink:href="#m45ad99e533" x="409.152185" y="288.854491" style="fill: #2563eb; stroke: #2563eb"/>
     <use xlink:href="#m45ad99e533" x="409.230543" y="276.549297" style="fill: #2563eb; stroke: #2563eb"/>
     <use xlink:href="#m45ad99e533" x="411.620027" y="276.240803" style="fill: #2563eb; stroke: #2563eb"/>
     <use xlink:href="#m45ad99e533" x="413.935977" y="275.44398" style="fill: #2563eb; stroke: #2563eb"/>
     <use xlink:href="#m45ad99e533" x="414.009511" y="273.179405" style="fill: #2563eb; stroke: #2563eb"/>
     <use xlink:href="#m45ad99e533" x="418.572267" y="272.618326" style="fill: #2563eb; stroke: #2563eb"/>
     <use xlink:href="#m45ad99e533" x="423.135023" y="270.519988" style="fill: #2563eb; stroke: #2563eb"/>
     <use xlink:href="#m45ad99e533" x="427.436904" y="269.765101" style="fill: #2563eb; stroke: #2563eb"/>
     <use xlink:href="#m45ad99e533" x="427.498367" y="253.54902" style="fill: #2563eb; stroke: #2563eb"/>
     <use xlink:href="#m45ad99e533" x="431.680689" y="252.749301" style="fill: #2563eb; stroke: #2563eb"/>
     <use xlink:href="#m45ad99e533" x="433.800898" y="249.967726" style="fill: #2563eb; stroke: #2563eb"/>
     <use xlink:href="#m45ad99e533" x="437.762993" y="248.859831" style="fill: #2563eb; stroke: #2563eb"/>
     <use xlink:href="#m45ad99e533" x="441.832223" y="249.088581" style="fill: #2563eb; stroke: #2563eb"/>
     <use xlink:href="#m45ad99e533" x="443.787201" y="246.979832" style="fill: #2563eb; stroke: #2563eb"/>
     <use xlink:href="#m45ad99e533" x="453.128652" y="244.572449" style="fill: #2563eb; stroke: #2563eb"/>
     <use xlink:href="#m45ad99e533" x="454.942292" y="243.838573" style="fill: #2563eb; stroke: #2563eb"/>
     <use xlink:href="#m45ad99e533" x="458.484217" y="218.579644" style="fill: #2563eb; stroke: #2563eb"/>
     <use xlink:href="#m45ad99e533" x="460.134863" y="217.229735" style="fill: #2563eb; stroke: #2563eb"/>
     <use xlink:href="#m45ad99e533" x="463.560011" y="215.777941" style="fill: #2563eb; stroke: #2563eb"/>
     <use xlink:href="#m45ad99e533" x="466.908867" y="214.742232" style="fill: #2563eb; stroke: #2563eb"/>
     <use xlink:href="#m45ad99e533" x="475.042085" y="211.254931" style="fill: #2563eb; stroke: #2563eb"/>
     <use xlink:href="#m45ad99e533" x="484.167597" y="205.481827" style="fill: #2563eb; stroke: #2563eb"/>
     <use xlink:href="#m45ad99e533" x="487.090501" y="204.295085" style="fill: #2563eb; stroke: #2563eb"/>
     <use xlink:href="#m45ad99e533" x="489.957728" y="163.52486" style="fill: #2563eb; stroke: #2563eb"/>
     <use xlink:href="#m45ad99e533" x="491.31193" y="162.108341" style="fill: #2563eb; stroke: #2563eb"/>
     <use xlink:href="#m45ad99e533" x="491.364543" y="160.706273" style="fill: #2563eb; stroke: #2563eb"/>
     <use xlink:href="#m45ad99e533" x="495.508475" y="158.996623" style="fill: #2563eb; stroke: #2563eb"/>
     <use xlink:href="#m45ad99e533" x="499.436102" y="157.288884" style="fill: #2563eb; stroke: #2563eb"/>
     <use xlink:href="#m45ad99e533" x="504.814276" y="155.563986" style="fill: #2563eb; stroke: #2563eb"/>
     <use xlink:href="#m45ad99e533" x="506.100845" y="148.780268" style="fill: #2563eb; stroke: #2563eb"/>
     <use xlink:href="#m45ad99e533" x="515.974866" y="139.876635" style="fill: #2563eb; stroke: #2563eb"/>
     <use xlink:href="#m45ad99e533" x="521.828217" y="138.04684" style="fill: #2563eb; stroke: #2563eb"/>
     <use xlink:href="#m45ad99e533" x="522.977284" y="136.870032" style="fill: #2563eb; stroke: #2563eb"/>
     <use xlink:href="#m45ad99e533" x="525.240858" y="76.456839" style="fill: #2563eb; stroke: #2563eb"/>
     <use xlink:href="#m45ad99e533" x="526.256696" y="74.564009" style="fill: #2563eb; stroke: #2563eb"/>
     <use xlink:href="#m45ad99e533" x="527.454619" y="72.49401" style="fill: #2563eb; stroke: #2563eb"/>
     <use xlink:href="#m45ad99e533" x="530.720139" y="69.624132" style="fill: #2563eb; stroke: #2563eb"/>
     <use xlink:href="#m45ad99e533" x="534.933632" y="66.8521" style="fill: #2563eb; stroke: #2563eb"/>
     <use xlink:href="#m45ad99e533" x="540.198885" y="53.630589" style="fill: #2563eb; stroke: #2563eb"/>
     <use xlink:href="#m45ad99e533" x="551.934034" y="39.377497" style="fill: #2563eb; stroke: #2563eb"/>
    </g>
   </g>
   <g id="line2d_26">
    <path d="M 64.952216 335.061656 
L 64.952216 24.597656 
" clip-path="url(#p841a805928)" style="fill: none; stroke-dasharray: 10.8,7.2; stroke-dashoffset: 0; stroke: #15803d; stroke-width: 1.8"/>
   </g>
   <g id="line2d_27">
    <path d="M 186.802468 335.061656 
L 186.802468 24.597656 
" clip-path="url(#p841a805928)" style="fill: none; stroke-dasharray: 10.8,7.2; stroke-dashoffset: 0; stroke: #d97706; stroke-width: 1.8"/>
   </g>
   <g id="patch_3">
    <path d="M 40.603125 335.061656 
L 40.603125 24.597656 
" style="fill: none; stroke: #000000; stroke-width: 0.8; stroke-linejoin: miter; stroke-linecap: square"/>
   </g>
   <g id="patch_4">
    <path d="M 576.283125 335.061656 
L 576.283125 24.597656 
" style="fill: none; stroke: #000000; stroke-width: 0.8; stroke-linejoin: miter; stroke-linecap: square"/>
   </g>
   <g id="patch_5">
    <path d="M 40.603125 335.061656 
L 576.283125 335.061656 
" style="fill: none; stroke: #000000; stroke-width: 0.8; stroke-linejoin: miter; stroke-linecap: square"/>
   </g>
   <g id="patch_6">
    <path d="M 40.603125 24.597656 
L 576.283125 24.597656 
" style="fill: none; stroke: #000000; stroke-width: 0.8; stroke-linejoin: miter; stroke-linecap: square"/>
   </g>
   <g id="patch_7">
    <path d="M 83.516099 334.237617 
Q 75.233507 334.566304 68.291501 334.84179 
" style="fill: none; stroke: #15803d; stroke-width: 1.2; stroke-linecap: round"/>
    <path d="M 72.163853 336.589615 
L 68.291501 334.84179 
L 72.013172 332.792604 
" style="fill: none; stroke: #15803d; stroke-width: 1.2; stroke-linecap: round"/>
   </g>
   <g id="text_15">
    <!-- best observed threshold = 0 -->
    <g style="fill: #166534" transform="translate(87.517077 334.01346) scale(0.095 -0.095)">
     <defs>
      <path id="DejaVuSans-3d" d="M 678 2906 
L 4684 2906 
L 4684 2381 
L 678 2381 
L 678 2906 
z
M 678 1631 
L 4684 1631 
L 4684 1100 
L 678 1100 
L 678 1631 
z
" transform="scale(0.015625)"/>
     </defs>
     <use xlink:href="#DejaVuSans-62"/>
     <use xlink:href="#DejaVuSans-65" transform="translate(63.476562 0)"/>
     <use xlink:href="#DejaVuSans-73" transform="translate(125 0)"/>
     <use xlink:href="#DejaVuSans-74" transform="translate(177.099609 0)"/>
     <use xlink:href="#DejaVuSans-20" transform="translate(216.308594 0)"/>
     <use xlink:href="#DejaVuSans-6f" transform="translate(248.095703 0)"/>
     <use xlink:href="#DejaVuSans-62" transform="translate(309.277344 0)"/>
     <use xlink:href="#DejaVuSans-73" transform="translate(372.753906 0)"/>
     <use xlink:href="#DejaVuSans-65" transform="translate(424.853516 0)"/>
     <use xlink:href="#DejaVuSans-72" transform="translate(486.376953 0)"/>
     <use xlink:href="#DejaVuSans-76" transform="translate(527.490234 0)"/>
     <use xlink:href="#DejaVuSans-65" transform="translate(586.669922 0)"/>
     <use xlink:href="#DejaVuSans-64" transform="translate(648.193359 0)"/>
     <use xlink:href="#DejaVuSans-20" transform="translate(711.669922 0)"/>
     <use xlink:href="#DejaVuSans-74" transform="translate(743.457031 0)"/>
     <use xlink:href="#DejaVuSans-68" transform="translate(782.666016 0)"/>
     <use xlink:href="#DejaVuSans-72" transform="translate(846.044922 0)"/>
     <use xlink:href="#DejaVuSans-65" transform="translate(884.908203 0)"/>
     <use xlink:href="#DejaVuSans-73" transform="translate(946.431641 0)"/>
     <use xlink:href="#DejaVuSans-68" transform="translate(998.53125 0)"/>
     <use xlink:href="#DejaVuSans-6f" transform="translate(1061.910156 0)"/>
     <use xlink:href="#DejaVuSans-6c" transform="translate(1123.091797 0)"/>
     <use xlink:href="#DejaVuSans-64" transform="translate(1150.875 0)"/>
     <use xlink:href="#DejaVuSans-20" transform="translate(1214.351562 0)"/>
     <use xlink:href="#DejaVuSans-3d" transform="translate(1246.138672 0)"/>
     <use xlink:href="#DejaVuSans-20" transform="translate(1329.927734 0)"/>
     <use xlink:href="#DejaVuSans-30" transform="translate(1361.714844 0)"/>
    </g>
   </g>
   <g id="patch_8">
    <path d="M 286.423681 327.636464 
Q 237.611779 330.284043 190.139549 332.858957 
" style="fill: none; stroke: #d97706; stroke-width: 1.2; stroke-linecap: round"/>
    <path d="M 194.036877 334.550357 
L 190.139549 332.858957 
L 193.831066 330.755934 
" style="fill: none; stroke: #d97706; stroke-width: 1.2; stroke-linecap: round"/>
   </g>
   <g id="text_16">
    <!-- current threshold = 81 -->
    <g style="fill: #92400e" transform="translate(290.413921 321.790591) scale(0.095 -0.095)">
     <use xlink:href="#DejaVuSans-63"/>
     <use xlink:href="#DejaVuSans-75" transform="translate(54.980469 0)"/>
     <use xlink:href="#DejaVuSans-72" transform="translate(118.359375 0)"/>
     <use xlink:href="#DejaVuSans-72" transform="translate(157.722656 0)"/>
     <use xlink:href="#DejaVuSans-65" transform="translate(196.585938 0)"/>
     <use xlink:href="#DejaVuSans-6e" transform="translate(258.109375 0)"/>
     <use xlink:href="#DejaVuSans-74" transform="translate(321.488281 0)"/>
     <use xlink:href="#DejaVuSans-20" transform="translate(360.697266 0)"/>
     <use xlink:href="#DejaVuSans-74" transform="translate(392.484375 0)"/>
     <use xlink:href="#DejaVuSans-68" transform="translate(431.693359 0)"/>
     <use xlink:href="#DejaVuSans-72" transform="translate(495.072266 0)"/>
     <use xlink:href="#DejaVuSans-65" transform="translate(533.935547 0)"/>
     <use xlink:href="#DejaVuSans-73" transform="translate(595.458984 0)"/>
     <use xlink:href="#DejaVuSans-68" transform="translate(647.558594 0)"/>
     <use xlink:href="#DejaVuSans-6f" transform="translate(710.9375 0)"/>
     <use xlink:href="#DejaVuSans-6c" transform="translate(772.119141 0)"/>
     <use xlink:href="#DejaVuSans-64" transform="translate(799.902344 0)"/>
     <use xlink:href="#DejaVuSans-20" transform="translate(863.378906 0)"/>
     <use xlink:href="#DejaVuSans-3d" transform="translate(895.166016 0)"/>
     <use xlink:href="#DejaVuSans-20" transform="translate(978.955078 0)"/>
     <use xlink:href="#DejaVuSans-38" transform="translate(1010.742188 0)"/>
     <use xlink:href="#DejaVuSans-31" transform="translate(1074.365234 0)"/>
    </g>
    <!-- (+0.111% vs best) -->
    <g style="fill: #92400e" transform="translate(290.413921 332.428513) scale(0.095 -0.095)">
     <defs>
      <path id="DejaVuSans-2b" d="M 2944 4013 
L 2944 2272 
L 4684 2272 
L 4684 1741 
L 2944 1741 
L 2944 0 
L 2419 0 
L 2419 1741 
L 678 1741 
L 678 2272 
L 2419 2272 
L 2419 4013 
L 2944 4013 
z
" transform="scale(0.015625)"/>
      <path id="DejaVuSans-2e" d="M 684 794 
L 1344 794 
L 1344 0 
L 684 0 
L 684 794 
z
" transform="scale(0.015625)"/>
     </defs>
     <use xlink:href="#DejaVuSans-28"/>
     <use xlink:href="#DejaVuSans-2b" transform="translate(39.013672 0)"/>
     <use xlink:href="#DejaVuSans-30" transform="translate(122.802734 0)"/>
     <use xlink:href="#DejaVuSans-2e" transform="translate(186.425781 0)"/>
     <use xlink:href="#DejaVuSans-31" transform="translate(218.212891 0)"/>
     <use xlink:href="#DejaVuSans-31" transform="translate(281.835938 0)"/>
     <use xlink:href="#DejaVuSans-31" transform="translate(345.458984 0)"/>
     <use xlink:href="#DejaVuSans-25" transform="translate(409.082031 0)"/>
     <use xlink:href="#DejaVuSans-20" transform="translate(504.101562 0)"/>
     <use xlink:href="#DejaVuSans-76" transform="translate(535.888672 0)"/>
     <use xlink:href="#DejaVuSans-73" transform="translate(595.068359 0)"/>
     <use xlink:href="#DejaVuSans-20" transform="translate(647.167969 0)"/>
     <use xlink:href="#DejaVuSans-62" transform="translate(678.955078 0)"/>
     <use xlink:href="#DejaVuSans-65" transform="translate(742.431641 0)"/>
     <use xlink:href="#DejaVuSans-73" transform="translate(803.955078 0)"/>
     <use xlink:href="#DejaVuSans-74" transform="translate(856.054688 0)"/>
     <use xlink:href="#DejaVuSans-29" transform="translate(895.263672 0)"/>
    </g>
   </g>
   <g id="text_17">
    <!-- Threshold Search: Aggregate Cost Is Flat Across Very Small Cutoffs -->
    <g transform="translate(22.963828 18.597656) scale(0.15 -0.15)">
     <defs>
      <path id="DejaVuSans-Bold-54" d="M 31 4666 
L 4331 4666 
L 4331 3756 
L 2784 3756 
L 2784 0 
L 1581 0 
L 1581 3756 
L 31 3756 
L 31 4666 
z
" transform="scale(0.015625)"/>
      <path id="DejaVuSans-Bold-68" d="M 4056 2131 
L 4056 0 
L 2931 0 
L 2931 347 
L 2931 1625 
Q 2931 2084 2911 2256 
Q 2891 2428 2841 2509 
Q 2775 2619 2662 2680 
Q 2550 2741 2406 2741 
Q 2056 2741 1856 2470 
Q 1656 2200 1656 1722 
L 1656 0 
L 538 0 
L 538 4863 
L 1656 4863 
L 1656 2988 
Q 1909 3294 2193 3439 
Q 2478 3584 2822 3584 
Q 3428 3584 3742 3212 
Q 4056 2841 4056 2131 
z
" transform="scale(0.015625)"/>
      <path id="DejaVuSans-Bold-72" d="M 3138 2547 
Q 2991 2616 2845 2648 
Q 2700 2681 2553 2681 
Q 2122 2681 1889 2404 
Q 1656 2128 1656 1613 
L 1656 0 
L 538 0 
L 538 3500 
L 1656 3500 
L 1656 2925 
Q 1872 3269 2151 3426 
Q 2431 3584 2822 3584 
Q 2878 3584 2943 3579 
Q 3009 3575 3134 3559 
L 3138 2547 
z
" transform="scale(0.015625)"/>
      <path id="DejaVuSans-Bold-65" d="M 4031 1759 
L 4031 1441 
L 1416 1441 
Q 1456 1047 1700 850 
Q 1944 653 2381 653 
Q 2734 653 3104 758 
Q 3475 863 3866 1075 
L 3866 213 
Q 3469 63 3072 -14 
Q 2675 -91 2278 -91 
Q 1328 -91 801 392 
Q 275 875 275 1747 
Q 275 2603 792 3093 
Q 1309 3584 2216 3584 
Q 3041 3584 3536 3087 
Q 4031 2591 4031 1759 
z
M 2881 2131 
Q 2881 2450 2695 2645 
Q 2509 2841 2209 2841 
Q 1884 2841 1681 2658 
Q 1478 2475 1428 2131 
L 2881 2131 
z
" transform="scale(0.015625)"/>
      <path id="DejaVuSans-Bold-73" d="M 3272 3391 
L 3272 2541 
Q 2913 2691 2578 2766 
Q 2244 2841 1947 2841 
Q 1628 2841 1473 2761 
Q 1319 2681 1319 2516 
Q 1319 2381 1436 2309 
Q 1553 2238 1856 2203 
L 2053 2175 
Q 2913 2066 3209 1816 
Q 3506 1566 3506 1031 
Q 3506 472 3093 190 
Q 2681 -91 1863 -91 
Q 1516 -91 1145 -36 
Q 775 19 384 128 
L 384 978 
Q 719 816 1070 734 
Q 1422 653 1784 653 
Q 2113 653 2278 743 
Q 2444 834 2444 1013 
Q 2444 1163 2330 1236 
Q 2216 1309 1875 1350 
L 1678 1375 
Q 931 1469 631 1722 
Q 331 1975 331 2491 
Q 331 3047 712 3315 
Q 1094 3584 1881 3584 
Q 2191 3584 2531 3537 
Q 2872 3491 3272 3391 
z
" transform="scale(0.015625)"/>
      <path id="DejaVuSans-Bold-6f" d="M 2203 2784 
Q 1831 2784 1636 2517 
Q 1441 2250 1441 1747 
Q 1441 1244 1636 976 
Q 1831 709 2203 709 
Q 2569 709 2762 976 
Q 2956 1244 2956 1747 
Q 2956 2250 2762 2517 
Q 2569 2784 2203 2784 
z
M 2203 3584 
Q 3106 3584 3614 3096 
Q 4122 2609 4122 1747 
Q 4122 884 3614 396 
Q 3106 -91 2203 -91 
Q 1297 -91 786 396 
Q 275 884 275 1747 
Q 275 2609 786 3096 
Q 1297 3584 2203 3584 
z
" transform="scale(0.015625)"/>
      <path id="DejaVuSans-Bold-6c" d="M 538 4863 
L 1656 4863 
L 1656 0 
L 538 0 
L 538 4863 
z
" transform="scale(0.015625)"/>
      <path id="DejaVuSans-Bold-64" d="M 2919 2988 
L 2919 4863 
L 4044 4863 
L 4044 0 
L 2919 0 
L 2919 506 
Q 2688 197 2409 53 
Q 2131 -91 1766 -91 
Q 1119 -91 703 423 
Q 288 938 288 1747 
Q 288 2556 703 3070 
Q 1119 3584 1766 3584 
Q 2128 3584 2408 3439 
Q 2688 3294 2919 2988 
z
M 2181 722 
Q 2541 722 2730 984 
Q 2919 1247 2919 1747 
Q 2919 2247 2730 2509 
Q 2541 2772 2181 2772 
Q 1825 2772 1636 2509 
Q 1447 2247 1447 1747 
Q 1447 1247 1636 984 
Q 1825 722 2181 722 
z
" transform="scale(0.015625)"/>
      <path id="DejaVuSans-Bold-20" transform="scale(0.015625)"/>
      <path id="DejaVuSans-Bold-53" d="M 3834 4519 
L 3834 3531 
Q 3450 3703 3084 3790 
Q 2719 3878 2394 3878 
Q 1963 3878 1756 3759 
Q 1550 3641 1550 3391 
Q 1550 3203 1689 3098 
Q 1828 2994 2194 2919 
L 2706 2816 
Q 3484 2659 3812 2340 
Q 4141 2022 4141 1434 
Q 4141 663 3683 286 
Q 3225 -91 2284 -91 
Q 1841 -91 1394 -6 
Q 947 78 500 244 
L 500 1259 
Q 947 1022 1364 901 
Q 1781 781 2169 781 
Q 2563 781 2772 912 
Q 2981 1044 2981 1288 
Q 2981 1506 2839 1625 
Q 2697 1744 2272 1838 
L 1806 1941 
Q 1106 2091 782 2419 
Q 459 2747 459 3303 
Q 459 4000 909 4375 
Q 1359 4750 2203 4750 
Q 2588 4750 2994 4692 
Q 3400 4634 3834 4519 
z
" transform="scale(0.015625)"/>
      <path id="DejaVuSans-Bold-61" d="M 2106 1575 
Q 1756 1575 1579 1456 
Q 1403 1338 1403 1106 
Q 1403 894 1545 773 
Q 1688 653 1941 653 
Q 2256 653 2472 879 
Q 2688 1106 2688 1447 
L 2688 1575 
L 2106 1575 
z
M 3816 1997 
L 3816 0 
L 2688 0 
L 2688 519 
Q 2463 200 2181 54 
Q 1900 -91 1497 -91 
Q 953 -91 614 226 
Q 275 544 275 1050 
Q 275 1666 698 1953 
Q 1122 2241 2028 2241 
L 2688 2241 
L 2688 2328 
Q 2688 2594 2478 2717 
Q 2269 2841 1825 2841 
Q 1466 2841 1156 2769 
Q 847 2697 581 2553 
L 581 3406 
Q 941 3494 1303 3539 
Q 1666 3584 2028 3584 
Q 2975 3584 3395 3211 
Q 3816 2838 3816 1997 
z
" transform="scale(0.015625)"/>
      <path id="DejaVuSans-Bold-63" d="M 3366 3391 
L 3366 2478 
Q 3138 2634 2908 2709 
Q 2678 2784 2431 2784 
Q 1963 2784 1702 2511 
Q 1441 2238 1441 1747 
Q 1441 1256 1702 982 
Q 1963 709 2431 709 
Q 2694 709 2930 787 
Q 3166 866 3366 1019 
L 3366 103 
Q 3103 6 2833 -42 
Q 2563 -91 2291 -91 
Q 1344 -91 809 395 
Q 275 881 275 1747 
Q 275 2613 809 3098 
Q 1344 3584 2291 3584 
Q 2566 3584 2833 3536 
Q 3100 3488 3366 3391 
z
" transform="scale(0.015625)"/>
      <path id="DejaVuSans-Bold-3a" d="M 716 3500 
L 1844 3500 
L 1844 2291 
L 716 2291 
L 716 3500 
z
M 716 1209 
L 1844 1209 
L 1844 0 
L 716 0 
L 716 1209 
z
" transform="scale(0.015625)"/>
      <path id="DejaVuSans-Bold-41" d="M 3419 850 
L 1538 850 
L 1241 0 
L 31 0 
L 1759 4666 
L 3194 4666 
L 4922 0 
L 3713 0 
L 3419 850 
z
M 1838 1716 
L 3116 1716 
L 2478 3572 
L 1838 1716 
z
" transform="scale(0.015625)"/>
      <path id="DejaVuSans-Bold-67" d="M 2919 594 
Q 2688 288 2409 144 
Q 2131 0 1766 0 
Q 1125 0 706 504 
Q 288 1009 288 1791 
Q 288 2575 706 3076 
Q 1125 3578 1766 3578 
Q 2131 3578 2409 3434 
Q 2688 3291 2919 2981 
L 2919 3500 
L 4044 3500 
L 4044 353 
Q 4044 -491 3511 -936 
Q 2978 -1381 1966 -1381 
Q 1638 -1381 1331 -1331 
Q 1025 -1281 716 -1178 
L 716 -306 
Q 1009 -475 1290 -558 
Q 1572 -641 1856 -641 
Q 2406 -641 2662 -400 
Q 2919 -159 2919 353 
L 2919 594 
z
M 2181 2772 
Q 1834 2772 1640 2515 
Q 1447 2259 1447 1791 
Q 1447 1309 1634 1061 
Q 1822 813 2181 813 
Q 2531 813 2725 1069 
Q 2919 1325 2919 1791 
Q 2919 2259 2725 2515 
Q 2531 2772 2181 2772 
z
" transform="scale(0.015625)"/>
      <path id="DejaVuSans-Bold-74" d="M 1759 4494 
L 1759 3500 
L 2913 3500 
L 2913 2700 
L 1759 2700 
L 1759 1216 
Q 1759 972 1856 886 
Q 1953 800 2241 800 
L 2816 800 
L 2816 0 
L 1856 0 
Q 1194 0 917 276 
Q 641 553 641 1216 
L 641 2700 
L 84 2700 
L 84 3500 
L 641 3500 
L 641 4494 
L 1759 4494 
z
" transform="scale(0.015625)"/>
      <path id="DejaVuSans-Bold-43" d="M 4288 256 
Q 3956 84 3597 -3 
Q 3238 -91 2847 -91 
Q 1681 -91 1000 561 
Q 319 1213 319 2328 
Q 319 3447 1000 4098 
Q 1681 4750 2847 4750 
Q 3238 4750 3597 4662 
Q 3956 4575 4288 4403 
L 4288 3438 
Q 3953 3666 3628 3772 
Q 3303 3878 2944 3878 
Q 2300 3878 1931 3465 
Q 1563 3053 1563 2328 
Q 1563 1606 1931 1193 
Q 2300 781 2944 781 
Q 3303 781 3628 887 
Q 3953 994 4288 1222 
L 4288 256 
z
" transform="scale(0.015625)"/>
      <path id="DejaVuSans-Bold-49" d="M 588 4666 
L 1791 4666 
L 1791 0 
L 588 0 
L 588 4666 
z
" transform="scale(0.015625)"/>
      <path id="DejaVuSans-Bold-46" d="M 588 4666 
L 3834 4666 
L 3834 3756 
L 1791 3756 
L 1791 2888 
L 3713 2888 
L 3713 1978 
L 1791 1978 
L 1791 0 
L 588 0 
L 588 4666 
z
" transform="scale(0.015625)"/>
      <path id="DejaVuSans-Bold-56" d="M 31 4666 
L 1241 4666 
L 2478 1222 
L 3713 4666 
L 4922 4666 
L 3194 0 
L 1759 0 
L 31 4666 
z
" transform="scale(0.015625)"/>
      <path id="DejaVuSans-Bold-79" d="M 78 3500 
L 1197 3500 
L 2138 1125 
L 2938 3500 
L 4056 3500 
L 2584 -331 
Q 2363 -916 2067 -1148 
Q 1772 -1381 1288 -1381 
L 641 -1381 
L 641 -647 
L 991 -647 
Q 1275 -647 1404 -556 
Q 1534 -466 1606 -231 
L 1638 -134 
L 78 3500 
z
" transform="scale(0.015625)"/>
      <path id="DejaVuSans-Bold-6d" d="M 3781 2919 
Q 3994 3244 4286 3414 
Q 4578 3584 4928 3584 
Q 5531 3584 5847 3212 
Q 6163 2841 6163 2131 
L 6163 0 
L 5038 0 
L 5038 1825 
Q 5041 1866 5042 1909 
Q 5044 1953 5044 2034 
Q 5044 2406 4934 2573 
Q 4825 2741 4581 2741 
Q 4263 2741 4089 2478 
Q 3916 2216 3909 1719 
L 3909 0 
L 2784 0 
L 2784 1825 
Q 2784 2406 2684 2573 
Q 2584 2741 2328 2741 
Q 2006 2741 1831 2477 
Q 1656 2213 1656 1722 
L 1656 0 
L 531 0 
L 531 3500 
L 1656 3500 
L 1656 2988 
Q 1863 3284 2130 3434 
Q 2397 3584 2719 3584 
Q 3081 3584 3359 3409 
Q 3638 3234 3781 2919 
z
" transform="scale(0.015625)"/>
      <path id="DejaVuSans-Bold-75" d="M 500 1363 
L 500 3500 
L 1625 3500 
L 1625 3150 
Q 1625 2866 1622 2436 
Q 1619 2006 1619 1863 
Q 1619 1441 1641 1255 
Q 1663 1069 1716 984 
Q 1784 875 1895 815 
Q 2006 756 2150 756 
Q 2500 756 2700 1025 
Q 2900 1294 2900 1772 
L 2900 3500 
L 4019 3500 
L 4019 0 
L 2900 0 
L 2900 506 
Q 2647 200 2364 54 
Q 2081 -91 1741 -91 
Q 1134 -91 817 281 
Q 500 653 500 1363 
z
" transform="scale(0.015625)"/>
      <path id="DejaVuSans-Bold-66" d="M 2841 4863 
L 2841 4128 
L 2222 4128 
Q 1984 4128 1890 4042 
Q 1797 3956 1797 3744 
L 1797 3500 
L 2753 3500 
L 2753 2700 
L 1797 2700 
L 1797 0 
L 678 0 
L 678 2700 
L 122 2700 
L 122 3500 
L 678 3500 
L 678 3744 
Q 678 4316 997 4589 
Q 1316 4863 1984 4863 
L 2841 4863 
z
" transform="scale(0.015625)"/>
     </defs>
     <use xlink:href="#DejaVuSans-Bold-54"/>
     <use xlink:href="#DejaVuSans-Bold-68" transform="translate(68.212891 0)"/>
     <use xlink:href="#DejaVuSans-Bold-72" transform="translate(139.404297 0)"/>
     <use xlink:href="#DejaVuSans-Bold-65" transform="translate(188.720703 0)"/>
     <use xlink:href="#DejaVuSans-Bold-73" transform="translate(256.542969 0)"/>
     <use xlink:href="#DejaVuSans-Bold-68" transform="translate(316.064453 0)"/>
     <use xlink:href="#DejaVuSans-Bold-6f" transform="translate(387.255859 0)"/>
     <use xlink:href="#DejaVuSans-Bold-6c" transform="translate(455.957031 0)"/>
     <use xlink:href="#DejaVuSans-Bold-64" transform="translate(490.234375 0)"/>
     <use xlink:href="#DejaVuSans-Bold-20" transform="translate(561.816406 0)"/>
     <use xlink:href="#DejaVuSans-Bold-53" transform="translate(596.630859 0)"/>
     <use xlink:href="#DejaVuSans-Bold-65" transform="translate(668.652344 0)"/>
     <use xlink:href="#DejaVuSans-Bold-61" transform="translate(736.474609 0)"/>
     <use xlink:href="#DejaVuSans-Bold-72" transform="translate(803.955078 0)"/>
     <use xlink:href="#DejaVuSans-Bold-63" transform="translate(853.271484 0)"/>
     <use xlink:href="#DejaVuSans-Bold-68" transform="translate(912.548828 0)"/>
     <use xlink:href="#DejaVuSans-Bold-3a" transform="translate(983.740234 0)"/>
     <use xlink:href="#DejaVuSans-Bold-20" transform="translate(1023.730469 0)"/>
     <use xlink:href="#DejaVuSans-Bold-41" transform="translate(1058.544922 0)"/>
     <use xlink:href="#DejaVuSans-Bold-67" transform="translate(1135.9375 0)"/>
     <use xlink:href="#DejaVuSans-Bold-67" transform="translate(1207.519531 0)"/>
     <use xlink:href="#DejaVuSans-Bold-72" transform="translate(1279.101562 0)"/>
     <use xlink:href="#DejaVuSans-Bold-65" transform="translate(1328.417969 0)"/>
     <use xlink:href="#DejaVuSans-Bold-67" transform="translate(1396.240234 0)"/>
     <use xlink:href="#DejaVuSans-Bold-61" transform="translate(1467.822266 0)"/>
     <use xlink:href="#DejaVuSans-Bold-74" transform="translate(1535.302734 0)"/>
     <use xlink:href="#DejaVuSans-Bold-65" transform="translate(1583.105469 0)"/>
     <use xlink:href="#DejaVuSans-Bold-20" transform="translate(1650.927734 0)"/>
     <use xlink:href="#DejaVuSans-Bold-43" transform="translate(1685.742188 0)"/>
     <use xlink:href="#DejaVuSans-Bold-6f" transform="translate(1759.130859 0)"/>
     <use xlink:href="#DejaVuSans-Bold-73" transform="translate(1827.832031 0)"/>
     <use xlink:href="#DejaVuSans-Bold-74" transform="translate(1887.353516 0)"/>
     <use xlink:href="#DejaVuSans-Bold-20" transform="translate(1935.15625 0)"/>
     <use xlink:href="#DejaVuSans-Bold-49" transform="translate(1969.970703 0)"/>
     <use xlink:href="#DejaVuSans-Bold-73" transform="translate(2007.177734 0)"/>
     <use xlink:href="#DejaVuSans-Bold-20" transform="translate(2066.699219 0)"/>
     <use xlink:href="#DejaVuSans-Bold-46" transform="translate(2101.513672 0)"/>
     <use xlink:href="#DejaVuSans-Bold-6c" transform="translate(2169.824219 0)"/>
     <use xlink:href="#DejaVuSans-Bold-61" transform="translate(2204.101562 0)"/>
     <use xlink:href="#DejaVuSans-Bold-74" transform="translate(2271.582031 0)"/>
     <use xlink:href="#DejaVuSans-Bold-20" transform="translate(2319.384766 0)"/>
     <use xlink:href="#DejaVuSans-Bold-41" transform="translate(2354.199219 0)"/>
     <use xlink:href="#DejaVuSans-Bold-63" transform="translate(2431.591797 0)"/>
     <use xlink:href="#DejaVuSans-Bold-72" transform="translate(2490.869141 0)"/>
     <use xlink:href="#DejaVuSans-Bold-6f" transform="translate(2540.185547 0)"/>
     <use xlink:href="#DejaVuSans-Bold-73" transform="translate(2608.886719 0)"/>
     <use xlink:href="#DejaVuSans-Bold-73" transform="translate(2668.408203 0)"/>
     <use xlink:href="#DejaVuSans-Bold-20" transform="translate(2727.929688 0)"/>
     <use xlink:href="#DejaVuSans-Bold-56" transform="translate(2762.744141 0)"/>
     <use xlink:href="#DejaVuSans-Bold-65" transform="translate(2834.636719 0)"/>
     <use xlink:href="#DejaVuSans-Bold-72" transform="translate(2902.458984 0)"/>
     <use xlink:href="#DejaVuSans-Bold-79" transform="translate(2951.775391 0)"/>
     <use xlink:href="#DejaVuSans-Bold-20" transform="translate(3016.960938 0)"/>
     <use xlink:href="#DejaVuSans-Bold-53" transform="translate(3051.775391 0)"/>
     <use xlink:href="#DejaVuSans-Bold-6d" transform="translate(3123.796875 0)"/>
     <use xlink:href="#DejaVuSans-Bold-61" transform="translate(3227.996094 0)"/>
     <use xlink:href="#DejaVuSans-Bold-6c" transform="translate(3295.476562 0)"/>
     <use xlink:href="#DejaVuSans-Bold-6c" transform="translate(3329.753906 0)"/>
     <use xlink:href="#DejaVuSans-Bold-20" transform="translate(3364.03125 0)"/>
     <use xlink:href="#DejaVuSans-Bold-43" transform="translate(3398.845703 0)"/>
     <use xlink:href="#DejaVuSans-Bold-75" transform="translate(3472.234375 0)"/>
     <use xlink:href="#DejaVuSans-Bold-74" transform="translate(3543.425781 0)"/>
     <use xlink:href="#DejaVuSans-Bold-6f" transform="translate(3591.228516 0)"/>
     <use xlink:href="#DejaVuSans-Bold-66" transform="translate(3659.929688 0)"/>
     <use xlink:href="#DejaVuSans-Bold-66" transform="translate(3703.435547 0)"/>
     <use xlink:href="#DejaVuSans-Bold-73" transform="translate(3746.941406 0)"/>
    </g>
   </g>
   <g id="PathCollection_1">
    <defs>
     <path id="m9f812b75f0" d="M 0 3.674235 
C 0.974418 3.674235 1.909058 3.287094 2.598076 2.598076 
C 3.287094 1.909058 3.674235 0.974418 3.674235 0 
C 3.674235 -0.974418 3.287094 -1.909058 2.598076 -2.598076 
C 1.909058 -3.287094 0.974418 -3.674235 0 -3.674235 
C -0.974418 -3.674235 -1.909058 -3.287094 -2.598076 -2.598076 
C -3.287094 -1.909058 -3.674235 -0.974418 -3.674235 0 
C -3.674235 0.974418 -3.287094 1.909058 -2.598076 2.598076 
C -1.909058 3.287094 -0.974418 3.674235 0 3.674235 
z
" style="stroke: #15803d"/>
    </defs>
    <g clip-path="url(#p841a805928)">
     <use xlink:href="#m9f812b75f0" x="64.952216" y="334.974307" style="fill: #15803d; stroke: #15803d"/>
    </g>
   </g>
   <g id="PathCollection_2">
    <defs>
     <path id="m682090e289" d="M 0 3.674235 
C 0.974418 3.674235 1.909058 3.287094 2.598076 2.598076 
C 3.287094 1.909058 3.674235 0.974418 3.674235 0 
C 3.674235 -0.974418 3.287094 -1.909058 2.598076 -2.598076 
C 1.909058 -3.287094 0.974418 -3.674235 0 -3.674235 
C -0.974418 -3.674235 -1.909058 -3.287094 -2.598076 -2.598076 
C -3.287094 -1.909058 -3.674235 -0.974418 -3.674235 0 
C -3.674235 0.974418 -3.287094 1.909058 -2.598076 2.598076 
C -1.909058 3.287094 -0.974418 3.674235 0 3.674235 
z
" style="stroke: #d97706"/>
    </defs>
    <g clip-path="url(#p841a805928)">
     <use xlink:href="#m682090e289" x="186.802468" y="333.039961" style="fill: #d97706; stroke: #d97706"/>
    </g>
   </g>
  </g>
 </g>
 <defs>
  <clipPath id="p841a805928">
   <rect x="40.603125" y="24.597656" width="535.68" height="310.464"/>
  </clipPath>
 </defs>
</svg>
